<svg width="340" height="340" viewBox="0 0 340 340" fill="none" xmlns="http://www.w3.org/2000/svg">
<g clip-path="url(#clip0_8272_4861)">
<rect width="340" height="340" fill="#F3F6F9"/>
<ellipse cx="170.5" cy="152.5" rx="148.5" ry="141" fill="white"/>
<path d="M169 -44C124.266 -43.7353 81.4615 -25.745 49.9698 6.0275C18.4781 37.8 0.868388 80.7623 1.00074 125.497C1.13309 170.232 18.9967 213.089 50.6759 244.675C82.355 276.26 125.265 293.997 170 293.997C214.735 293.997 257.645 276.26 289.324 244.675C321.003 213.089 338.867 170.232 338.999 125.497C339.132 80.7623 321.522 37.8 290.03 6.0275C258.539 -25.745 215.734 -43.7353 171 -44H169ZM169 42C189.068 42.2641 208.217 50.4554 222.268 64.7863C236.319 79.1171 244.13 98.424 243.998 118.493C243.866 138.563 235.801 157.765 221.563 171.91C207.325 186.055 188.07 193.993 168 193.993C147.93 193.993 128.675 186.055 114.437 171.91C100.199 157.765 92.1337 138.563 92.0016 118.493C91.8696 98.424 99.6814 79.1171 113.732 64.7863C127.783 50.4554 146.932 42.2641 167 42H169ZM57 242.5C75 219.167 97.3333 207.5 124 207.5H216C242.667 207.5 265 219.167 283 242.5C252.516 271.482 212.062 287.643 170 287.643C127.938 287.643 87.4839 271.482 57 242.5Z" fill="#F3F6F9"/>
</g>
<defs>
<clipPath id="clip0_8272_4861">
<rect width="340" height="340" fill="white"/>
</clipPath>
</defs>
</svg>
