<svg width="252" height="319" viewBox="0 0 252 319" fill="none" xmlns="http://www.w3.org/2000/svg">
<g clip-path="url(#clip0_919_15148)">
<circle cx="1.254" cy="311.391" r="1.254" fill="black"/>
<circle cx="1.254" cy="304.268" r="1.254" fill="black"/>
<circle cx="1.254" cy="318.512" r="1.254" fill="black"/>
<circle cx="22.5758" cy="311.39" r="1.254" fill="black"/>
<circle cx="29.6163" cy="311.376" r="1.254" fill="black"/>
<circle cx="22.5758" cy="304.268" r="1.254" fill="black"/>
<circle cx="29.6163" cy="304.254" r="1.254" fill="black"/>
<circle cx="22.5758" cy="318.512" r="1.254" fill="black"/>
<circle cx="29.6163" cy="318.499" r="1.254" fill="black"/>
<circle cx="8.36191" cy="311.376" r="1.254" fill="black"/>
<circle cx="8.36191" cy="304.254" r="1.254" fill="black"/>
<circle cx="8.36191" cy="318.499" r="1.254" fill="black"/>
<circle cx="15.4684" cy="311.376" r="1.254" fill="black"/>
<circle cx="15.4684" cy="304.254" r="1.254" fill="black"/>
<circle cx="15.4684" cy="318.499" r="1.254" fill="black"/>
<circle cx="222.254" cy="1.39072" r="1.254" fill="black"/>
<circle cx="222.254" cy="8.5123" r="1.254" fill="black"/>
<circle cx="222.254" cy="15.6344" r="1.254" fill="black"/>
<circle cx="243.576" cy="1.39023" r="1.254" fill="black"/>
<circle cx="250.616" cy="1.37558" r="1.254" fill="black"/>
<circle cx="243.576" cy="8.5123" r="1.254" fill="black"/>
<circle cx="250.616" cy="8.49863" r="1.254" fill="black"/>
<circle cx="243.576" cy="15.6344" r="1.254" fill="black"/>
<circle cx="250.616" cy="15.6192" r="1.254" fill="black"/>
<circle cx="229.362" cy="1.37558" r="1.254" fill="black"/>
<circle cx="229.362" cy="8.49863" r="1.254" fill="black"/>
<circle cx="229.362" cy="15.6192" r="1.254" fill="black"/>
<circle cx="236.468" cy="1.37558" r="1.254" fill="black"/>
<circle cx="236.468" cy="8.49863" r="1.254" fill="black"/>
<circle cx="236.468" cy="15.6192" r="1.254" fill="black"/>
<rect x="0.332809" y="118.278" width="87.1928" height="195.208" rx="43.5964" transform="rotate(90 0.332809 118.278)" stroke="black" stroke-opacity="0.8" stroke-width="0.248444"/>
<rect x="7.19072" y="111.42" width="100.909" height="202.067" rx="50.4545" transform="rotate(90 7.19072 111.42)" stroke="black" stroke-opacity="0.8" stroke-width="0.248444"/>
<rect x="14.0486" y="104.561" width="114.625" height="208.925" rx="57.3127" transform="rotate(90 14.0486 104.561)" stroke="black" stroke-opacity="0.8" stroke-width="0.248444"/>
<rect x="20.907" y="97.7028" width="128.342" height="215.783" rx="64.1708" transform="rotate(90 20.907 97.7028)" stroke="black" stroke-opacity="0.8" stroke-width="0.248444"/>
<rect x="27.7654" y="90.8449" width="142.058" height="222.641" rx="71.0289" transform="rotate(90 27.7654 90.8449)" stroke="black" stroke-opacity="0.8" stroke-width="0.248444"/>
<rect x="34.6233" y="83.987" width="155.774" height="229.499" rx="77.8871" transform="rotate(90 34.6233 83.987)" stroke="black" stroke-opacity="0.8" stroke-width="0.248444"/>
<rect x="300.185" y="319.009" width="19.8673" height="103.108" rx="9.93367" transform="rotate(90 300.185 319.009)" stroke="black" stroke-opacity="0.8" stroke-width="0.152684"/>
<rect x="304.4" y="314.795" width="28.2968" height="107.323" rx="14.1484" transform="rotate(90 304.4 314.795)" stroke="black" stroke-opacity="0.8" stroke-width="0.152684"/>
<rect x="308.615" y="310.579" width="36.7263" height="111.538" rx="18.3632" transform="rotate(90 308.615 310.579)" stroke="black" stroke-opacity="0.8" stroke-width="0.152684"/>
<rect x="312.829" y="306.365" width="45.1558" height="115.753" rx="22.5779" transform="rotate(90 312.829 306.365)" stroke="black" stroke-opacity="0.8" stroke-width="0.152684"/>
<rect x="317.044" y="302.15" width="53.5853" height="119.967" rx="26.7926" transform="rotate(90 317.044 302.15)" stroke="black" stroke-opacity="0.8" stroke-width="0.152684"/>
<rect x="321.259" y="297.935" width="62.0148" height="124.182" rx="31.0074" transform="rotate(90 321.259 297.935)" stroke="black" stroke-opacity="0.8" stroke-width="0.152684"/>
<rect x="325.473" y="293.72" width="70.4442" height="128.397" rx="35.2221" transform="rotate(90 325.473 293.72)" stroke="black" stroke-opacity="0.8" stroke-width="0.152684"/>
<rect x="329.689" y="289.506" width="78.8737" height="132.612" rx="39.4369" transform="rotate(90 329.689 289.506)" stroke="black" stroke-opacity="0.8" stroke-width="0.152684"/>
<rect x="333.903" y="285.291" width="87.3032" height="136.826" rx="43.6516" transform="rotate(90 333.903 285.291)" stroke="black" stroke-opacity="0.8" stroke-width="0.152684"/>
<rect x="338.118" y="281.076" width="95.7327" height="141.041" rx="47.8663" transform="rotate(90 338.118 281.076)" stroke="black" stroke-opacity="0.8" stroke-width="0.152684"/>
</g>
<rect x="0.434256" y="0.434256" width="251.131" height="318.132" stroke="black" stroke-width="0.868512"/>
<defs>
<clipPath id="clip0_919_15148">
<rect width="252" height="319" fill="white"/>
</clipPath>
</defs>
</svg>
