<svg width="240" height="242" viewBox="0 0 240 242" fill="none" xmlns="http://www.w3.org/2000/svg">
<path d="M105.183 241.932H144.097C144.097 241.932 133.38 239.837 133.38 234.01C133.38 228.185 132.214 220.031 133.38 219.096C134.544 218.164 141.301 211.405 144.097 209.543C146.896 207.678 152.952 203.718 152.952 203.718L147.827 199.29C147.827 199.29 129.65 204.884 127.321 207.678C127.321 207.678 116.834 193.23 98.4245 189.504L94.4639 194.397C94.4639 194.397 114.503 213.036 114.738 215.716C114.969 218.396 113.337 223.757 113.337 226.317C113.337 228.884 114.738 233.31 114.038 235.178C113.337 237.037 110.543 240.998 105.183 241.932Z" fill="#82572A"/>
<path d="M144.097 209.543C146.896 207.678 152.952 203.718 152.952 203.718L147.827 199.29C147.827 199.29 129.65 204.884 127.321 207.678C127.321 207.678 116.834 193.23 98.4249 189.504L97.3984 190.772C98.9787 192.588 102.408 196.063 107.824 199.227C115.594 203.773 121.514 207.796 123.709 218.277C125.453 226.613 125.137 237.031 129.147 241.932H144.097C144.097 241.932 133.38 239.837 133.38 234.01C133.38 228.185 132.214 220.031 133.38 219.096C134.545 218.164 141.301 211.405 144.097 209.543Z" fill="#7C5227"/>
<path d="M105.183 241.933H121.185C120.521 241.01 119.929 240.025 119.422 238.986C117.519 235.069 116.986 230.859 116.67 226.574C116.411 223.063 117.17 219.343 116.563 215.89C115.684 210.898 109.878 206.341 106.359 203.07C102.767 199.724 99.0324 196.538 95.4021 193.236L94.4639 194.398C94.4639 194.398 114.503 213.037 114.738 215.717C114.969 218.397 113.337 223.758 113.337 226.318C113.337 228.885 114.738 233.311 114.038 235.179C113.337 237.038 110.543 240.999 105.183 241.933Z" fill="#AE7E48"/>
<path d="M103.07 194.579C109.882 198.654 117.494 202.517 122.292 209.069C125.877 213.977 126.934 220.161 128.006 225.992C128.455 228.428 130 241.932 134.118 241.932H144.097C144.097 241.932 133.379 239.837 133.379 234.01C133.379 228.185 132.213 220.031 133.379 219.096C134.544 218.164 141.301 211.405 144.097 209.543C146.896 207.678 152.952 203.718 152.952 203.718L147.827 199.29C147.827 199.29 129.649 204.884 127.32 207.678C127.32 207.678 116.834 193.23 98.4242 189.504L97.9814 190.049C99.2229 191.984 101.118 193.406 103.07 194.579Z" fill="#693F17"/>
<path d="M93.0461 101.536C92.3613 101.206 93.4262 95.0272 93.4675 94.2926C93.6696 90.8032 93.5144 86.7928 91.6153 83.7277C88.3978 78.537 81.3749 75.9303 75.9208 73.9215C69.2781 71.4757 63.3357 63.0817 50.4032 62.3827C37.4692 61.6823 37.4692 61.6822 37.4692 61.6822C37.4692 61.6822 53.1992 59.0656 59.8406 62.5593C66.4834 66.0515 70.501 66.5754 69.103 64.6591C67.7049 62.7358 63.6845 54.8259 63.5108 50.125C65.4128 55.3327 67.7362 60.5903 71.4947 64.6919C72.1909 65.4564 72.7575 67.31 72.2492 68.3279C72.2492 68.3279 71.3737 70.0762 78.7155 73.0474C86.0545 76.0157 100.386 77.5931 99.3372 99.4349C99.3372 99.4349 100.386 105.028 93.0461 101.536Z" fill="#82572A"/>
<path d="M138.313 142.925C138.313 142.925 139.536 124.052 138.313 120.904C137.089 117.759 131.497 107.271 133.769 93.292C133.769 93.292 134.468 97.1601 135.168 99.6814C135.866 102.201 138.527 108.148 138.856 111.642C138.856 111.642 141.109 113.213 142.682 111.294C144.256 109.371 150.023 105.2 151.071 99.6814C151.071 99.6814 151.771 106.223 145.13 112.165C145.13 112.165 141.458 115.658 141.458 120.027C141.458 124.399 143.206 140.825 138.313 142.925Z" fill="#82572A"/>
<path d="M146.001 145.924C146.001 145.924 160.167 126.526 164.58 113.594C164.58 113.594 166.421 110.799 166.052 113.594C165.684 116.388 156.303 137.184 147.29 145.924C147.29 145.924 146.001 149.246 146.001 145.924Z" fill="#693F17"/>
<path d="M78.715 73.0474C71.3731 70.0762 72.2487 68.3279 72.2487 68.3279C72.7569 67.31 72.1903 65.4564 71.4941 64.6919C67.7357 60.5903 65.4123 55.3327 63.5103 50.125C63.6839 54.8259 67.7044 62.7358 69.1024 64.6591C70.0321 65.9333 68.56 66.1212 65.5304 65.0919C67.179 66.6224 68.5429 68.4376 70.2385 69.9282C72.2159 71.6622 74.6817 72.5676 77.1176 73.4659C81.8755 75.2298 86.8754 76.6635 91.0353 79.6788C92.9245 81.0469 94.5717 82.7126 95.6522 84.7954C96.6089 86.6334 97.0873 88.6578 97.2752 90.7122C97.6396 94.6956 97.0061 98.6789 96.7655 102.662C99.956 102.816 99.3367 99.4349 99.3367 99.4349C100.386 77.5931 86.0539 76.0157 78.715 73.0474Z" fill="#693F17"/>
<path d="M151.07 99.6814C150.022 105.2 144.255 109.371 142.682 111.294C141.109 113.213 138.855 111.642 138.855 111.642C138.526 108.148 135.865 102.201 135.168 99.6814C134.467 97.1601 133.768 93.292 133.768 93.292C133.034 97.8207 133.129 101.974 133.627 105.644C134.379 107.812 135.586 109.842 136.979 111.646C137.861 112.786 138.81 113.917 139.43 115.226C140 116.427 140.289 117.765 140.479 119.072C140.911 122.06 140.811 125.111 140.534 128.109C140.407 129.463 140.209 130.813 140.041 132.161C139.823 133.896 139.716 135.647 139.47 137.383C139.222 139.141 138.861 140.881 138.335 142.561C138.321 142.788 138.313 142.925 138.313 142.925C143.206 140.825 141.458 124.399 141.458 120.027C141.458 115.658 145.129 112.165 145.129 112.165C151.771 106.223 151.07 99.6814 151.07 99.6814Z" fill="#693F17"/>
<path d="M134.601 237.198C134.597 237.198 134.596 237.198 134.593 237.198C133.874 236.315 133.41 235.297 133.381 234.126C133.41 235.297 133.878 236.315 134.601 237.198ZM133.381 234.12C133.381 234.103 133.38 234.084 133.38 234.067C133.38 234.084 133.381 234.103 133.381 234.12ZM133.38 234.063C133.38 234.046 133.38 234.029 133.38 234.012C133.38 234.029 133.38 234.046 133.38 234.063Z" fill="#C4BFAA"/>
<path d="M114.406 219.512C114.627 218.228 114.785 217.008 114.755 216.06C114.756 216.134 114.759 216.208 114.759 216.286C114.759 217.196 114.61 218.324 114.406 219.512ZM114.755 216.051C114.755 216.037 114.755 216.019 114.755 216.007C114.755 216.019 114.755 216.037 114.755 216.051ZM114.755 216.002C114.752 215.99 114.752 215.973 114.752 215.963C114.752 215.973 114.752 215.99 114.755 216.002ZM114.751 215.952C114.751 215.94 114.751 215.922 114.749 215.91C114.751 215.922 114.751 215.94 114.751 215.952ZM114.749 215.905C114.749 215.889 114.748 215.878 114.748 215.866C114.748 215.878 114.749 215.889 114.749 215.905ZM114.748 215.855C114.745 215.843 114.745 215.825 114.744 215.814C114.745 215.825 114.745 215.843 114.748 215.855ZM114.744 215.808C114.744 215.792 114.742 215.781 114.742 215.77C114.742 215.781 114.744 215.792 114.744 215.808Z" fill="#C4BFAA"/>
<path d="M125.885 233.26C123.74 231.907 121.748 230.318 119.987 228.491C118.995 227.462 118.041 226.414 117.259 225.21C117.036 224.867 116.825 224.514 116.623 224.163C116.684 221.391 117.031 218.555 116.563 215.889C115.683 210.898 109.877 206.34 106.358 203.069C106.35 203.062 106.343 203.052 106.334 203.045C106.489 202.256 106.952 201.988 107.574 201.988C108.764 201.988 110.551 202.962 111.922 203.073H113.871C118.614 206.528 122.127 210.727 123.708 218.278C124.709 223.063 125.032 228.538 125.885 233.26Z" fill="#704721"/>
<path d="M129.828 235.405C128.763 234.91 127.728 234.364 126.723 233.772C126.442 233.606 126.163 233.437 125.886 233.26C125.033 228.538 124.71 223.063 123.709 218.278C122.127 210.727 118.615 206.528 113.872 203.073H116.401C118.605 204.827 120.62 206.79 122.293 209.07C125.877 213.977 126.935 220.161 128.007 225.993C128.242 227.27 128.779 231.588 129.828 235.405Z" fill="#6B431F"/>
<path d="M116.623 224.162C116.131 223.288 115.694 222.391 115.28 221.482C114.983 220.825 114.696 220.172 114.407 219.511C114.61 218.323 114.76 217.195 114.76 216.285C114.76 216.207 114.757 216.133 114.756 216.059V216.05C114.756 216.036 114.756 216.018 114.756 216.006V216.001C114.753 215.989 114.753 215.972 114.753 215.962C114.751 215.957 114.751 215.957 114.751 215.951C114.751 215.94 114.751 215.921 114.75 215.91C114.75 215.904 114.75 215.904 114.75 215.904C114.75 215.888 114.749 215.877 114.749 215.865C114.749 215.86 114.749 215.86 114.749 215.854C114.746 215.843 114.746 215.824 114.744 215.813C114.744 215.807 114.744 215.807 114.744 215.807C114.744 215.791 114.743 215.78 114.743 215.769C114.743 215.761 114.74 215.761 114.74 215.757C114.74 215.744 114.739 215.727 114.739 215.716C114.686 215.131 113.694 213.788 112.172 212.047C110.742 210.407 108.85 208.417 106.832 206.374C107.061 205.276 105.987 204.939 106.329 203.072C106.332 203.061 106.333 203.055 106.335 203.044C106.343 203.051 106.35 203.061 106.359 203.068C109.878 206.34 115.684 210.897 116.564 215.888C117.032 218.555 116.685 221.391 116.623 224.162Z" fill="#966739"/>
<path d="M134.592 237.197C132.962 236.72 131.368 236.116 129.827 235.405C128.778 231.588 128.241 227.27 128.007 225.993C126.935 220.161 125.877 213.977 122.292 209.07C120.619 206.79 118.605 204.827 116.401 203.073H123.202C125.904 205.726 127.32 207.679 127.32 207.679C128.065 206.783 130.428 205.607 133.3 204.411C133.278 204.424 133.254 204.433 133.231 204.439C131.131 205.288 139.535 206.044 139.535 206.044C140.562 208.667 142.069 209.578 143.663 209.578C143.799 209.578 143.933 209.572 144.07 209.561C141.257 211.45 134.54 218.17 133.379 219.097C132.991 219.405 132.863 220.509 132.861 222.062C132.858 225.187 133.379 230.12 133.379 234.011C133.379 234.028 133.379 234.045 133.379 234.062V234.066C133.379 234.083 133.381 234.102 133.381 234.119C133.381 234.125 133.381 234.125 133.381 234.125C133.409 235.296 133.873 236.314 134.592 237.197Z" fill="#5B3312"/>
<path d="M151.093 204.936C151.163 204.827 151.269 204.759 151.407 204.73C151.306 204.792 151.201 204.86 151.093 204.936Z" fill="#5B3312"/>
<path d="M90.4977 82.1944C90.4849 82.1831 90.4707 82.1717 90.4579 82.1617C87.9593 79.2247 84.1852 77.2216 80.4623 75.6684C80.4581 75.6684 80.4552 75.6684 80.4509 75.6627C84.1909 77.2216 87.9964 79.2318 90.4977 82.1944ZM79.2907 75.1972C78.1332 74.7359 76.9971 74.316 75.9209 73.9216C69.2781 71.4757 63.3357 63.0818 50.4032 62.3828C37.4692 61.6823 37.4692 61.6823 37.4692 61.6823C37.4692 61.6823 37.4692 61.6823 50.4032 62.3828C63.3357 63.0818 69.2781 71.4757 75.9209 73.9216C76.9971 74.316 78.1347 74.7359 79.2921 75.1972H79.2907ZM65.5367 65.0963C65.5196 65.092 65.4997 65.0793 65.4826 65.075C65.4997 65.0793 65.5196 65.092 65.5367 65.0963ZM65.4669 65.0693C65.4356 65.0564 65.4014 65.045 65.3687 65.0336C65.4014 65.045 65.4356 65.0564 65.4669 65.0693ZM65.3146 65.0166C65.2847 65.0038 65.2562 65.001 65.2292 64.9896C65.2562 65.001 65.2847 65.0038 65.3146 65.0166ZM64.1031 64.5568C64.0048 64.5183 63.9066 64.477 63.8055 64.4357C63.9066 64.477 64.0048 64.5212 64.1031 64.5568ZM63.7927 64.4301C63.1008 64.1468 62.352 63.8093 61.5561 63.4235C62.352 63.8093 63.1008 64.1468 63.7927 64.4301ZM61.3426 63.321C61.3013 63.3053 61.26 63.2826 61.2202 63.264C61.26 63.2826 61.3013 63.3053 61.3426 63.321ZM61.0166 63.1615C60.9739 63.1387 60.9283 63.1174 60.8856 63.0946C60.9283 63.1174 60.9739 63.1387 61.0166 63.1615ZM60.8827 63.0946C60.6749 62.9921 60.4656 62.8825 60.2521 62.7743C60.4656 62.8825 60.6749 62.9921 60.8827 63.0946ZM60.1695 62.7302C60.1496 62.7174 60.1296 62.7117 60.1111 62.7003C60.1296 62.7117 60.1496 62.7174 60.1695 62.7302ZM59.8406 62.5593C59.8079 62.5408 59.7751 62.5252 59.7424 62.5081C59.7751 62.5252 59.8079 62.5408 59.8406 62.5593ZM37.5063 61.6767C38.0003 61.597 43.3888 60.7441 49.0621 60.7441C43.3888 60.7441 38.0003 61.597 37.5063 61.6767ZM49.1205 60.7441C49.1133 60.7441 49.1048 60.7441 49.0977 60.7441C49.1048 60.7441 49.1133 60.7441 49.1205 60.7441Z" fill="#DCD0C9"/>
<path d="M96.9497 91.7999C96.9156 91.0824 96.7718 90.3648 96.5241 89.6644C95.7738 87.5545 94.3202 85.7508 92.7442 84.1919C92.0324 83.4872 91.2736 82.8266 90.4977 82.1944C87.9964 79.2318 84.1909 77.2216 80.4509 75.6627C80.189 75.5217 79.9285 75.378 79.6665 75.2356C79.5854 75.19 79.5085 75.1744 79.433 75.1744C79.3846 75.1744 79.3377 75.1801 79.2921 75.1972C78.1347 74.7359 76.9971 74.316 75.9209 73.9216C69.2781 71.4757 63.3357 63.0818 50.4032 62.3828C37.4692 61.6823 37.4692 61.6823 37.4692 61.6823C37.4692 61.6823 37.4821 61.6824 37.5063 61.6767C38.0003 61.597 43.3888 60.7441 49.0621 60.7441C49.0735 60.7441 49.0863 60.7441 49.0977 60.7441C49.1048 60.7441 49.1133 60.7441 49.1205 60.7441C53.0398 60.7441 57.0887 61.1528 59.7424 62.5081C59.7751 62.5252 59.8079 62.5408 59.8406 62.5593C59.9303 62.6049 60.0214 62.6561 60.1111 62.7003C60.1296 62.7117 60.1496 62.7174 60.1695 62.7302C60.1965 62.7473 60.2236 62.7587 60.2521 62.7743C60.4656 62.8825 60.6749 62.9921 60.8827 63.0946C60.8842 63.0946 60.8842 63.0946 60.8856 63.0946C60.9283 63.1174 60.9739 63.1387 61.0166 63.1615C61.0849 63.1971 61.1518 63.2299 61.2202 63.264C61.26 63.2826 61.3013 63.3053 61.3426 63.321C61.4138 63.3566 61.4864 63.3893 61.5561 63.4235C62.352 63.8093 63.1008 64.1468 63.7927 64.4301C63.7998 64.4358 63.8012 64.4357 63.8055 64.4357C63.9066 64.477 64.0048 64.5183 64.1031 64.5568C64.4974 64.7162 64.8718 64.8572 65.2292 64.9896C65.2562 65.001 65.2847 65.0038 65.3146 65.0166C65.3331 65.0223 65.3502 65.0279 65.3687 65.0336C65.4014 65.045 65.4356 65.0564 65.4669 65.0693C65.4726 65.0749 65.4769 65.075 65.4826 65.075C65.4997 65.0793 65.5196 65.092 65.5367 65.0963C67.1839 66.6281 68.5463 68.4377 70.239 69.9282C72.2165 71.6623 74.6823 72.5677 77.1182 73.466C81.876 75.2299 86.8759 76.6636 91.0359 79.6789C92.9251 81.047 94.5722 82.7127 95.6528 84.7955C96.6095 86.6335 97.0878 88.6579 97.2757 90.7122C97.3071 91.0596 97.3327 91.4084 97.3498 91.7544C97.2145 91.7714 97.0821 91.7828 96.9497 91.7999Z" fill="#704721"/>
<path d="M97.3492 91.7543C97.3321 91.4083 97.3065 91.0595 97.2752 90.7122C97.0873 88.6578 96.6089 86.6334 95.6522 84.7954C94.5717 82.7126 92.9245 81.0469 91.0353 79.6788C86.8754 76.6635 81.8755 75.2298 77.1176 73.4659C74.6817 72.5676 72.2159 71.6622 70.2385 69.9282C68.5457 68.4376 67.1833 66.6281 65.5361 65.0962C66.8459 65.539 67.861 65.7568 68.5215 65.7568C69.3857 65.7568 69.6306 65.3809 69.1024 64.6591C67.7044 62.7358 63.6839 54.8259 63.5103 50.125C65.4123 55.3327 67.7357 60.5903 71.4941 64.6919C72.0067 65.2571 72.4466 66.4046 72.4423 67.3784C72.4423 67.7314 72.3825 68.0546 72.2487 68.3279C72.2487 68.3279 72.2159 68.3906 72.2159 68.5159C72.2174 69.0455 72.794 70.6499 78.715 73.0474C85.0631 75.6185 96.6417 77.1432 98.9765 91.6418C98.975 91.6418 98.975 91.6418 98.9722 91.6418C98.3885 91.6574 97.8503 91.6973 97.3492 91.7543Z" fill="#5B3312"/>
<path d="M138.322 120.929C138.321 120.929 138.321 120.929 138.321 120.929L138.312 120.904C137.369 118.477 133.826 111.688 133.297 102.293C133.826 111.688 137.369 118.477 138.312 120.904C138.317 120.91 138.318 120.922 138.322 120.929Z" fill="#DCD0C9"/>
<path d="M140.765 122.744C139.925 122.179 139.114 121.572 138.322 120.929C138.318 120.922 138.317 120.91 138.312 120.904C137.369 118.477 133.826 111.688 133.297 102.293C133.3 102.293 133.301 102.293 133.303 102.293C133.369 103.449 133.482 104.569 133.627 105.644C134.379 107.813 135.586 109.843 136.978 111.646C137.861 112.787 138.809 113.917 139.43 115.227C139.999 116.427 140.288 117.765 140.479 119.072C140.654 120.292 140.743 121.514 140.765 122.744Z" fill="#704721"/>
<path d="M141.573 123.273C141.301 123.103 141.032 122.926 140.766 122.744C140.743 121.514 140.655 120.292 140.479 119.072C140.289 117.765 140 116.427 139.43 115.227C138.809 113.917 137.861 112.787 136.979 111.646C135.586 109.843 134.379 107.813 133.627 105.644C133.482 104.569 133.37 103.449 133.303 102.293C133.832 102.293 134.446 102.417 135.168 102.685C135.586 102.84 135.976 102.964 136.338 103.066C137.363 105.844 138.634 109.297 138.855 111.642C138.855 111.642 139.725 112.246 140.758 112.246C141.391 112.246 142.084 112.022 142.682 111.295C143.293 110.543 144.538 109.457 145.894 108.086C145.928 108.109 145.965 108.131 146.002 108.153C146.724 108.574 147.424 108.779 148.086 108.889C147.314 109.969 146.345 111.078 145.129 112.166C145.129 112.166 141.457 115.658 141.457 120.028C141.457 120.04 141.457 120.052 141.457 120.063C141.457 120.063 141.457 120.069 141.457 120.074C141.457 120.08 141.457 120.086 141.457 120.097V120.103C141.457 120.113 141.457 120.124 141.457 120.137C141.457 120.137 141.457 120.143 141.457 120.148C141.457 120.154 141.457 120.166 141.457 120.171C141.457 120.177 141.457 120.177 141.46 120.183C141.46 120.187 141.46 120.195 141.46 120.204C141.46 120.228 141.46 120.245 141.46 120.268C141.46 120.274 141.46 120.274 141.46 120.281C141.46 120.284 141.46 120.292 141.46 120.301C141.46 120.301 141.46 120.301 141.46 120.308C141.472 121.053 141.519 122.072 141.573 123.273Z" fill="#5B3312"/>
<path d="M138.769 133.223C138.767 133.223 138.767 133.223 138.767 133.223C138.801 132.068 138.828 130.884 138.844 129.736C138.831 130.892 138.804 132.068 138.769 133.223Z" fill="#DCD0C9"/>
<path d="M139.857 133.838C139.75 133.792 139.643 133.741 139.536 133.69C139.266 133.559 139.01 133.399 138.769 133.223C138.805 132.068 138.832 130.892 138.844 129.736C139.297 130.071 139.758 130.395 140.23 130.707C140.167 131.193 140.102 131.675 140.042 132.161C139.972 132.716 139.914 133.281 139.857 133.838Z" fill="#704721"/>
<path d="M141.605 134.356C141.074 134.265 140.479 134.111 139.855 133.838C139.912 133.281 139.971 132.716 140.041 132.161C140.1 131.675 140.166 131.192 140.229 130.707C140.721 131.033 141.224 131.339 141.738 131.637C141.716 132.558 141.673 133.468 141.605 134.356Z" fill="#5B3312"/>
<path d="M149.878 140.353C153.309 135.266 158.299 127.457 161.79 120.232C162.187 120.464 162.623 120.756 163.103 121.108H163.106C160.888 125.889 157.625 132.101 154.011 137.517H154.01L149.878 140.353Z" fill="#5B3312"/>
<path d="M139.536 206.044C139.536 206.044 131.132 205.288 133.232 204.438C135.331 203.597 132.895 200.105 132.895 200.105H125.903L123.2 203.073H111.923C109.824 202.898 106.762 200.717 106.329 203.073C105.896 205.431 107.726 205.351 106.329 207.444C103.398 211.847 98.3339 215.348 93.0877 216.286C83.3883 218.023 87.6223 211.883 81.8622 209.19C78.6945 207.711 77.3306 209.511 74.5203 209.891L66.8312 210.937L61.5892 211.29C61.5892 211.29 61.5892 213.736 58.4415 209.891C55.2981 206.044 65.0829 207.443 55.2981 206.044C45.5104 204.65 40.2657 202.898 40.2657 202.898L35.0237 200.105L33.2741 196.256V192.417C33.2741 192.417 32.5765 190.664 35.0237 187.87C37.4696 185.071 37.4696 185.071 37.4696 185.071L39.9169 182.976L37.4696 179.483H33.183C33.183 179.483 25.5863 174.238 23.1376 172.837C18.5662 170.225 13.8169 165.924 13.5436 160.296C13.1592 152.331 20.8939 151.551 26.6341 149.77C26.6341 149.77 34.3233 147.476 35.3725 147.404C36.4218 147.324 32.5765 145.923 40.6159 145.923C48.6553 145.923 45.8592 151.169 48.6553 145.923C51.4514 140.682 51.4514 140.682 51.4514 140.682C51.4514 140.682 50.4035 137.771 49.0041 136.255C47.606 134.737 45.1602 136.49 45.5104 133.342C45.8592 130.201 49.6889 130.947 46.9255 129.883C45.0463 129.155 50.8548 122.037 51.4329 121.304C54.3001 117.626 56.8371 115.037 61.7131 114.469C67.2981 113.814 73.0198 114.713 78.2048 116.87C83.6004 119.118 88.7769 124.972 95.0082 122.878C99.4116 121.406 103.656 115.437 108.785 117.656C112.085 119.078 112.652 123.657 116.115 125.058C116.117 125.058 126.255 129.148 129.748 128.097C133.243 127.049 136.042 129.877 136.042 129.877C136.042 129.877 137.335 132.607 139.536 133.689C141.736 134.77 143.732 134.39 143.732 134.39L146.002 136.255L149.877 140.359L154.01 137.518L156.574 142.431L160.858 145.923C160.858 145.923 162.955 146.976 166.102 140.682C169.248 134.39 170.995 130.542 169.948 128.45C168.899 126.349 167.85 121.809 172.741 121.109C174.77 120.818 175.479 121.548 175.909 122.28C176.518 123.311 176.578 124.346 179.034 122.504C183.23 119.356 183.577 118.308 186.728 118.308C188.78 118.308 194.256 116.381 194.368 120.195C194.39 120.921 194.106 121.763 194.595 122.304C194.885 122.622 195.355 122.702 195.788 122.754C198.518 123.05 202.143 123.651 203.846 121.116C205.537 118.611 211.402 124.154 213.055 124.945C215.954 126.338 218.22 125.899 220.636 125.461C222.044 125.206 223.505 124.95 225.175 125.058C229.02 125.303 229.718 125.649 232.165 127.403C234.611 129.148 235.66 131.943 235.66 131.943C236.009 136.137 242.652 137.183 238.806 142.431C234.963 147.67 236.009 145.032 231.465 147.404C226.922 149.77 220.631 149.069 220.631 149.069L214.688 147.404C214.688 147.404 211.192 148.37 211.542 150.469C211.892 152.563 212.941 155.01 209.445 156.411C207.997 156.99 206.61 156.848 205.434 156.711C203.764 156.512 202.513 156.314 202.103 158.156C201.405 161.304 203.853 161.304 201.756 163.75C199.656 166.197 195.463 167.244 198.958 169.69C200.538 170.799 201.69 170.551 202.641 170.293C203.792 169.993 204.643 169.684 205.601 171.791C207.348 175.636 206.647 178.431 206.647 178.431C206.647 178.431 203.152 180.878 204.552 183.324C205.95 185.771 208.744 188.684 205.95 189.504C203.152 190.317 202.453 190.664 199.307 191.017C196.162 191.363 193.016 191.017 191.265 194.515C190.032 197.007 191.853 200.217 187.774 199.057C182.879 197.657 182.18 201.503 176.937 203.25C171.694 204.998 170.297 204.65 167.85 203.95C165.401 203.249 165.052 202.55 162.606 204.998C160.161 207.443 156.574 207.096 156.574 207.096C156.574 207.096 151.812 203.825 151.093 204.935C150.372 206.044 142.682 214.085 139.536 206.044Z" fill="#68622A"/>
<path d="M49.6402 137.063H49.6388C49.4366 136.767 49.2245 136.494 49.0038 136.255C47.6998 134.838 45.4803 136.267 45.4746 133.907C45.4803 136.267 47.6998 134.838 49.0038 136.255C49.2274 136.494 49.4381 136.767 49.6402 137.063ZM128.651 128.262C129.029 128.244 129.374 128.2 129.673 128.12C129.374 128.2 129.031 128.244 128.651 128.262ZM129.697 128.111C129.703 128.111 129.705 128.108 129.711 128.108C129.705 128.108 129.703 128.111 129.697 128.111Z" fill="#C4CA99"/>
<path d="M104.033 146.174C102.256 146.174 100.508 145.456 98.8661 144.847C97.9493 144.512 97.0353 144.165 96.1014 143.881C95.2984 143.631 94.3873 143.328 93.5331 143.328C93.5032 143.328 93.469 143.328 93.4363 143.335C91.6268 143.379 90.1163 144.546 88.351 144.767C88.1573 144.791 87.931 144.82 87.7032 144.82C87.3416 144.82 86.98 144.751 86.7593 144.491C86.4319 144.096 86.2468 143.563 86.0218 143.107C85.5022 142.076 84.7989 141.127 83.5689 141.007C83.334 140.983 83.1019 140.973 82.8713 140.973C81.8762 140.973 80.9351 141.195 80.0283 141.678C79.0559 142.202 78.1989 142.947 77.1539 143.328C76.6229 143.523 76.0719 143.614 75.5138 143.614C75.4199 143.614 75.3273 143.614 75.2319 143.608C74.6169 143.573 73.6118 143.534 73.1932 143.004C72.48 142.11 72.6907 140.751 71.9618 139.835C71.4407 139.175 70.5737 138.953 69.7081 138.953C69.1814 138.953 68.6532 139.038 68.2062 139.154C66.7398 139.521 65.4357 140.342 63.9879 140.768C63.3899 140.939 62.7906 141.03 62.1798 141.03C62.0332 141.03 61.8837 141.024 61.7342 141.013C61.542 140.728 61.3811 140.29 61.2302 139.978C60.9256 139.363 60.5996 138.753 60.1838 138.201C59.509 137.314 58.6463 136.762 57.6327 136.762C57.3223 136.762 56.9963 136.814 56.6589 136.923C55.8972 137.177 55.1825 137.622 54.3924 137.777C54.2927 137.794 54.1959 137.798 54.1034 137.798C53.8258 137.798 53.5638 137.73 53.2763 137.688C52.7524 137.606 52.2284 137.536 51.706 137.462C50.9984 137.36 50.3094 137.229 49.6402 137.064C49.4381 136.767 49.2274 136.494 49.0038 136.255C47.6998 134.838 45.4803 136.268 45.4746 133.907C45.4746 133.735 45.486 133.554 45.5102 133.342C45.6768 131.846 46.6306 131.231 47.2855 130.883C48.1582 131.071 48.991 131.413 49.7043 131.943C50.2595 132.351 50.94 132.519 51.6761 132.519C54.6259 132.519 58.4413 129.877 58.4413 129.877C58.6292 133.228 61.2744 134.293 64.1374 134.293C66.6658 134.293 69.3636 133.463 70.6762 132.643C72.4359 131.545 74.6069 130.167 76.0662 130.167C76.9275 130.167 77.5383 130.646 77.6678 131.943C78.0166 135.438 80.4639 135.438 86.0546 136.255C86.4276 136.306 86.802 136.329 87.1779 136.329C89.265 136.329 91.399 135.567 93.2967 134.806C95.1973 134.037 96.863 133.275 98.0205 133.275C98.6355 133.275 99.1081 133.49 99.3943 134.043C100.371 135.926 103.655 137.65 106.333 137.65C107.632 137.65 108.79 137.242 109.475 136.255C110.443 134.855 111.779 134.726 113.75 134.726C113.985 134.726 114.23 134.726 114.482 134.726C114.733 134.732 114.99 134.732 115.26 134.732C117.396 134.732 120.141 134.618 123.709 133.467C128.034 132.075 128.918 130.006 128.651 128.262C129.031 128.244 129.374 128.2 129.673 128.12C129.681 128.12 129.688 128.112 129.697 128.112C129.703 128.112 129.705 128.109 129.711 128.109C129.724 128.109 129.737 128.103 129.748 128.097C130.289 127.938 130.813 127.868 131.311 127.868C131.707 127.868 132.087 127.909 132.45 127.982L132.379 128.124C131.263 130.429 130.477 133.114 128.461 134.823C125.544 137.291 121.749 138.003 118.168 138.98C116.534 139.43 114.996 139.942 113.592 140.91C112.046 141.969 110.623 143.198 109.068 144.245C107.613 145.223 105.959 146.138 104.161 146.174C104.118 146.174 104.077 146.174 104.033 146.174Z" fill="#463A2E"/>
<path d="M170.222 129.415C170.222 129.415 170.221 129.415 170.218 129.41C170.175 129.057 170.09 128.731 169.948 128.449C169.474 127.504 169.001 126.059 169.072 124.692C169.001 126.059 169.474 127.504 169.948 128.449C170.09 128.74 170.181 129.057 170.222 129.415ZM218.05 125.848C218.806 125.784 219.549 125.655 220.304 125.518C219.549 125.655 218.806 125.784 218.05 125.848ZM220.636 125.46C220.715 125.446 220.795 125.433 220.873 125.416C220.795 125.433 220.715 125.446 220.636 125.46ZM220.983 125.399C222.039 125.211 223.131 125.034 224.324 125.027C223.131 125.034 222.039 125.211 220.983 125.399ZM225.432 125.074C225.428 125.074 225.426 125.074 225.422 125.074C225.426 125.074 225.428 125.074 225.432 125.074ZM225.392 125.068C225.321 125.063 225.247 125.063 225.174 125.057C225.247 125.063 225.321 125.063 225.392 125.068ZM225.174 125.057C225.132 125.051 225.089 125.051 225.046 125.046C225.089 125.051 225.132 125.051 225.174 125.057ZM224.396 125.027C224.394 125.027 224.39 125.027 224.386 125.027C224.39 125.027 224.394 125.027 224.396 125.027Z" fill="#C4CA99"/>
<path d="M197.682 134.191C196.317 134.191 194.937 133.879 193.713 133.361C190.092 131.819 187.454 128.403 183.646 127.289C183.094 127.124 182.546 127.055 182.002 127.055C180.123 127.055 178.303 127.891 176.558 128.614C175.338 129.115 174.068 129.621 172.744 129.747C172.566 129.759 172.389 129.769 172.214 129.769C171.518 129.769 170.856 129.645 170.222 129.416C170.181 129.058 170.09 128.741 169.948 128.45C169.474 127.505 169.001 126.06 169.072 124.693C169.972 124.934 171.01 125.063 172.301 125.063C172.445 125.063 172.591 125.058 172.741 125.058C177.634 124.95 181.481 125.303 183.576 123.554C184.563 122.73 185.783 122.109 187.161 122.109C188.711 122.109 190.465 122.895 192.318 125.063C194.882 128.062 197.259 131.333 199.585 131.333C200.43 131.333 201.267 130.906 202.102 129.877C204.172 127.329 205.941 126.452 207.603 126.452C208.468 126.452 209.306 126.691 210.142 127.05C210.683 127.283 211.224 127.374 211.771 127.374C213.687 127.374 215.687 126.229 218.05 125.849C218.806 125.785 219.549 125.656 220.304 125.519C220.415 125.502 220.525 125.479 220.636 125.461C220.715 125.446 220.795 125.434 220.873 125.417C220.909 125.411 220.946 125.405 220.983 125.4C222.039 125.212 223.131 125.035 224.324 125.028C224.346 125.028 224.364 125.028 224.386 125.028C224.39 125.028 224.394 125.028 224.396 125.028C224.609 125.028 224.827 125.035 225.046 125.046C225.089 125.052 225.132 125.052 225.174 125.058C225.247 125.064 225.321 125.064 225.392 125.069C225.402 125.069 225.412 125.069 225.422 125.075C225.426 125.075 225.428 125.075 225.432 125.075C228.934 125.308 229.729 125.673 231.944 127.243C229.609 127.897 227.206 128.227 224.8 128.485C221.962 128.785 219.138 129.201 216.303 129.508C213.318 129.827 210.259 129.769 207.306 130.36C204.716 130.879 202.814 132.812 200.398 133.719C199.536 134.043 198.61 134.191 197.682 134.191Z" fill="#463A2E"/>
<path d="M203.001 186.277C200.868 186.436 198.983 185.487 197.578 183.921C196.387 182.595 195.557 180.776 194.03 179.783C192.484 178.778 190.204 179.101 188.861 180.32C186.402 182.55 186.388 186.483 183.574 188.472C182.05 189.548 179.895 189.799 178.111 189.328C176.759 188.969 175.983 188.081 175.084 187.085C174.055 185.954 172.804 186.846 171.743 187.569C169.724 188.946 168.286 190.665 166.732 192.514C165.516 193.953 164.146 195.375 162.313 195.989C160.113 196.731 157.647 196.063 155.639 195.062C153.767 194.13 152.582 192.389 150.869 191.255C149.09 190.072 146.826 189.77 144.748 189.463C140.626 188.861 136.332 188.548 132.476 186.858C129.18 185.407 126.12 182.249 127.419 178.414C127.714 177.543 128.125 176.724 128.478 175.883C128.777 175.176 129.186 174.271 128.981 173.485C128.713 172.473 127.435 172.114 126.55 171.905C125.491 171.649 124.29 171.649 123.307 172.171C121.677 173.047 121.089 175.044 120.758 176.735C120.456 178.277 119.997 180.216 120.402 181.758C120.805 183.303 121.803 184.968 121.33 186.601C121.079 187.46 120.389 188.081 119.61 188.472C118.725 188.922 117.52 189.373 116.516 189.168C115.729 189.002 115.141 188.469 114.681 187.836C114.432 187.495 113.989 186.401 113.646 186.271C113.518 186.221 112.94 186.419 112.742 186.47C112.325 186.574 111.908 186.681 111.495 186.795C110.981 186.93 110.326 187.098 109.886 187.228C108.218 187.722 106.725 188.724 105 189.054C103.516 189.338 102.049 189.497 100.534 189.36C99.5194 189.269 98.5328 189.081 97.5191 188.993C96.477 188.902 95.4377 188.781 94.4042 188.634C93.6824 188.525 92.6075 188.491 91.9783 188.069C91.2479 187.575 91.3732 186.408 91.4586 185.669C91.5127 185.206 91.6907 184.627 91.5996 184.167C91.5013 183.666 90.8991 183.37 90.5062 183.079C89.4997 182.329 87.8069 181.043 86.5171 181.902C85.4693 182.595 84.8842 184.023 84.225 185.048C83.2455 186.584 82.0838 187.978 80.5648 189.002C79.6593 189.611 78.6215 190.118 77.568 190.414C76.9729 190.579 76.5173 190.477 76.1002 190.017C75.7044 189.573 75.4866 188.916 74.8588 188.752C73.4095 188.372 72.6179 189.725 72.5083 190.944C72.4086 192.077 72.1709 192.707 71.2426 193.389C70.3116 194.08 69.389 194.847 68.3697 195.404C67.0898 196.116 66.0705 195.666 64.8134 195.142C62.2793 194.08 59.6028 193.3 56.9961 192.428C55.5525 191.95 54.0249 191.382 52.5101 191.2C51.4993 191.079 50.4857 191.211 49.4735 191.194C47.617 191.159 46.5037 190.276 45.9115 188.758C44.1831 190.814 41.1906 191.5 38.5995 190.841C36.8584 190.39 35.57 189.333 34.9635 187.945C32.5931 190.693 33.2736 192.417 33.2736 192.417V196.257L35.0233 200.105L40.2667 202.898C40.2667 202.898 45.51 204.65 55.2977 206.044C65.0825 207.444 55.2977 206.044 58.4411 209.891C61.5888 213.736 61.5888 211.29 61.5888 211.29L66.8322 210.937L74.5214 209.891C77.3302 209.511 78.6941 207.711 81.8617 209.191C87.6219 211.883 83.3879 218.023 93.0873 216.286C98.3335 215.348 103.397 211.847 106.329 207.444C107.727 205.351 105.896 205.431 106.329 203.073C106.762 200.717 109.824 202.898 111.922 203.073H123.199L125.903 200.105H132.894C132.894 200.105 135.33 203.597 133.232 204.438C131.132 205.288 139.536 206.044 139.536 206.044C142.682 214.085 150.371 206.044 151.093 204.935C151.812 203.825 156.574 207.096 156.574 207.096C156.574 207.096 160.16 207.444 162.605 204.998C165.052 202.551 165.401 203.25 167.849 203.95C170.297 204.651 171.695 204.998 176.937 203.25C182.18 201.503 182.879 197.657 187.772 199.057C191.852 200.223 190.031 197.007 191.264 194.516C193.015 191.018 196.162 191.364 199.307 191.018C202.454 190.665 203.152 190.317 205.949 189.504C207.91 188.928 207.118 187.33 205.992 185.578C205.034 185.942 204.043 186.204 203.001 186.277Z" fill="#463A2E"/>
<path d="M15.7458 157.571C16.9046 158.897 18.6087 159.527 20.2915 159.88C23.9076 160.631 27.6718 160.289 31.3391 160.376C32.908 160.416 34.5352 160.484 36.05 160.928C38.493 161.649 40.0291 163.472 41.8187 165.161C42.8665 166.153 43.9114 166.824 45.281 167.259C46.2021 167.557 47.4293 168.074 48.4244 167.836C49.048 167.688 49.5748 167.171 50.12 166.851C51.2077 166.214 52.4235 165.816 53.6535 165.565C56.3044 165.02 59.0307 164.876 61.6502 164.181C64.3054 163.477 66.485 162.032 68.145 159.88C66.9263 159.345 65.8358 158.584 64.7723 157.775C63.6078 156.888 62.4091 155.823 60.9897 155.376C58.6008 154.623 56.0168 155.426 53.645 154.623C52.5004 154.237 51.3045 153.411 50.7108 152.336C50.1585 151.329 50.2866 150.14 50.4802 149.056C50.7037 147.829 51.1066 146.538 50.8319 145.279C50.6795 144.588 50.3435 144.052 49.8965 143.597C49.5605 144.229 49.1534 144.99 48.6551 145.923C45.859 151.169 48.6551 145.923 40.6157 145.923C32.5763 145.923 36.4216 147.324 35.3723 147.404C34.3231 147.476 26.6339 149.77 26.6339 149.77C22.3487 151.101 16.953 151.875 14.6538 155.494C14.8674 156.25 15.2133 156.956 15.7458 157.571Z" fill="#463A2E"/>
<path d="M189.26 163.413C187.758 163.163 186.121 163.016 184.551 163.146C182.832 163.738 181.513 165.65 180.525 167.002C179.105 168.956 177.8 171.118 175.962 172.717C176.634 173.252 177.408 173.719 178.274 173.752C178.994 173.782 179.658 173.479 180.274 173.134C181.694 172.343 182.981 171.454 184.645 171.272C185.863 171.134 187.131 171.449 188.326 171.648C189.685 171.874 191.125 172.119 192.498 171.887C193.941 171.642 194.919 170.754 195.369 169.366C195.7 168.341 195.721 167.256 195.141 166.315C193.974 164.42 191.298 163.761 189.26 163.413Z" fill="#463A2E"/>
<path d="M151.516 142.89C150.05 143.967 148.378 144.711 146.787 145.57C145.108 146.482 143.514 147.442 142.483 149.086C141.418 150.783 140.663 152.672 139.369 154.226C138.162 155.676 136.414 156.626 134.499 156.335C133.603 156.206 132.759 155.88 131.894 155.631C131.139 155.414 130.278 155.191 129.522 155.523C128.639 155.897 128.067 156.956 127.766 157.82C127.601 158.299 127.507 158.851 127.821 159.29C128.511 160.239 130.229 160.353 131.283 160.463C132.771 160.614 134.277 160.621 135.756 160.854C137.649 161.155 139.438 161.889 141.136 162.755C143.094 163.744 145.018 164.768 147.222 165.1C149.38 165.428 151.623 165.241 153.278 163.693C154.59 162.47 155.484 160.871 156.801 159.648C157.586 158.918 158.492 158.294 159.49 157.894C160.686 157.423 161.977 157.321 163.248 157.274C164.628 157.23 166.016 157.224 167.357 156.854C168.482 156.541 169.511 155.967 170.399 155.209C171.635 154.167 172.609 152.855 173.333 151.41C174.645 148.801 175.273 145.509 174.307 142.687C173.892 141.474 173.11 140.392 171.985 139.748C170.603 138.958 168.933 138.924 167.4 139.18C167.198 139.215 167.027 139.158 166.916 139.044C166.657 139.568 166.385 140.113 166.101 140.682C162.956 146.976 160.858 145.923 160.858 145.923L156.574 142.431L154.749 138.936C154.047 140.54 152.935 141.86 151.516 142.89Z" fill="#463A2E"/>
<path d="M58.4412 129.877C58.4412 129.877 52.4832 134.003 49.7042 131.942C46.9252 129.882 42.3638 130.651 40.6155 132.519C38.8673 134.39 35.3722 133.245 33.6254 131.198C31.8771 129.148 30.1303 127.402 25.586 127.75C21.0402 128.097 15.7983 125.058 15.7983 125.058L13.529 118.308V114.258L10.2062 112.353C10.2062 112.353 8.80671 115.8 6.01065 114.258C3.21458 112.716 2.86578 114.429 1.81655 112.353C0.768732 110.27 -0.280523 110.622 0.0682737 107.823C0.418494 105.028 4.6126 102.683 4.6126 102.683L9.50714 100.835L13.529 102.683L20.3426 100.835C20.3426 100.835 20.6914 97.3361 19.991 96.2897C19.2934 95.2419 19.2934 93.8425 22.4383 93.142C25.586 92.4444 26.5654 92.4444 29.2206 93.142C31.8771 93.8425 35.0234 92.0971 35.721 88.9493C36.4214 85.8016 39.9165 86.1548 40.2653 82.6554C40.6155 79.1617 40.9658 76.0952 43.7618 76.4013C44.7854 76.5166 45.4845 76.1749 46.145 75.8389C47.284 75.2481 48.319 74.6615 50.7534 76.4013C54.5973 79.1617 57.0446 77.0632 58.4412 79.8607C59.8406 82.6554 63.7386 87.2011 68.4324 84.7539C73.1234 82.308 73.8224 80.5611 78.3653 84.0562C82.9096 87.5484 82.9096 89.3024 84.3077 92.4445C85.7057 95.5893 91.2992 94.5415 91.2992 94.5415C91.2992 94.5415 92.3172 91.8792 98.9728 91.6415C105.631 91.3966 107.378 93.4951 107.727 96.2897C108.077 99.0887 110.873 99.0887 112.271 99.782C113.669 100.482 115.419 102.433 116.115 102.683C116.317 102.753 116.548 102.662 116.806 102.577C117.448 102.353 118.266 102.132 119.263 104.358C120.661 107.475 118.565 108.176 119.263 109.921C119.96 111.668 121.864 110.622 123.709 110.622C125.554 110.622 130.098 112.716 128.699 116.217C127.301 119.709 125.877 124.46 126.765 125.058C127.652 125.648 131.999 130.795 123.709 133.467C119.691 134.758 116.719 134.743 114.482 134.726C112.102 134.707 110.557 134.69 109.475 136.255C107.378 139.283 100.846 136.837 99.3942 134.042C98.5713 132.461 96.208 133.634 93.2966 134.805C91.0544 135.704 88.489 136.608 86.0545 136.255C80.4638 135.438 78.0165 135.438 77.6677 131.942C77.3189 128.45 73.4722 130.895 70.6761 132.643C67.8801 134.39 58.7914 136.193 58.4412 129.877Z" fill="#7B7223"/>
<path d="M110.525 112.353C110.525 112.353 123.081 116.511 126.766 111.645C130.447 106.775 129.748 100.687 135.168 102.683C138.362 103.862 139.792 103.442 141.005 103.02C141.848 102.73 142.584 102.432 143.732 102.683C146.526 103.282 142.778 106.245 146.002 108.151C149.227 110.053 152.04 107.434 152.953 112.353C153.867 117.263 153.343 118.661 156.052 119.008C158.761 119.355 159.758 118.661 163.103 121.108C166.45 123.554 167.85 125.16 172.742 125.057C177.635 124.949 181.481 125.302 183.577 123.554C185.676 121.808 188.822 120.971 192.318 125.063C195.812 129.147 198.958 133.746 202.103 129.876C205.249 126.001 207.697 126.001 210.143 127.049C212.59 128.097 215.043 126.316 218.111 125.836C221.179 125.366 226.922 120.409 223.076 118.308C219.233 116.216 217.136 117.223 215.736 112.353C214.339 107.475 216.785 109.962 211.542 106.446C206.299 102.929 211.192 102.582 206.999 100.482C202.804 98.3892 203.152 99.0882 200.705 94.1951C198.261 89.302 196.512 89.3021 199.307 85.4539C202.103 81.6086 200.007 83.008 200.356 79.1613C200.705 75.3145 202.103 79.019 204.2 75.2477C206.299 71.475 208.745 70.7759 205.601 67.6282C202.453 64.4819 202.453 63.7815 198.261 62.382C194.065 60.9868 193.016 61.3342 194.763 56.7941C196.512 52.2484 196.861 48.4003 191.967 47.0022C187.074 45.6085 179.384 43.8602 174.84 47.0022C170.297 50.1485 167.151 54.6501 164.704 50.1243C162.256 45.6085 152.469 46.2619 146.002 50.1243C139.536 53.9952 137.065 64.8279 133.232 62.0347C129.4 59.2343 126.255 61.6816 121.359 63.7815C116.467 65.88 114.719 72.7264 115.419 75.2477C116.115 77.7619 114.018 81.6085 110.525 81.6085C107.03 81.6085 102.135 84.4032 102.135 86.8476C102.135 89.302 105.98 95.2415 102.135 96.2893C98.2913 97.3357 101.418 110.702 110.525 112.353Z" fill="#7B7223"/>
<path d="M89.2406 94.713C89.2135 94.713 89.1865 94.7072 89.158 94.7072C89.1865 94.7072 89.2135 94.713 89.2406 94.713ZM89.252 94.713C90.3183 94.7073 91.1583 94.5663 91.2835 94.5493C91.1583 94.5663 90.3197 94.7073 89.252 94.713ZM84.3489 92.5333C84.3489 92.5276 84.3446 92.5276 84.3446 92.5233C84.3446 92.5276 84.3489 92.5276 84.3489 92.5333ZM84.3076 92.445C84.2962 92.4208 84.2849 92.3923 84.272 92.3653C84.2849 92.3923 84.2962 92.4208 84.3076 92.445ZM84.2663 92.3511C84.2578 92.3298 84.2478 92.307 84.2379 92.2842C84.2478 92.307 84.2578 92.3298 84.2663 92.3511ZM84.2279 92.2671C84.2208 92.25 84.2122 92.2329 84.2065 92.2158C84.2122 92.2329 84.2208 92.25 84.2279 92.2671Z" fill="#C4CA99"/>
<path d="M98.2236 104.283C98.0513 104.283 97.8791 104.278 97.7111 104.272C96.3643 104.215 94.9776 104.027 93.6693 103.71C92.6685 103.469 91.7531 102.855 90.896 102.309C89.8268 101.627 88.7975 100.885 87.7326 100.197C87.0593 99.7646 86.2976 99.2136 85.4904 99.0784C85.3209 99.0485 85.1515 99.0371 84.9778 99.0371C83.9813 99.0371 82.9192 99.4756 82.1106 99.9768C81.0671 100.62 80.1944 101.489 79.2562 102.269C78.3792 102.998 77.4097 103.624 76.2693 103.816C75.5006 103.947 74.7133 103.983 73.9345 103.983C73.7822 103.983 73.6299 103.983 73.4804 103.983C71.11 103.936 68.6157 103.613 66.419 102.679C64.9341 102.047 63.4649 100.96 63.6984 99.2991C64.5839 99.6408 65.525 99.8899 66.4603 99.8899C67.0412 99.8899 67.622 99.7931 68.1844 99.5553C69.5198 98.9973 70.4138 97.8128 71.1698 96.6369C71.9984 95.3442 72.7102 93.9618 73.7551 92.83C74.3203 92.2149 74.9895 91.664 75.7468 91.3109C76.6551 90.8838 77.693 90.8383 78.6782 90.7913C79.8413 90.74 81.0201 90.7073 82.1533 90.4055C82.5519 90.2973 82.9278 90.1492 83.2937 89.9727C83.5841 90.6674 83.8517 91.3963 84.2062 92.2149C84.2119 92.232 84.2205 92.2491 84.2276 92.2662C84.2304 92.2705 84.2333 92.2762 84.2376 92.2833C84.2475 92.3061 84.2575 92.3289 84.266 92.3502C84.2689 92.3559 84.2703 92.3644 84.2717 92.3644C84.2845 92.3914 84.2959 92.42 84.3073 92.4442C84.3187 92.4712 84.3315 92.4997 84.3443 92.5225C84.3443 92.5267 84.3486 92.5268 84.3486 92.5324C85.2071 94.3149 87.4507 94.695 89.1577 94.7063C89.1862 94.7063 89.2132 94.7121 89.2403 94.7121C89.2446 94.7121 89.2474 94.7121 89.2517 94.7121C90.3194 94.7064 91.158 94.5655 91.2832 94.5484C91.2932 94.5413 91.2989 94.5412 91.2989 94.5412C91.2989 94.5412 92.3168 91.8789 98.9724 91.6412C99.3198 91.6227 99.6529 91.617 99.9733 91.617C101.405 91.617 102.58 91.7438 103.544 91.9644C103.569 92.0612 103.592 92.1523 103.614 92.2491C103.033 92.5495 102.466 92.9025 102.025 93.3652C101.438 93.9788 101.216 95.031 101.478 95.8396C101.548 96.0546 101.647 96.2539 101.766 96.4375C100.268 97.2604 100.14 100.358 101.293 103.613C100.389 104.124 99.2984 104.283 98.2236 104.283Z" fill="#504D2D"/>
<path d="M101.293 103.613C100.14 100.359 100.268 97.2608 101.766 96.4379C102.131 97.0017 102.687 97.4345 103.207 97.8431C103.405 98.0025 103.811 98.2289 103.899 98.4909C103.892 98.4695 103.883 98.4581 103.877 98.4581C103.839 98.4581 103.823 98.7585 103.816 98.8055C103.756 99.1586 103.688 99.5045 103.604 99.8505C103.379 100.797 103.063 101.752 102.488 102.548C102.152 103.01 101.746 103.357 101.293 103.613ZM103.903 98.5023C103.902 98.4966 103.902 98.4909 103.899 98.4909C103.902 98.4909 103.902 98.4966 103.903 98.5023ZM103.614 92.2495C103.593 92.1527 103.57 92.0617 103.544 91.9648C103.688 92.0004 103.829 92.0332 103.963 92.073C103.848 92.13 103.731 92.1854 103.614 92.2495Z" fill="#34502D"/>
<path d="M3.61983 103.544C5.62576 103.8 7.52493 104.608 9.35148 105.443C11.4129 106.383 13.426 107.434 15.5316 108.282C17.5048 109.074 19.6075 109.74 21.7558 109.694C23.8429 109.649 25.6965 108.805 27.2212 107.431C25.8503 105.875 23.8699 105.216 21.9594 104.527C20.1499 103.886 18.4729 103.1 17.183 101.688L13.5285 102.683L9.50522 100.835L4.6121 102.683C4.6121 102.683 4.05973 102.992 3.33936 103.52C3.43332 103.527 3.52444 103.533 3.61983 103.544Z" fill="#504D2D"/>
<path d="M123.708 110.623C122.358 110.623 120.98 111.181 120.062 110.795C119.515 110.828 118.958 110.828 118.388 110.8C116.32 110.698 114.232 110.543 112.495 111.785C113.318 112.934 113.963 114.226 114.435 115.545C114.938 116.963 115.307 118.601 114.904 120.086C114.495 121.588 113.24 122.505 111.748 122.778C107.535 123.556 107.712 118.687 106.279 115.962C106.207 116.08 106.143 116.205 106.06 116.319C104.551 118.406 101.934 119.642 99.5966 120.53C96.8931 121.56 93.9106 122.264 91.0006 122.179C89.8617 122.146 88.6957 121.981 87.6607 121.48C86.6954 121.013 86.005 120.166 85.474 119.256C84.3065 117.253 83.9207 114.93 82.8558 112.888C82.7106 112.615 82.5085 112.29 82.3006 112.131C82.1554 112.017 82.0472 112.034 81.7952 112.21C81.388 112.508 81.0862 112.979 80.8229 113.399C80.3559 114.135 79.8064 114.988 79.5672 115.824C79.3323 116.651 79.5942 117.548 79.7679 118.356C79.9445 119.175 80.1068 120.014 79.9829 120.855C79.8462 121.787 79.3508 122.499 78.6888 123.136C78.1222 123.682 77.6011 124.267 76.9533 124.723C76.2728 125.207 75.3361 125.547 74.6371 124.912C74.0491 124.376 73.8626 123.494 73.6903 122.755C73.5095 121.992 73.4184 121.043 72.9514 120.392C72.4902 119.744 71.2544 120.041 70.5426 120.217C67.6796 120.922 65.1441 122.579 62.2384 123.181C60.782 123.483 59.2558 123.528 57.825 123.067C56.1836 122.543 54.8539 121.429 53.789 120.103C52.9262 120.132 51.9809 120.268 51.1438 120.075C50.3466 119.892 49.6205 119.324 48.9428 118.845C47.3426 120.428 45.2328 121.332 43.0702 120.196C41.3376 119.283 40.109 117.559 39.2036 115.812C38.8206 116.911 38.3024 118.003 37.4382 118.748C36.3847 119.66 35.0864 119.71 33.8364 119.313C33.6157 119.853 33.2185 120.371 32.8142 120.707C32.538 120.94 32.2134 121.104 31.8589 120.956C31.409 120.769 30.9777 120.461 30.542 120.24C29.7946 119.858 29.033 119.49 28.4123 118.913C27.8812 118.425 27.5168 117.81 27.2335 117.156C26.207 117.965 25.0197 118.571 24.0743 119.482C23.8067 119.739 23.3397 119.631 23.2387 119.26C22.85 117.815 21.8848 116.671 21.237 115.358C19.8731 116.706 18.132 117.65 16.2058 117.878C15.2833 117.986 14.3835 117.895 13.5293 117.645V118.309L15.7986 125.059C15.7986 125.059 21.0405 128.098 25.5863 127.751C30.1292 127.398 31.8774 129.149 33.6257 131.199C35.3725 133.246 38.8676 134.391 40.6159 132.52C42.3641 130.652 46.9255 129.884 49.7045 131.944C52.4835 134.004 58.4415 129.878 58.4415 129.878C58.7917 136.195 67.8804 134.391 70.6764 132.644C73.4725 130.896 77.3192 128.452 77.668 131.944C78.0168 135.439 80.4641 135.439 86.0548 136.256C91.6484 137.072 97.9395 131.243 99.3916 134.044C100.847 136.838 107.378 139.284 109.475 136.256C111.574 133.224 115.418 136.138 123.708 133.469C132.001 130.796 127.653 125.65 126.766 125.059C125.877 124.461 127.301 119.71 128.699 116.218C130.099 112.717 125.554 110.623 123.708 110.623Z" fill="#504D2D"/>
<path d="M223.076 118.308C219.232 116.217 217.135 117.224 215.736 112.346C214.336 107.476 216.785 109.963 211.542 106.446C206.298 102.93 211.191 102.583 206.999 100.483C205.131 99.5502 203.444 98.8327 202.138 97.2168C203.996 99.5146 200.82 101.986 200.655 104.176C200.306 108.797 202.897 106.94 204.376 110.527C205.629 113.558 203.269 116.563 200.535 117.621C196.807 119.067 190.863 117.285 187.96 114.761C186.61 113.586 185.499 112.148 184.072 111.066C178.242 106.651 175.062 116.59 169.679 112.954C165.735 110.292 167.642 105.429 161.86 104.927C158.455 104.626 156.201 106.731 154.165 102.463C151.96 97.8432 148.969 94.445 143.543 93.6605C138.065 92.8633 132.546 94.9518 127.802 97.8019C123.058 100.659 118.816 104.295 114.034 107.079C111.356 108.642 107.57 109.774 105.47 107.5C104.161 106.082 103.556 103.454 101.628 103.539C102.074 108.824 107.935 111.721 113.06 113.086C117.698 114.319 123.428 114.849 126.543 111.203C128.986 108.336 129.547 103.219 133.266 102.615C135.343 102.281 137.392 103.721 139.479 103.442C141.391 103.186 143.993 101.848 144.753 103.619C145.134 104.505 144.546 105.52 144.684 106.475C145.112 109.467 150.575 107.846 152.302 110.333C153.041 111.401 152.784 112.83 152.893 114.123C153.385 120.012 159.642 118.576 163.103 121.109C166.45 123.554 167.849 125.16 172.741 125.058C177.634 124.95 181.481 125.303 183.579 123.555C185.675 121.809 188.821 120.972 192.318 125.064C195.812 129.148 198.958 133.746 202.103 129.877C205.249 126.002 207.696 126.002 210.144 127.05C212.589 128.097 215.042 126.316 218.11 125.837C221.177 125.367 226.921 120.41 223.076 118.308Z" fill="#504D2D"/>
<path d="M194.762 56.7948C196.512 52.249 196.861 48.4009 191.966 47.0029C191.26 46.8035 190.493 46.5914 189.688 46.3936C189.405 46.8306 189.141 47.2705 188.904 47.6862C188.085 49.1241 187.396 50.6318 186.765 52.1565C186.113 53.7325 185.723 55.3597 185.245 56.9955C183.962 61.3462 179.281 62.3414 175.409 63.748C171.679 65.1004 166.344 68.3905 168.648 73.0914C169.18 74.1777 170.143 74.9735 171.047 75.7836C174.266 78.6608 176.582 86.5991 181.693 86.4226C184.967 86.3101 187.884 79.5078 191.078 81.2048C191.735 81.5579 192.17 82.1716 192.516 82.8151C192.805 83.3504 193.042 84.045 193.545 84.4266C193.979 84.754 194.652 84.7384 195.166 84.7896C195.776 84.8508 196.387 84.8807 196.997 84.8864C197.916 84.8978 198.835 84.8579 199.753 84.8238C201.86 81.7615 200.027 82.7808 200.356 79.1619C200.704 75.3152 202.103 79.0196 204.201 75.2483C206.298 71.4756 208.745 70.7765 205.6 67.6288C202.454 64.4825 202.454 63.7821 198.26 62.3826C194.065 60.9874 193.015 61.3348 194.762 56.7948Z" fill="#504D2D"/>
<path d="M103.773 94.6098C104.674 94.5301 105.523 94.7365 106.316 95.2191C107.237 95.7772 108.048 96.499 109.079 96.8692C110.527 97.3931 112.251 97.4045 113.771 97.2963C115.122 97.1995 116.462 96.8863 117.688 96.3111C120.175 95.1452 122.158 93.1478 124.188 91.3497C127.25 88.6405 131.634 86.0124 135.341 84.8692C144.652 82.0062 151.204 76.6006 151.194 66.41C151.189 61.0499 157.738 61.3702 160.752 58.2339C161.677 57.2715 162.153 56.0215 162.56 54.7744C162.954 53.5671 162.888 52.5108 162.594 51.2921C162.331 50.1888 162.05 49.084 162.234 47.9422C158.228 46.0473 151.093 47.0824 146.002 50.1247C139.535 53.9957 137.064 64.8283 133.231 62.0351C129.399 59.2348 126.254 61.682 121.358 63.7819C116.466 65.8804 114.718 72.7268 115.417 75.2481C116.116 77.7623 114.02 81.609 110.524 81.609C107.029 81.609 102.134 84.4036 102.134 86.8551C102.134 88.6575 104.223 92.3676 103.773 94.6098Z" fill="#504D2D"/>
<path d="M24.1859 56.2418C24.1859 56.2418 23.7204 59.6159 26.5164 62.029C29.3139 64.4407 30.2436 64.4407 32.11 67.0916C33.9736 69.7453 36.0706 70.4727 39.5671 69.5061C43.0608 68.5394 47.0228 67.913 49.5868 69.9161C52.1508 71.9178 51.4504 76.0151 54.9455 76.0151C58.4406 76.0151 60.7711 76.015 62.4026 74.086C64.0327 72.1583 66.07 69.5061 68.4318 69.5061C70.7922 69.5061 74.2887 69.5061 75.9203 67.8162C77.5504 66.132 83.376 66.6089 85.473 69.5061C87.5687 72.4018 87.1031 72.8787 90.3676 71.4337C93.6292 69.9901 95.7262 68.7829 95.4927 72.4018C95.2607 76.015 92.2297 73.8468 95.2607 76.0151C98.2902 78.189 102.056 78.4281 100.523 80.8398C98.9878 83.2529 98.7031 83.9534 100.877 85.9038C103.051 87.8571 101.54 87.2748 102.134 89.8815C102.729 92.4939 103.882 94.3475 106.213 94.1041C108.543 93.8649 110.407 93.4207 112.736 94.1269C115.067 94.8273 120.892 93.2214 121.126 91.3735C121.358 89.5227 123.456 84.9385 125.088 84.2153C126.719 83.4921 132.284 83.4921 133.231 82.7703C134.175 82.0471 134.875 79.97 135.574 77.8687C136.273 75.7773 136.039 76.6856 139.535 75.269C143.03 73.8468 145.245 73.1251 146.001 69.9902C146.76 66.8538 146.76 64.6799 147.458 63.474C148.158 62.2725 149.324 60.1013 153.517 59.6159C157.711 59.1375 160.043 56.7259 159.342 54.5534C158.643 52.3852 158.191 48.2822 159.466 45.8705C160.741 43.4631 165.634 41.2891 164.703 37.9151C163.77 34.5353 164.606 33.8107 162.439 32.3671C160.275 30.9221 160.275 30.438 160.74 27.0639C161.206 23.6841 162.372 21.7551 159.342 19.5868C156.313 17.4143 156.546 19.342 153.984 17.897C151.42 16.452 149.79 19.342 149.089 17.897C148.39 16.452 144.555 13.3171 142.162 12.833C139.769 12.349 135.314 12.349 133.231 11.388C131.147 10.4213 126.577 7.28501 126.765 6.07917C126.951 4.87191 126.486 2.94285 124.39 3.42832C122.292 3.91094 116.93 3.66605 116.001 4.63414C115.067 5.59511 111.339 5.92542 109.708 3.35429C108.078 0.776039 106.91 -0.915262 104.581 0.5326C102.249 1.98331 99.2597 2.94283 100.523 4.63414C101.784 6.31975 104.348 9.2141 102.484 10.1822C100.619 11.1417 99.2213 10.6591 98.0553 9.21411C96.8922 7.77052 96.048 6.0792 94.4891 7.04586C92.9301 8.00826 92.9302 6.07913 91.2986 8.49081C89.6671 10.9039 89.4351 12.1098 89.9006 13.5576C90.3676 14.9998 86.8711 15.4838 85.473 14.0403C84.075 12.5895 81.2775 12.1098 80.1115 13.5576C78.947 14.9998 79.8823 16.9289 77.5504 17.4143C75.2198 17.8969 73.8218 17.897 72.4223 18.3796C71.0243 18.8594 69.0981 18.3796 68.4318 21.5159C67.7627 24.6523 67.4908 25.8581 64.4812 26.0958C61.4715 26.335 58.4406 24.6523 57.044 27.3031C55.6459 29.954 56.3435 32.3671 56.1115 33.328C55.878 34.2961 54.0144 35.7412 52.8484 35.7412C51.6839 35.7412 50.0524 34.7787 49.3533 34.7787C48.6543 34.7787 48.6543 33.5729 47.2563 35.5019C45.8583 37.4324 43.2943 42.2558 43.2943 42.2558C43.2943 42.2558 39.5671 42.979 39.1016 40.5659C38.6332 38.1528 35.8371 39.3601 34.4391 41.0514C33.0425 42.7341 32.342 47.1446 32.342 47.1446C32.342 47.1446 33.7401 50.2098 31.643 50.2098C29.546 50.2098 29.0804 48.7662 27.214 49.2488C25.3505 49.7329 25.3504 49.7329 25.3504 49.7329C25.3504 49.7329 18.8272 53.8287 24.1859 56.2418Z" fill="#7B7223"/>
<path d="M64.5442 26.2909C66.0476 27.3999 67.7745 28.2199 69.5726 28.7139C71.2696 29.1866 73.3011 29.4998 75.011 28.9189C76.3492 28.4619 77.1507 27.3358 78.0747 26.3407C79.1951 25.1349 80.5533 24.537 82.1136 24.0771C83.3379 23.7127 84.5281 23.6542 85.7154 24.1611C87.0039 24.7134 88.2054 25.3854 89.6519 25.4139C91.4485 25.4523 93.3178 25.431 95.0732 25.0167C96.7858 24.6053 98.6181 23.8891 99.6986 22.437C100.369 21.5387 100.712 20.4297 101.42 19.5598C102.206 18.5974 103.366 18.4707 104.528 18.6885C106.878 19.1213 108.427 20.6503 109.56 22.6719C109.94 23.3424 110.259 24.1041 110.76 24.7021C111.156 25.1747 111.538 25.3 112.127 25.0551C113.384 24.5312 114.411 23.2841 115.295 22.3075C115.846 21.6924 116.511 21.1629 116.42 20.2745C116.351 19.6153 116.074 18.9903 115.994 18.3297C115.792 16.6669 117.533 15.8882 118.979 15.9224C119.408 15.9338 119.832 16.0078 120.252 16.0818C120.552 16.1316 120.94 16.2584 121.246 16.1843C121.753 16.0648 122.201 15.7643 122.733 15.6661C123.687 15.5024 124.729 15.6319 125.656 15.3258C126.856 14.9201 126.77 13.431 126.684 12.4002C126.661 12.1155 126.932 11.9162 127.185 11.9005C128.965 11.7809 130.71 11.4563 132.406 10.9623C130.138 9.7095 126.599 7.14265 126.765 6.07917C126.952 4.87191 126.486 2.94285 124.391 3.42832C122.292 3.91094 116.931 3.66605 116.001 4.63414C115.067 5.59511 111.34 5.92542 109.708 3.35429C108.078 0.776039 106.911 -0.915262 104.582 0.5326C102.25 1.98331 99.2601 2.94283 100.523 4.63414C101.784 6.31975 104.348 9.2141 102.485 10.1822C100.62 11.1417 99.2217 10.6591 98.0557 9.21411C96.8926 7.77052 96.0484 6.0792 94.4895 7.04586C92.9305 8.00826 92.9306 6.07913 91.299 8.49081C89.6675 10.9039 89.4355 12.1098 89.901 13.5576C90.368 14.9998 86.8715 15.4838 85.4734 14.0403C84.0754 12.5895 81.2779 12.1098 80.1119 13.5576C78.9474 14.9998 79.8827 16.9289 77.5508 17.4143C75.2202 17.8969 73.8222 17.897 72.4227 18.3796C71.0247 18.8594 69.0985 18.3796 68.4322 21.5159C67.7631 24.6523 67.4912 25.8581 64.4816 26.0958C64.426 26.1029 64.3705 26.103 64.3164 26.103C64.3947 26.1642 64.4645 26.2325 64.5442 26.2909Z" fill="#8F841E"/>
<path d="M31.6439 50.2105C31.3606 50.2105 31.11 50.1835 30.8794 50.1379C32.7999 52.7617 35.2472 54.9741 38.3308 56.1742C42.2132 57.6776 46.7347 58.3253 50.7309 56.9031C52.3937 56.3094 53.9085 55.3769 55.4133 54.4672C57.1473 53.4208 58.9027 52.4257 60.7763 51.6441C61.6433 51.2811 62.5444 50.8611 63.4656 50.6618C64.3084 50.4725 65.1768 50.4341 66.0324 50.4454C67.9714 50.4782 69.8905 50.7857 71.821 50.9281C73.239 51.0306 75.2164 51.2469 76.4308 50.313C77.1967 49.7279 77.91 48.5633 77.5612 47.5781C77.2195 46.6101 76.2002 45.9837 75.3488 45.5238C74.1202 44.8618 72.7806 44.4148 71.4423 44.0319C69.0378 43.3442 66.5606 43.0766 64.1432 42.4786C61.1663 41.7497 57.6713 41.1489 55.3051 39.0362C54.2346 38.0866 53.6765 36.9021 53.4458 35.6336C53.2366 35.6963 53.033 35.7419 52.8493 35.7419C51.6848 35.7419 50.0533 34.7795 49.3542 34.7795C48.6552 34.7795 48.6552 33.5736 47.2572 35.5027C45.8592 37.4331 43.2951 42.2565 43.2951 42.2565C43.2951 42.2565 39.568 42.9797 39.1025 40.5666C38.6341 38.1535 35.838 39.3608 34.44 41.0521C33.0419 42.7349 32.3429 47.1453 32.3429 47.1453C32.3429 47.1453 33.741 50.2105 31.6439 50.2105Z" fill="#8F841E"/>
<path d="M140.341 31.8498C137.965 32.2314 135.679 32.7496 133.64 34.0921C132.347 34.9392 131.288 36.004 130.317 37.1985C129.661 38.0014 129.033 38.8314 128.337 39.6045C126.808 41.3072 124.736 42.859 122.561 43.6064C121.508 43.9652 120.397 44.1004 119.332 44.425C118.454 44.6927 117.701 45.1425 117.02 45.6949C115.723 49.1074 119.257 53.4709 122.681 53.945C126.721 54.5016 130.084 52.362 132.85 49.6485C134.19 48.3344 135.415 46.9107 136.705 45.5454C138.002 44.1688 139.451 42.9529 140.985 41.8467C142.189 40.9755 143.456 40.2138 144.705 39.4137C145.594 38.8428 146.514 38.2335 147.18 37.3978C148.87 35.2751 148.308 32.0321 147.805 29.4951C145.482 30.8191 142.988 31.4284 140.341 31.8498Z" fill="#504D2D"/>
<path d="M105.13 39.7804L105.117 39.7306C105.103 39.6679 105.086 39.6038 105.069 39.5426L105.054 39.4842H105.05C105.026 39.4344 104.996 39.3831 104.968 39.3333L104.898 39.2365L104.793 39.1212L104.711 39.0543C104.609 38.9802 104.501 38.9162 104.385 38.8593L104.368 38.8479H104.358L104.24 38.8038C104.172 38.7796 104.102 38.7567 104.031 38.7396C103.881 38.7012 103.646 38.66 103.587 38.6486C103.144 38.5987 102.694 38.603 102.25 38.6372C101.652 38.6771 101.055 38.7795 100.466 38.9048C98.2323 41.1699 95.0675 42.2632 92.8936 44.5937C94.051 46.0345 95.6683 46.7292 97.5048 46.5242C99.0779 46.3534 100.708 45.5234 101.984 44.5439C103.197 43.6114 104.287 42.4782 104.884 41.0716L104.951 40.9022C104.973 40.8396 104.995 40.7783 105.015 40.7072C105.056 40.5719 105.087 40.4366 105.116 40.2929L105.126 40.2431L105.128 40.1747C105.133 40.112 105.136 40.0551 105.136 39.9982C105.136 39.9356 105.133 39.8715 105.128 39.8103L105.13 39.7804Z" fill="#504D2D"/>
<path d="M66.2901 60.8565L66.2987 60.828L66.3342 60.7126L66.3456 60.68H66.3442L66.3471 60.5717L66.3399 60.4977L66.32 60.4009L66.2972 60.3382C66.2645 60.2585 66.2232 60.1887 66.1776 60.1161L66.1719 60.1091L66.1677 60.1005L66.115 60.0364L66.0182 59.9296C65.9484 59.8485 65.8317 59.7417 65.7989 59.7175C65.5683 59.5239 65.3149 59.3588 65.0544 59.2122C64.7027 59.0114 64.3383 58.8363 63.9639 58.6826C61.9636 58.9773 59.8253 58.3465 57.8364 58.6996C58.0044 59.8485 58.6835 60.7924 59.7797 61.3803C60.7193 61.88 61.9081 62.0737 62.9488 62.0566C63.9368 62.0452 64.9248 61.8858 65.7249 61.4074L65.816 61.3448L65.9171 61.2779C65.9869 61.2209 66.0495 61.1626 66.1107 61.1071L66.1349 61.0828L66.1591 61.0487L66.2218 60.9646L66.2802 60.8678L66.2901 60.8565Z" fill="#8F841E"/>
<path d="M163.803 33.749C163.729 33.8017 163.648 33.8572 163.585 33.9013C163.272 34.1363 163.027 34.5349 162.792 34.841C162.264 35.5471 161.73 36.5551 160.997 37.0677C160.493 37.4136 159.761 37.2612 159.189 37.2526C158.779 37.247 158.342 37.247 157.958 37.4192C157.539 37.5972 157.23 38.0399 156.94 38.3759C155.446 40.0943 154.804 42.3309 153.867 44.361C153.378 45.4259 152.794 46.4381 152.062 47.3536C151.474 48.0939 150.99 48.8327 150.613 49.704C149.952 51.2345 148.923 52.584 147.307 53.2204C145.472 53.9379 143.401 53.2604 141.59 54.1074C141.043 54.3637 140.314 54.768 140.086 55.3545C139.935 55.7474 139.928 56.2173 139.92 56.6358C139.907 57.6353 140.042 58.6332 139.99 59.6326C139.893 61.5517 138.794 63.1904 137.285 64.3222C135.642 65.5622 133.687 66.2954 132.199 67.7475C131.999 67.9468 131.695 67.9297 131.492 67.7475C130.87 67.1894 130.171 66.6327 129.355 66.3921C127.121 65.7202 125.742 68.4365 123.898 69.154C121.062 70.2631 119.049 67.2122 118.128 64.9999C117.509 63.5135 116.671 59.3251 114.246 60.7245C113.501 61.1573 113.235 62.0514 113.058 62.8316C112.826 63.8552 112.736 64.9087 112.49 65.9323C112.255 66.9118 111.865 67.8998 111.123 68.6117C110.217 69.4715 108.962 69.762 107.745 69.7719C106.153 69.789 105.042 69.033 103.904 67.9795C103.261 67.383 102.655 66.7466 102.029 66.1259C101.532 65.6362 101.011 65.091 100.386 64.7592C98.8059 63.9292 96.7544 64.52 95.0958 64.7435C94.0352 64.8845 92.9703 64.9585 91.904 64.8275C90.8177 64.7023 89.861 64.3107 88.8844 63.8381C87.4551 63.149 86.1595 62.255 84.8583 61.3567C83.8689 60.6747 82.8481 59.9971 81.6451 59.7693C80.062 59.4746 78.4105 59.9914 76.9484 60.5552C75.0051 61.3126 73.079 62.2607 71.3236 63.3882C68.5546 65.165 66.3849 67.6037 65.562 70.7158C66.4546 70.0011 67.4128 69.5057 68.4321 69.5057C70.7925 69.5057 74.289 69.5057 75.9206 67.8158C77.5507 66.1316 83.3763 66.6086 85.4733 69.5057C87.5718 72.4014 87.1034 72.8784 90.3679 71.4333C93.6295 69.9898 95.7265 68.7825 95.493 72.4014C95.261 76.0147 92.23 73.8465 95.261 76.0147C98.2905 78.1886 102.056 78.4278 100.523 80.8395C98.9881 83.2526 98.7034 83.953 100.877 85.9034C103.051 87.8567 101.541 87.2744 102.134 89.8811C102.73 92.4936 103.883 94.3472 106.213 94.1037C108.544 93.8645 110.407 93.4203 112.736 94.1265C115.067 94.8269 120.893 93.221 121.126 91.3731C121.358 89.5223 123.457 84.9381 125.088 84.2149C126.72 83.4917 132.285 83.4918 133.231 82.77C134.175 82.0467 134.876 79.9696 135.575 77.8683C136.274 75.777 136.039 76.6852 139.535 75.2686C143.03 73.8464 145.246 73.1247 146.002 69.9898C146.76 66.8535 146.76 64.6795 147.458 63.4737C148.158 62.2721 149.324 60.101 153.517 59.6155C157.711 59.1372 160.043 56.7255 159.343 54.553C158.644 52.3848 158.191 48.2818 159.467 45.8701C160.741 43.4627 165.634 41.2888 164.703 37.9147C164.094 35.7023 164.236 34.6317 163.803 33.749Z" fill="#504D2D"/>
</svg>
