<svg width="83" height="53" viewBox="0 0 83 53" fill="none" xmlns="http://www.w3.org/2000/svg">
<path fill-rule="evenodd" clip-rule="evenodd" d="M70.2206 22.3734C70.0726 18.267 67.8785 14.3 64.1164 12.4104C62.9098 11.8071 60.733 11.1953 58.6726 11.1327C58.0153 8.10196 55.7386 5.46967 52.7335 4.54196C51.1484 4.05249 48.9231 4.04963 47.1189 4.72976C45.9408 2.1259 43.6157 0.0655985 40.6703 0.637593C37.392 1.27219 35.605 4.15778 34.922 7.27102C32.2926 6.49413 29.5806 5.42697 27.1048 6.66486C25.6933 7.37345 24.7655 8.72518 24.6318 10.1822C18.1662 8.73941 10.1982 12.6466 8.85217 19.1804C4.31037 20.0968 -0.166011 22.9909 0.00473392 28.0649C0.081569 30.4012 1.3565 32.5441 3.53065 33.4803C3.74123 33.5685 3.96325 33.6425 4.18807 33.708C4.08277 36.1354 5.59377 38.19 7.43781 39.7381C10.2096 42.0602 15.2095 44.5445 19.8964 45.2844C23.3056 50.5747 39.9077 52.7004 43.573 52.6723C48.1831 52.635 62.9982 50.5007 65.491 44.4933C68.0351 44.2713 70.5935 43.5998 72.8274 42.8883C77.0191 41.5508 81.1739 39.0978 82.5085 34.6186C84.9103 26.5424 77.2325 22.7092 70.2206 22.3734Z" fill="#C88347"/>
<path fill-rule="evenodd" clip-rule="evenodd" d="M61.9426 30.38C63.8293 28.553 64.9078 26.4585 64.9078 24.2303C64.9078 17.1501 54.077 11.4131 40.7105 11.4131C27.3469 11.4131 16.5132 17.1501 16.5132 24.2303C16.5132 26.4585 17.5916 28.553 19.4812 30.38C23.5933 26.4073 31.5558 23.7124 40.7105 23.7124C49.8681 23.7124 57.8333 26.4073 61.9426 30.38Z" fill="#A45F25"/>
<path fill-rule="evenodd" clip-rule="evenodd" d="M61.9423 30.3809C57.8331 26.4083 49.8679 23.7134 40.7103 23.7134C31.5555 23.7134 23.5931 26.4083 19.481 30.3809C23.5931 34.3536 31.5555 37.0457 40.7103 37.0457C49.8679 37.0457 57.8331 34.3536 61.9423 30.3809Z" fill="#8E572D"/>
</svg>
