<svg width="69" height="69" viewBox="0 0 69 69" fill="none" xmlns="http://www.w3.org/2000/svg">
<path d="M50.1537 35.9232L52.9999 38.7694L39.7368 52.0514L31.1794 43.513L34.0256 40.6668L39.7368 46.3591L50.1537 35.9232Z" fill="#F3F5F8"/>
<path opacity="0.3" d="M42.5639 23.5894V29.2817H23.5895V23.5894H19.7947V50.1534H32.4695L25.8095 43.5124L34.0254 35.2965L39.7367 40.9888L46.3587 34.3478V23.5894H42.5639Z" fill="#F3F5F8"/>
<path d="M19.7949 50.1538V23.5897H23.5897V29.282H42.564V23.5897H46.3589V34.3482L50.1538 30.5533V23.5897C50.1538 21.5026 48.4461 19.7949 46.3589 19.7949H38.4276C37.6307 17.5938 35.5435 16 33.0769 16C30.6102 16 28.5231 17.5938 27.7261 19.7949H19.7949C17.7077 19.7949 16 21.5026 16 23.5897V50.1538C16 52.241 17.7077 53.9486 19.7949 53.9486H36.2646L32.4697 50.1538H19.7949ZM33.0769 19.7949C34.1205 19.7949 34.9743 20.6487 34.9743 21.6923C34.9743 22.7359 34.1205 23.5897 33.0769 23.5897C32.0333 23.5897 31.1795 22.7359 31.1795 21.6923C31.1795 20.6487 32.0333 19.7949 33.0769 19.7949Z" fill="#F3F5F8"/>
</svg>
