<svg width="69" height="69" viewBox="0 0 69 69" fill="none" xmlns="http://www.w3.org/2000/svg">
<path d="M30.7029 18.037H20.4332C19.1119 18.037 18.037 19.1119 18.037 20.4332V26.5951C18.037 27.9166 19.1119 28.9915 20.4332 28.9915H30.7029C32.0245 28.9915 33.0994 27.9166 33.0994 26.5951V20.4332C33.0994 19.1119 32.0245 18.037 30.7029 18.037Z" fill="#1F4F94"/>
<path d="M30.7029 31.7299H20.4332C19.1119 31.7299 18.037 32.8047 18.037 34.1263V48.5039C18.037 49.8252 19.1119 50.9001 20.4332 50.9001H30.7029C32.0245 50.9001 33.0994 49.8252 33.0994 48.5039V34.1263C33.0994 32.8047 32.0245 31.7299 30.7029 31.7299V31.7299Z" fill="#1F4F94"/>
<path d="M48.5038 39.9456H38.2341C36.9125 39.9456 35.8377 41.0205 35.8377 42.3421V48.5039C35.8377 49.8252 36.9125 50.9001 38.2341 50.9001H48.5038C49.8251 50.9001 50.9 49.8252 50.9 48.5039V42.3421C50.9 41.0205 49.8251 39.9456 48.5038 39.9456V39.9456Z" fill="#1F4F94"/>
<path d="M48.5038 18.037H38.2341C36.9125 18.037 35.8377 19.1119 35.8377 20.4332V34.8108C35.8377 36.1324 36.9125 37.2073 38.2341 37.2073H48.5038C49.8251 37.2073 50.9 36.1324 50.9 34.8108V20.4332C50.9 19.1119 49.8251 18.037 48.5038 18.037V18.037Z" fill="#1F4F94"/>
</svg>
