<svg width="69" height="69" viewBox="0 0 69 69" fill="none" xmlns="http://www.w3.org/2000/svg">
<path d="M47.7 19H21.3C19.65 19 18 20.485 18 22.3V27.2665C18 28.4545 18.7095 29.4775 19.65 30.055V48.7C19.65 50.515 21.465 52 22.95 52H46.05C47.535 52 49.35 50.515 49.35 48.7V30.055C50.2905 29.4775 51 28.4545 51 27.2665V22.3C51 20.485 49.35 19 47.7 19ZM37.8 38.8H31.2C30.2925 38.8 29.55 38.0575 29.55 37.15C29.55 36.2425 30.2925 35.5 31.2 35.5H37.8C38.7075 35.5 39.45 36.2425 39.45 37.15C39.45 38.0575 38.7075 38.8 37.8 38.8ZM47.7 27.25H21.3V22.3H47.7V27.25Z" fill="#1F4F94"/>
</svg>
