<svg width="69" height="69" viewBox="0 0 69 69" fill="none" xmlns="http://www.w3.org/2000/svg">
<path d="M22.082 21.0419C24.0023 21.0399 25.9225 20.98 27.8427 21.007C27.5225 22.2858 27.1684 23.5556 26.8333 24.8315C26.7026 25.3691 26.4811 25.8948 26.4731 26.4544C26.4881 26.9791 27.1375 27.2993 27.5874 27.0739C27.8906 26.9372 28.0113 26.6001 28.0991 26.3048C28.5171 24.7237 28.9041 23.1327 29.3839 21.5686C29.5884 21.6873 29.7929 21.808 29.9854 21.9446C31.5565 23.1037 33.1426 24.2419 34.7177 25.3951C35.399 25.8878 35.9167 26.5961 36.195 27.3891C36.4603 28.1801 36.4414 29.046 36.2309 29.848C35.8878 31.1607 35.5117 32.4635 35.1765 33.7772C35.0489 34.273 34.8902 34.7688 34.6139 35.2047C33.9755 36.2381 32.8413 36.9324 31.6403 37.0781C30.6508 37.1988 29.6582 37.2805 28.6667 37.3783C27.4687 37.517 26.2707 37.6656 25.0656 37.7354C25.1225 37.3973 25.1913 37.0611 25.2881 36.7329C25.5455 35.8511 25.7679 34.9603 26.0193 34.0775C26.1011 33.7503 26.2078 33.4102 26.1519 33.07C26.0482 32.5912 25.4467 32.3648 25.0267 32.5802C24.7365 32.7129 24.6407 33.0461 24.5499 33.3244C24.1739 34.68 23.8497 36.0486 23.4626 37.4002C22.89 37.0661 22.3554 36.6751 21.7998 36.3159C18.8281 34.3678 15.8765 32.3887 12.8979 30.4515C12.6814 30.2959 12.428 30.1213 12.3811 29.838C12.3412 29.5358 12.428 29.2355 12.4988 28.9442C13.1452 26.619 13.7567 24.2838 14.3762 21.9516C14.458 21.6952 14.5388 21.405 14.7722 21.2434C15.0146 21.0927 15.3149 21.1077 15.5892 21.0957C17.7538 21.1067 19.9174 21.0558 22.082 21.0419ZM26.13 28.7088C25.8098 28.8196 25.6771 29.1677 25.5784 29.462C25.4836 29.7971 25.3799 30.1622 25.4866 30.5074C25.6362 30.9433 26.2168 31.1218 26.6038 30.8904C26.924 30.7059 27.0358 30.3238 27.1215 29.9897C27.1944 29.6565 27.2692 29.2655 27.0517 28.9702C26.8512 28.6819 26.4502 28.5971 26.13 28.7088Z" fill="#1F4F94"/>
<path d="M40.7467 25.074C41.2704 25.0401 41.7951 25.0401 42.3188 25.074C42.3527 26.3987 42.3188 27.7244 42.3308 29.0501C42.3408 29.7065 42.2859 30.3679 42.3777 31.0213C42.4964 31.8283 43.0729 32.5405 43.8251 32.8467C44.2331 33.0183 44.6829 33.0402 45.1209 33.0442C47.6815 33.0363 50.2431 33.0412 52.8048 33.0402C53.5649 33.0472 54.325 33.0183 55.0851 33.0512C55.118 33.5749 55.118 34.1006 55.0851 34.6243C54.1674 34.6852 53.2437 34.5655 52.33 34.6832C51.2067 34.8398 50.305 35.8971 50.3219 37.0303C50.305 38.1625 51.2077 39.2199 52.33 39.3765C53.2447 39.4952 54.1694 39.3755 55.0881 39.4364C55.1111 40.4917 55.1111 41.5481 55.0871 42.6035C54.3739 42.6294 53.6587 42.6474 52.9464 42.5845C52.8058 42.3581 52.6621 42.1337 52.5175 41.9112C51.4033 40.1506 49.1987 39.194 47.1498 39.4882C45.9897 39.6748 44.8695 40.1925 44.0336 41.0274C43.5597 41.4723 43.2296 42.0379 42.8874 42.5835C42.1752 42.6494 41.4599 42.6284 40.7457 42.6035C40.7248 42.0758 40.7278 41.5481 40.7347 41.0204C40.7347 36.2323 40.7347 31.4442 40.7347 26.6561C40.7278 26.1284 40.7248 25.6007 40.7467 25.074Z" fill="#1F4F94"/>
<path d="M43.9376 25.0707C45.2643 25.0368 46.591 25.0737 47.9167 25.0567C49.5487 25.0178 51.1587 25.6303 52.4305 26.6358C53.8919 27.8069 54.8445 29.5675 55.0789 31.4209C54.5572 31.4628 54.0345 31.4628 53.5128 31.4309C53.4999 31.001 53.5078 30.5711 53.5029 30.1421C53.4939 29.8498 53.4649 29.5266 53.2575 29.3022C53.027 29.0438 52.6141 28.985 52.3208 29.1675C52.0744 29.3002 51.9377 29.5725 51.9208 29.8449C51.8819 30.3735 51.9218 30.9032 51.8978 31.4329C49.7392 31.4668 47.5806 31.4239 45.4229 31.4509C45.1027 31.4499 44.7775 31.4678 44.4633 31.399C44.2229 31.3451 44.0234 31.1476 43.9715 30.9072C43.8967 30.5591 43.9216 30.2 43.9206 29.8468C43.9456 28.2558 43.9017 26.6628 43.9376 25.0707Z" fill="#1F4F94"/>
<path d="M13.617 32.8296C14.1476 33.1528 14.7222 33.4381 15.1631 33.884C15.2339 34.1224 15.198 34.3757 15.203 34.6211C14.6743 34.6561 14.1437 34.6551 13.615 34.6221C13.586 34.0246 13.584 33.4261 13.617 32.8296Z" fill="#1F4F94"/>
<path d="M13.6161 36.2461C14.1388 36.2122 14.6615 36.2122 15.1842 36.2461C15.2181 36.7688 15.2181 37.2915 15.1842 37.8142C14.6615 37.8471 14.1388 37.8471 13.6161 37.8142C13.5822 37.2915 13.5822 36.7678 13.6161 36.2461Z" fill="#1F4F94"/>
<path d="M52.2372 36.363C52.4636 36.2243 52.7409 36.2363 52.9963 36.2253C53.6926 36.2283 54.3888 36.2184 55.0851 36.2443C55.118 36.768 55.118 37.2927 55.0851 37.8174C54.3888 37.8423 53.6926 37.8314 52.9963 37.8353C52.72 37.8224 52.4087 37.8373 52.1803 37.6548C51.7873 37.3386 51.8102 36.6403 52.2372 36.363Z" fill="#1F4F94"/>
<path d="M12.018 39.4362C12.5127 39.4163 13.0075 39.4153 13.5023 39.4232C15.5651 39.4272 17.627 39.4193 19.6899 39.4282C20.0241 39.4282 20.3582 39.4422 20.6924 39.4602C20.1787 39.522 19.651 39.523 19.1552 39.6856C18.1108 40.0148 17.1552 40.6422 16.4729 41.5021C16.2095 41.8462 15.9861 42.2193 15.7547 42.5854C15.3367 42.6193 14.9178 42.6333 14.4988 42.6213C13.6718 42.6004 12.8449 42.6423 12.018 42.6043C11.994 41.549 11.994 40.4916 12.018 39.4362Z" fill="#1F4F94"/>
<path d="M20.8641 39.4682C21.3369 39.4443 21.8087 39.4223 22.2826 39.4243C27.336 39.4243 32.3895 39.4233 37.4429 39.4253C38.0045 39.4193 38.5661 39.4124 39.1277 39.4353C39.1497 40.4917 39.1507 41.5491 39.1277 42.6054C38.599 42.6264 38.0704 42.6234 37.5427 42.6164C34.184 42.6164 30.8263 42.6164 27.4677 42.6164C26.916 42.6254 26.3634 42.6364 25.8128 42.5855C25.5684 42.1994 25.334 41.8044 25.0507 41.4453C24.3365 40.5745 23.3429 39.939 22.2576 39.6428C21.8037 39.5181 21.3309 39.4981 20.8641 39.4682Z" fill="#1F4F94"/>
<path d="M20.034 41.0913C20.833 40.9376 21.677 41.0384 22.4181 41.3756C23.7338 41.9382 24.6536 43.2818 24.7603 44.7013C24.8521 45.8215 24.4401 46.9766 23.656 47.7817C22.5618 48.9238 20.7602 49.3338 19.2969 48.7064C18.023 48.2156 17.0724 47.0245 16.8509 45.6809C16.5786 44.1936 17.2589 42.5925 18.4998 41.7347C18.9607 41.4204 19.4874 41.202 20.034 41.0913ZM20.2295 42.6813C19.3437 42.8878 18.6096 43.6439 18.438 44.5387C18.3382 45.0734 18.4011 45.6489 18.6684 46.1298C19.0944 46.9208 19.9762 47.4624 20.8859 47.3996C22.0869 47.3826 23.1553 46.3123 23.1732 45.1123C23.2291 44.2774 22.7802 43.4594 22.0879 43.0065C21.5523 42.6364 20.859 42.5387 20.2295 42.6813Z" fill="#1F4F94"/>
<path d="M47.1667 41.091C47.9658 40.9374 48.8097 41.0372 49.5498 41.3753C50.8656 41.9379 51.7863 43.2816 51.893 44.7011C51.9828 45.7973 51.5898 46.9275 50.8376 47.7295C49.7483 48.9106 47.9149 49.3435 46.4296 48.7061C45.1557 48.2143 44.2051 47.0243 43.9836 45.6806C43.7113 44.1933 44.3916 42.5913 45.6325 41.7344C46.0934 41.4202 46.6201 41.2018 47.1667 41.091ZM47.3633 42.6811C46.2829 42.9265 45.453 43.9968 45.5278 45.111C45.5438 46.3111 46.6171 47.3824 47.8161 47.3994C48.674 47.4532 49.5189 46.9824 49.9608 46.2532C50.3119 45.7006 50.3897 45.0003 50.2271 44.3719C50.0546 43.7434 49.6037 43.2058 49.0361 42.8936C48.5313 42.6142 47.9219 42.5574 47.3633 42.6811Z" fill="#1F4F94"/>
<path d="M13.6071 44.2252C14.1437 44.1933 14.6804 44.1933 15.2161 44.2242C15.236 44.7509 15.236 45.2786 15.2181 45.8053C14.859 45.8113 14.4909 45.8542 14.1377 45.7654C13.8973 45.7076 13.7028 45.511 13.644 45.2716C13.5562 44.9295 13.5991 44.5734 13.6071 44.2252Z" fill="#1F4F94"/>
<path d="M20.5327 44.255C20.834 44.1603 21.1951 44.246 21.3976 44.4954C21.6669 44.8176 21.628 45.3553 21.2988 45.6236C20.9397 45.9269 20.3103 45.8341 20.0908 45.4062C19.8524 44.9932 20.0559 44.3817 20.5327 44.255Z" fill="#1F4F94"/>
<path d="M26.3514 44.2211C26.8891 44.2021 27.4277 44.2061 27.9664 44.2121C32.2218 44.2121 36.4783 44.2121 40.7347 44.2121C41.2724 44.2061 41.811 44.2021 42.3487 44.2211C42.3686 44.7468 42.3687 45.2735 42.3497 45.7992C41.811 45.8181 41.2724 45.8141 40.7347 45.8081C36.4783 45.8081 32.2228 45.8081 27.9664 45.8081C27.4277 45.8141 26.8891 45.8181 26.3514 45.7992C26.3295 45.2735 26.3295 44.7468 26.3514 44.2211Z" fill="#1F4F94"/>
<path d="M47.6645 44.2552C47.9657 44.1604 48.3278 44.2452 48.5303 44.4956C48.7996 44.8178 48.7607 45.3554 48.4316 45.6228C48.0724 45.928 47.443 45.8333 47.2226 45.4063C46.9851 44.9933 47.1896 44.3829 47.6645 44.2552Z" fill="#1F4F94"/>
<path d="M53.4839 44.2224C54.5523 44.2025 55.6216 44.2005 56.69 44.2224C56.6979 44.5716 56.7408 44.9287 56.652 45.2718C56.5922 45.5092 56.3997 45.7107 56.1583 45.7636C55.9099 45.8195 55.6535 45.8145 55.4022 45.8165C54.7617 45.8095 54.1223 45.8205 53.4839 45.7995C53.462 45.2738 53.462 44.7471 53.4839 44.2224Z" fill="#1F4F94"/>
</svg>
