<svg width="69" height="69" viewBox="0 0 69 69" fill="none" xmlns="http://www.w3.org/2000/svg">
<path d="M34.754 25.3075C35.8788 24.2959 37.1998 23.529 38.6341 23.055C39.0442 23.5708 39.5649 23.9872 40.1573 24.2732C40.7498 24.5593 41.3989 24.7075 42.0563 24.707C42.7137 24.7075 43.3627 24.5593 43.9552 24.2732C44.5477 23.9872 45.0683 23.5708 45.4784 23.055C46.9127 23.529 48.2338 24.2959 49.3585 25.3075C49.1191 25.9217 49.0207 26.5822 49.0703 27.2398C49.12 27.8975 49.3166 28.5355 49.6455 29.1064C49.9737 29.6785 50.4261 30.1688 50.9691 30.5411C51.5121 30.9134 52.1316 31.158 52.7817 31.2567C53.0891 32.7403 53.0891 34.2715 52.7817 35.7551C51.511 35.9509 50.3389 36.701 49.6455 37.9054C49.3164 38.4764 49.1198 39.1146 49.0701 39.7725C49.0204 40.4304 49.119 41.091 49.3585 41.7054C48.2337 42.7166 46.9126 43.4831 45.4784 43.9568C45.0682 43.4412 44.5475 43.025 43.955 42.7391C43.3626 42.4533 42.7136 42.3053 42.0563 42.3059C41.3989 42.3054 40.7498 42.4536 40.1573 42.7396C39.5649 43.0256 39.0442 43.4421 38.6341 43.9579C37.1999 43.4842 35.8789 42.7177 34.754 41.7065C34.9936 41.0921 35.0921 40.4315 35.0424 39.7736C34.9928 39.1157 34.7961 38.4775 34.467 37.9065C34.1387 37.3346 33.6862 36.8445 33.1433 36.4724C32.6003 36.1003 31.9808 35.8559 31.3308 35.7573C31.0233 34.2734 31.0233 32.7417 31.3308 31.2578C31.9809 31.1591 32.6005 30.9145 33.1434 30.5422C33.6864 30.1699 34.1388 29.6796 34.467 29.1075C34.7959 28.5366 34.9925 27.8986 35.0422 27.2409C35.0919 26.5833 34.9934 25.9228 34.754 25.3086V25.3075ZM43.6994 36.3633C44.0762 36.1483 44.4069 35.8605 44.6724 35.5166C44.9379 35.1727 45.1331 34.7794 45.2467 34.3595C45.3602 33.9395 45.3899 33.5012 45.3341 33.0696C45.2782 32.6381 45.1379 32.222 44.9212 31.8451C44.7045 31.4683 44.4157 31.1382 44.0714 30.8738C43.7271 30.6095 43.3341 30.4162 42.9151 30.305C42.4961 30.1937 42.0593 30.1668 41.6299 30.2258C41.2005 30.2847 40.787 30.4284 40.4131 30.6484C39.6644 31.0891 39.1198 31.8092 38.898 32.6516C38.6762 33.4939 38.7952 34.3902 39.2291 35.1448C39.663 35.8994 40.3766 36.451 41.2141 36.6793C42.0516 36.9076 42.945 36.794 43.6994 36.3633Z" fill="#F3F5F8"/>
<path fill-rule="evenodd" clip-rule="evenodd" d="M36.395 25.8246C36.4894 26.3255 36.5183 26.8382 36.4797 27.3495C36.4138 28.2218 36.1531 29.0682 35.7168 29.826C35.281 30.5851 34.6802 31.2364 33.9586 31.7312C33.5376 32.0199 33.0817 32.2509 32.6033 32.4194C32.5212 33.1424 32.5212 33.8725 32.6033 34.5956C33.0816 34.7639 33.5372 34.9948 33.9582 35.2832C34.6798 35.7777 35.2807 36.4288 35.7166 37.1877C36.1532 37.9458 36.414 38.7925 36.4799 39.665C36.5185 40.1762 36.4897 40.6886 36.3953 41.1893C36.9747 41.6208 37.601 41.9846 38.2622 42.2736C38.6457 41.943 39.0719 41.6629 39.5306 41.4414C40.3185 41.0611 41.182 40.8637 42.0567 40.8643C42.9309 40.8637 43.7939 41.0608 44.5814 41.4407C45.0402 41.6621 45.4665 41.9421 45.8501 42.2726C46.5113 41.9836 47.1377 41.6197 47.7172 41.1882C47.6228 40.6875 47.594 40.1751 47.6326 39.6639C47.6985 38.7912 47.9594 37.9443 48.3962 37.1861C48.3963 37.1859 48.3963 37.1858 48.3964 37.1857C49.1211 35.9272 50.2421 35.0413 51.509 34.5947C51.5912 33.8716 51.5912 33.1414 51.5092 32.4182C51.0307 32.2498 50.5749 32.0188 50.1539 31.7301C49.4322 31.2353 48.8314 30.584 48.3956 29.8248C47.9593 29.067 47.6987 28.2206 47.6329 27.3484C47.5942 26.8374 47.6231 26.3251 47.7174 25.8245C47.1379 25.3927 46.5115 25.0287 45.8502 24.7394C45.4667 25.07 45.0406 25.3501 44.5819 25.5715C43.7941 25.9518 42.9308 26.1491 42.0563 26.1485C41.1817 26.1491 40.3184 25.9518 39.5306 25.5715C39.072 25.3501 38.6458 25.07 38.2623 24.7394C37.601 25.0287 36.9745 25.3928 36.395 25.8246ZM38.6341 23.055C37.1998 23.529 35.8788 24.2959 34.754 25.3075V25.3086C34.9934 25.9228 35.0919 26.5833 35.0422 27.2409C34.9925 27.8986 34.7959 28.5366 34.467 29.1075C34.1388 29.6796 33.6864 30.1699 33.1434 30.5422C32.6005 30.9145 31.9809 31.1591 31.3308 31.2578C31.0233 32.7417 31.0233 34.2734 31.3308 35.7573C31.9808 35.8559 32.6003 36.1003 33.1433 36.4724C33.6862 36.8445 34.1387 37.3346 34.467 37.9065C34.7961 38.4775 34.9928 39.1157 35.0424 39.7736C35.0921 40.4315 34.9936 41.0921 34.754 41.7065C35.8789 42.7177 37.1999 43.4842 38.6341 43.9579C39.0442 43.4421 39.5649 43.0256 40.1573 42.7396C40.7498 42.4536 41.3989 42.3054 42.0563 42.3059C42.7136 42.3053 43.3626 42.4533 43.955 42.7391C44.5475 43.025 45.0682 43.4412 45.4784 43.9568C46.9126 43.4831 48.2337 42.7166 49.3585 41.7054C49.119 41.091 49.0204 40.4304 49.0701 39.7725C49.1198 39.1146 49.3164 38.4764 49.6455 37.9054C50.3389 36.701 51.511 35.9509 52.7817 35.7551C53.0891 34.2715 53.0891 32.7403 52.7817 31.2567C52.1316 31.158 51.5121 30.9134 50.9691 30.5411C50.4261 30.1688 49.9737 29.6785 49.6455 29.1064C49.3166 28.5355 49.12 27.8975 49.0703 27.2398C49.0207 26.5822 49.1191 25.9217 49.3585 25.3075C48.2338 24.2959 46.9127 23.529 45.4784 23.055C45.0683 23.5708 44.5477 23.9872 43.9552 24.2732C43.3627 24.5593 42.7137 24.7075 42.0563 24.707C41.3989 24.7075 40.7498 24.5593 40.1573 24.2732C39.5649 23.9872 39.0442 23.5708 38.6341 23.055ZM45.8134 36.3976C45.4318 36.8918 44.9563 37.3058 44.4141 37.6153C43.3282 38.2352 42.0414 38.399 40.835 38.0701C39.6287 37.7413 38.6027 36.9473 37.9794 35.8634C37.3563 34.7797 37.1856 33.4934 37.5039 32.2845C37.8223 31.0755 38.6044 30.0403 39.6818 29.4061C40.2199 29.0894 40.8153 28.8825 41.4339 28.7976C42.0524 28.7127 42.6815 28.7514 43.285 28.9116C43.8884 29.0718 44.454 29.3502 44.9493 29.7304C45.4445 30.1106 45.8596 30.5852 46.1709 31.1265C46.4821 31.6678 46.6835 32.2653 46.7637 32.8846C46.8439 33.5039 46.8013 34.133 46.6383 34.7358C46.4753 35.3386 46.195 35.9034 45.8134 36.3976ZM44.6724 35.5166C44.4069 35.8605 44.0762 36.1483 43.6994 36.3633C42.945 36.794 42.0516 36.9076 41.2141 36.6793C40.3766 36.451 39.663 35.8994 39.2291 35.1448C38.7952 34.3902 38.6762 33.4939 38.898 32.6516C39.1198 31.8092 39.6644 31.0891 40.4131 30.6484C40.787 30.4284 41.2005 30.2847 41.6299 30.2258C42.0593 30.1668 42.4961 30.1937 42.9151 30.305C43.3341 30.4162 43.7271 30.6095 44.0714 30.8738C44.4157 31.1382 44.7045 31.4683 44.9212 31.8451C45.1379 32.222 45.2782 32.6381 45.3341 33.0696C45.3899 33.5012 45.3602 33.9395 45.2467 34.3595C45.1331 34.7794 44.9379 35.1727 44.6724 35.5166Z" fill="#1F4F94"/>
<path fill-rule="evenodd" clip-rule="evenodd" d="M42.0562 18H20V47.2519L31.0281 54.9643L42.0562 47.2519V42.3059C42.0562 42.3059 42.0562 42.3059 42.0562 42.3059C41.3988 42.3054 40.7497 42.4536 40.1572 42.7396C39.5648 43.0256 39.0441 43.4421 38.634 43.9579C37.1998 43.4842 35.8788 42.7177 34.754 41.7065C34.9935 41.0921 35.092 40.4315 35.0424 39.7736C34.9927 39.1157 34.796 38.4775 34.4669 37.9065C34.1386 37.3346 33.6862 36.8445 33.1432 36.4724C32.6002 36.1003 31.9807 35.8559 31.3307 35.7573C31.0232 34.2733 31.0232 32.7417 31.3307 31.2578C31.9808 31.1591 32.6004 30.9145 33.1434 30.5422C33.6863 30.1699 34.1388 29.6796 34.4669 29.1075C34.7958 28.5366 34.9924 27.8986 35.0421 27.2409C35.0918 26.5833 34.9933 25.9228 34.754 25.3086V25.3075C35.8787 24.2959 37.1997 23.529 38.634 23.055C39.0441 23.5708 39.5648 23.9872 40.1572 24.2732C40.7497 24.5593 41.3988 24.7075 42.0562 24.707C42.0562 24.707 42.0562 24.707 42.0562 24.707V18Z" fill="#F3F5F8"/>
</svg>
