<svg width="69" height="69" viewBox="0 0 69 69" fill="none" xmlns="http://www.w3.org/2000/svg">
<path d="M22.3333 26.1555L17.1986 21.0223L19.439 18.7819L24.5722 23.9167H48.7053C48.9521 23.9167 49.1955 23.9743 49.416 24.0851C49.6366 24.1958 49.8282 24.3566 49.9755 24.5546C50.1229 24.7526 50.2219 24.9822 50.2648 25.2253C50.3076 25.4683 50.293 25.718 50.2222 25.9544L46.4222 38.6211C46.3244 38.9474 46.124 39.2335 45.8508 39.4368C45.5775 39.6402 45.246 39.75 44.9053 39.75H25.5V42.9167H42.9167V46.0833H23.9167C23.4967 46.0833 23.094 45.9165 22.7971 45.6196C22.5001 45.3227 22.3333 44.9199 22.3333 44.5V26.1555ZM24.7083 52.4167C24.0784 52.4167 23.4743 52.1664 23.0289 51.721C22.5836 51.2756 22.3333 50.6716 22.3333 50.0417C22.3333 49.4118 22.5836 48.8077 23.0289 48.3623C23.4743 47.9169 24.0784 47.6667 24.7083 47.6667C25.3382 47.6667 25.9423 47.9169 26.3877 48.3623C26.8331 48.8077 27.0833 49.4118 27.0833 50.0417C27.0833 50.6716 26.8331 51.2756 26.3877 51.721C25.9423 52.1664 25.3382 52.4167 24.7083 52.4167ZM43.7083 52.4167C43.0784 52.4167 42.4744 52.1664 42.029 51.721C41.5836 51.2756 41.3333 50.6716 41.3333 50.0417C41.3333 49.4118 41.5836 48.8077 42.029 48.3623C42.4744 47.9169 43.0784 47.6667 43.7083 47.6667C44.3382 47.6667 44.9423 47.9169 45.3877 48.3623C45.8331 48.8077 46.0833 49.4118 46.0833 50.0417C46.0833 50.6716 45.8331 51.2756 45.3877 51.721C44.9423 52.1664 44.3382 52.4167 43.7083 52.4167Z" fill="#1F4F94"/>
</svg>
