<svg width="69" height="69" viewBox="0 0 69 69" fill="none" xmlns="http://www.w3.org/2000/svg">
<path d="M34.5 14L53 24.5V45.5L34.5 56L16 45.5V24.5L34.5 14ZM34.5 40.7273C36.0494 40.7273 37.5354 40.1239 38.631 39.0498C39.7266 37.9757 40.3421 36.519 40.3421 35C40.3421 33.481 39.7266 32.0243 38.631 30.9502C37.5354 29.8761 36.0494 29.2727 34.5 29.2727C32.9506 29.2727 31.4646 29.8761 30.369 30.9502C29.2734 32.0243 28.6579 33.481 28.6579 35C28.6579 36.519 29.2734 37.9757 30.369 39.0498C31.4646 40.1239 32.9506 40.7273 34.5 40.7273Z" fill="#F3F5F8"/>
</svg>
