<svg width="28" height="28" viewBox="0 0 28 28" fill="none" xmlns="http://www.w3.org/2000/svg">
<path d="M14.0002 2.33325C20.4434 2.33325 25.6668 7.55659 25.6668 13.9999C25.6668 20.4432 20.4434 25.6666 14.0002 25.6666C7.55684 25.6666 2.3335 20.4432 2.3335 13.9999C2.3335 7.55659 7.55684 2.33325 14.0002 2.33325ZM14.1865 18.6666C11.8118 18.6666 9.67395 19.6801 8.18172 21.2981C9.77729 22.5719 11.7998 23.3333 14.0002 23.3333C16.2979 23.3333 18.4016 22.5029 20.0279 21.126C18.545 19.6086 16.4757 18.6666 14.1865 18.6666ZM14.0002 4.66659C8.8455 4.66659 4.66683 8.84526 4.66683 13.9999C4.66683 16.1123 5.36858 18.0607 6.55166 19.6249C8.46595 17.598 11.1785 16.3333 14.1865 16.3333C17.0849 16.3333 19.709 17.5076 21.6089 19.4065C22.6949 17.8811 23.3335 16.0151 23.3335 13.9999C23.3335 8.84526 19.1548 4.66659 14.0002 4.66659ZM14.0002 5.83325C16.5774 5.83325 18.6668 7.92259 18.6668 10.4999C18.6668 13.0772 16.5774 15.1666 14.0002 15.1666C11.4228 15.1666 9.3335 13.0772 9.3335 10.4999C9.3335 7.92259 11.4228 5.83325 14.0002 5.83325ZM14.0002 8.16659C12.7115 8.16659 11.6668 9.21125 11.6668 10.4999C11.6668 11.7886 12.7115 12.8333 14.0002 12.8333C15.2889 12.8333 16.3335 11.7886 16.3335 10.4999C16.3335 9.21125 15.2889 8.16659 14.0002 8.16659Z" fill="#77CF8C"/>
</svg>
