<svg width="28" height="28" viewBox="0 0 28 28" fill="none" xmlns="http://www.w3.org/2000/svg">
<path d="M16.9222 2.33667C19.1774 2.33667 21.0056 4.16484 21.0056 6.42C21.0056 7.04675 20.8644 7.64051 20.612 8.17122L24.5056 8.17C25.1499 8.17 25.6722 8.69233 25.6722 9.33667V14.0033C25.6722 14.6477 25.1499 15.17 24.5056 15.17H23.3389V24.5033C23.3389 25.1477 22.8166 25.67 22.1722 25.67H5.83887C5.19454 25.67 4.6722 25.1477 4.6722 24.5033V15.17H3.50553C2.86121 15.17 2.33887 14.6477 2.33887 14.0033V9.33667C2.33887 8.69233 2.86121 8.17 3.50553 8.17L7.39906 8.17122C7.14674 7.64051 7.00553 7.04675 7.00553 6.42C7.00553 4.16484 8.83371 2.33667 11.0889 2.33667C12.2322 2.33667 13.2658 2.80656 14.007 3.56375C14.7453 2.80656 15.7789 2.33667 16.9222 2.33667ZM21.0056 15.17H7.00553V23.3366H21.0056V15.17ZM23.3389 10.5033H4.6722V12.8366H23.3389V10.5033ZM11.0889 4.67C10.1224 4.67 9.33887 5.4535 9.33887 6.42C9.33887 7.32965 10.0329 8.07719 10.9203 8.16199L11.0889 8.17H12.8389V6.42C12.8389 5.51035 12.1448 4.76281 11.2574 4.67802L11.0889 4.67ZM16.9222 4.67L16.7536 4.67802C15.9217 4.75751 15.2597 5.4195 15.1802 6.25147L15.1722 6.42V8.17H16.9222L17.0907 8.16199C17.9782 8.07719 18.6722 7.32965 18.6722 6.42C18.6722 5.51035 17.9782 4.76281 17.0907 4.67802L16.9222 4.67Z" fill="#6E9A34"/>
</svg>
