<svg width="28" height="28" viewBox="0 0 28 28" fill="none" xmlns="http://www.w3.org/2000/svg">
<path d="M25.6673 4.66667C25.6673 4.02234 25.145 3.5 24.5007 3.5H3.50065C2.85632 3.5 2.33398 4.02234 2.33398 4.66667V23.3333C2.33398 23.9777 2.85632 24.5 3.50065 24.5H24.5007C25.145 24.5 25.6673 23.9777 25.6673 23.3333V4.66667ZM4.66732 17.5H8.6527C9.55285 19.5602 11.6086 21 14.0007 21C16.3927 21 18.4485 19.5602 19.3487 17.5H23.334V22.1667H4.66732V17.5ZM4.66732 5.83333H23.334V15.1667H17.5007C17.5007 17.0997 15.9337 18.6667 14.0007 18.6667C12.0676 18.6667 10.5007 17.0997 10.5007 15.1667H4.66732V5.83333ZM18.6673 12.8333H15.1673V16.3333H12.834V12.8333H9.33398L14.0007 7.58333L18.6673 12.8333Z" fill="#6E9A34"/>
</svg>
