<svg width="28" height="28" viewBox="0 0 28 28" fill="none" xmlns="http://www.w3.org/2000/svg">
<g clip-path="url(#clip0_2_25)">
<path fill-rule="evenodd" clip-rule="evenodd" d="M20.4431 12.5573C20.7202 12.4354 21.0369 12.2729 21.3536 12.1103C22.9767 13.3295 25.1936 13.1669 26.6979 11.7446C29.4294 9.06241 27.5688 4.34833 23.8476 4.30769C21.1953 4.26705 19.1763 6.74601 19.691 9.42816C16.5636 11.7446 14.9405 13.0044 15.7718 8.209C19.8097 6.29898 18.4638 0 14.03 0C9.55665 0 8.21068 6.29898 12.2486 8.209C13.0799 13.0044 11.4568 11.7446 8.32944 9.42816C8.88366 6.70537 6.74596 4.18578 4.09362 4.26705C0.372428 4.42961 -1.40899 9.10305 1.32252 11.7446C2.78724 13.1669 5.04371 13.3295 6.70637 12.1103C6.98348 12.2729 7.30018 12.4354 7.57729 12.5573C9.0816 13.3701 10.5067 14.1016 11.7339 14.955C12.5257 15.402 12.882 16.4993 11.8131 16.5806C10.863 16.7025 9.715 16.2961 8.68573 15.8897C7.89399 14.5893 6.54802 13.8984 5.16247 13.8984C2.58931 13.8984 0.570364 16.2961 1.04541 18.9376C1.36211 20.9289 3.06435 22.4325 5.04371 22.4731C7.02307 22.5544 8.80449 21.1321 9.23995 19.1408C12.0506 19.2627 12.1298 20.5225 12.1694 20.5631V24.3832C12.1694 24.7896 12.0506 25.1553 11.7735 25.4398C11.4964 25.7242 11.1401 25.8462 10.7443 25.8462C9.83376 25.8462 9.00243 26.2932 8.48779 27.0247H3.49981C3.2227 27.0247 3.02477 27.2279 3.02477 27.5123C3.02477 27.7562 3.2227 28 3.49981 28H24.5206C24.7581 28 24.9956 27.7562 24.9956 27.5123C24.9956 27.2279 24.7581 27.0247 24.5206 27.0247H19.5326C19.018 26.2932 18.1866 25.8462 17.2761 25.8462C16.8803 25.8462 16.524 25.7242 16.2469 25.4398C16.0094 25.1553 15.851 24.7896 15.8906 24.4238V20.6038C15.8906 20.5225 15.9698 19.2627 18.7805 19.1408C19.2159 21.1727 20.9973 22.5544 22.9767 22.5138C24.9956 22.4325 26.6583 20.9289 27.0146 18.9376C27.45 16.2554 25.4311 13.8578 22.8183 13.8984C21.4328 13.8984 20.1264 14.6299 19.3347 15.8897C18.4638 16.2554 17.4741 16.6212 16.5636 16.6212C14.9009 16.6212 15.7322 15.3208 16.3656 14.8737C16.9594 14.4267 20.1264 12.7199 20.4431 12.5573ZM12.4069 26.1306C12.882 25.6836 13.1195 25.0334 13.0799 24.4238V20.5631C13.0799 20.4819 13.0403 18.3687 9.35871 18.2061C9.35871 17.8403 9.31912 17.4746 9.20036 17.1089C9.95252 17.3933 10.7047 17.5559 11.4568 17.5559C11.6152 17.5559 11.7735 17.5559 11.9319 17.5559C13.7925 17.3527 13.9112 15.1582 12.2486 14.1422C10.9422 13.2888 9.51706 12.5167 8.01275 11.7446C7.81481 11.6226 7.61688 11.5007 7.41894 11.4194C7.65646 11.0943 7.89399 10.7692 8.05233 10.4035C11.3381 12.8012 14.0696 14.061 13.2383 8.53411C13.7529 8.65602 14.2675 8.65602 14.7821 8.53411C13.9508 14.061 16.6823 12.8012 19.9681 10.4035C20.1264 10.7692 20.3639 11.0943 20.6015 11.4194C20.4035 11.5007 20.2056 11.6226 20.0077 11.7446C18.5033 12.5167 17.0782 13.2888 15.7718 14.1422C13.9904 15.2395 14.2279 17.5559 16.5636 17.5559C17.3157 17.5559 18.1075 17.3933 18.82 17.1089C18.7013 17.4746 18.6617 17.8403 18.6617 18.2061C15.0197 18.3687 14.9405 20.4819 14.9405 20.5631V24.4238C14.9405 25.0334 15.178 25.6836 15.6135 26.1306C16.6032 27.1466 17.3553 26.4964 18.1471 27.0247H9.87334C10.8234 26.4964 11.4568 27.106 12.4069 26.1306ZM21.6307 11.0943C21.8287 10.5254 22.3037 10.0377 22.8579 9.7939C23.4517 10.1597 24.1643 10.1597 24.7185 9.7939C25.3123 10.0377 25.7478 10.5254 25.9853 11.0943C24.7185 12.2729 22.8579 12.2729 21.6307 11.0943ZM23.808 9.10305C23.2934 9.10305 22.8579 8.65602 22.8579 8.12772C22.8579 7.59942 23.2934 7.19303 23.808 7.19303C24.3227 7.19303 24.7185 7.59942 24.7185 8.12772C24.7185 8.65602 24.3227 9.10305 23.808 9.10305ZM23.808 5.28302C26.302 5.28302 27.8855 8.08708 26.6187 10.2816C26.3416 9.7939 25.9061 9.34688 25.4311 9.06241C25.5894 8.77794 25.6686 8.45283 25.6686 8.12772C25.6686 7.07112 24.8373 6.21771 23.808 6.21771C22.7788 6.21771 21.9474 7.07112 21.9474 8.12772C21.9474 8.45283 22.0266 8.77794 22.1849 9.06241C21.6703 9.34688 21.2744 9.7939 20.9577 10.2816C19.7305 8.08708 21.2744 5.28302 23.808 5.28302ZM11.8527 6.82729C12.0506 6.21771 12.5257 5.73004 13.0799 5.48621C13.6341 5.85196 14.3863 5.85196 14.9405 5.48621C15.5343 5.73004 15.9698 6.21771 16.1677 6.82729C14.9405 7.96517 13.0799 7.96517 11.8527 6.82729ZM14.03 4.79536C13.5154 4.79536 13.0799 4.38897 13.0799 3.86067C13.0799 3.33237 13.5154 2.88534 14.03 2.88534C14.5446 2.88534 14.9405 3.33237 14.9405 3.86067C14.9405 4.38897 14.5446 4.79536 14.03 4.79536ZM14.03 0.975327C16.524 0.975327 18.1075 3.77939 16.8407 5.97388C16.5636 5.48621 16.1281 5.03919 15.6531 4.75472C15.8114 4.47025 15.8906 4.18578 15.8906 3.86067C15.8906 2.80406 15.0593 1.91001 14.03 1.91001C13.0007 1.91001 12.1694 2.80406 12.1694 3.86067C12.1694 4.18578 12.2486 4.47025 12.4069 4.75472C11.8923 5.03919 11.4964 5.48621 11.1797 5.97388C9.95252 3.77939 11.4964 0.975327 14.03 0.975327ZM4.21238 5.28302C6.74596 5.28302 8.32944 8.08708 7.06266 10.2816C6.74596 9.7939 6.35009 9.34688 5.83545 9.06241C5.9938 8.77794 6.11256 8.45283 6.11256 8.12772C6.11256 7.07112 5.24165 6.21771 4.21238 6.21771C3.2227 6.21771 2.35179 7.07112 2.35179 8.12772C2.35179 8.45283 2.47055 8.77794 2.6289 9.06241C2.11426 9.34688 1.71839 9.7939 1.40169 10.2816C0.134905 8.08708 1.71839 5.28302 4.21238 5.28302ZM3.30188 8.12772C3.30188 7.59942 3.73734 7.19303 4.21238 7.19303C4.72701 7.19303 5.16247 7.59942 5.16247 8.12772C5.16247 8.65602 4.72701 9.10305 4.21238 9.10305C3.73734 9.10305 3.30188 8.65602 3.30188 8.12772ZM2.07468 11.0943C2.27261 10.5254 2.70807 10.0377 3.30188 9.7939C3.8561 10.1597 4.60825 10.1597 5.16247 9.7939C5.75628 10.0377 6.19174 10.5254 6.38967 11.0943C5.16247 12.2729 3.30188 12.2729 2.07468 11.0943ZM5.16247 14.8331C6.3105 14.8331 7.41894 15.4833 7.97316 16.4993C8.56697 17.5559 8.56697 18.8157 7.97316 19.8723C7.69605 19.344 7.30018 18.9376 6.78555 18.6531C6.94389 18.3687 7.02307 18.0435 7.02307 17.7184C7.02307 16.6618 6.19174 15.8084 5.16247 15.8084C4.13321 15.8084 3.30188 16.6618 3.30188 17.7184C3.30188 18.0435 3.38105 18.3687 3.5394 18.6531C3.06435 18.9376 2.6289 19.344 2.35179 19.8723C1.085 17.6372 2.66848 14.8331 5.16247 14.8331ZM4.21238 17.7184C4.21238 17.1901 4.64784 16.7431 5.16247 16.7431C5.67711 16.7431 6.11256 17.1901 6.11256 17.7184C6.11256 18.2467 5.67711 18.6531 5.16247 18.6531C4.64784 18.6531 4.25197 18.2467 4.21238 17.7184ZM2.98518 20.6851C3.2227 20.0755 3.65816 19.5878 4.21238 19.344C4.80619 19.7097 5.51876 19.7097 6.11256 19.344C6.66678 19.5878 7.10224 20.0755 7.33977 20.6851C6.11256 21.8229 4.21238 21.8229 2.98518 20.6851ZM20.6806 20.6851C20.9182 20.0755 21.3536 19.5878 21.9078 19.344C22.5016 19.7097 23.2142 19.7097 23.808 19.344C24.3622 19.5878 24.7977 20.0755 25.0352 20.6851C23.808 21.8229 21.9078 21.8229 20.6806 20.6851ZM22.8579 18.6531C22.3433 18.6531 21.9474 18.2467 21.9474 17.7184C21.9474 17.1901 22.3433 16.7431 22.8579 16.7431C23.3726 16.7431 23.808 17.1901 23.808 17.7184C23.808 18.2467 23.3726 18.6531 22.8579 18.6531ZM22.8579 14.8331C25.3519 14.8331 26.9354 17.6372 25.6686 19.8723C25.3915 19.344 24.9956 18.9376 24.481 18.6531C24.6394 18.3687 24.7185 18.0435 24.7185 17.7184C24.7185 16.6618 23.8872 15.8084 22.8579 15.8084C21.8287 15.8084 20.9973 16.6618 20.9973 17.7184C20.9973 18.0435 21.0765 18.3687 21.2349 18.6531C20.7598 18.9376 20.3244 19.344 20.0472 19.8723C19.4534 18.8157 19.4534 17.5559 20.0472 16.4993C20.641 15.4833 21.7099 14.8331 22.8579 14.8331Z" fill="#77CF8C"/>
</g>
<defs>
<clipPath id="clip0_2_25">
<rect width="28" height="28" fill="white"/>
</clipPath>
</defs>
</svg>
