<svg width="23" height="24" viewBox="0 0 23 24" fill="none" xmlns="http://www.w3.org/2000/svg">
<path d="M4.99967 0.333252C8.13801 0.333252 10.861 2.10309 12.2295 4.69775C13.6027 2.76342 15.8613 1.49992 18.4163 1.49992H22.4997V4.41658C22.4997 8.60492 19.1047 11.9999 14.9163 11.9999H13.1663V13.1666H18.9997V21.3333C18.9997 22.6224 17.9555 23.6666 16.6663 23.6666H7.33301C6.04384 23.6666 4.99967 22.6224 4.99967 21.3333V13.1666H10.833V10.8333H8.49967C3.98934 10.8333 0.333008 7.17692 0.333008 2.66659V0.333252H4.99967ZM16.6663 15.4999H7.33301V21.3333H16.6663V15.4999ZM20.1663 3.83325H18.4163C15.5172 3.83325 13.1663 6.18409 13.1663 9.08325V9.66658H14.9163C17.8155 9.66658 20.1663 7.31575 20.1663 4.41658V3.83325ZM4.99967 2.66659H2.66634C2.66634 5.88775 5.27851 8.49992 8.49967 8.49992H10.833C10.833 5.27875 8.22084 2.66659 4.99967 2.66659Z" fill="#B5B5C3"/>
</svg>
