<svg width="28" height="28" viewBox="0 0 28 28" fill="none" xmlns="http://www.w3.org/2000/svg">
<path d="M6.99772 2.33325C10.1352 2.33325 12.8595 4.10254 14.2271 6.6978C15.6007 4.76286 17.86 3.49992 20.4143 3.49992H24.4977V6.41659C24.4977 10.6047 21.1025 13.9999 16.9143 13.9999H15.1643V15.1666H20.9977V23.3333C20.9977 24.622 19.953 25.6666 18.6643 25.6666H9.33105C8.04239 25.6666 6.99772 24.622 6.99772 23.3333V15.1666H12.831V12.8333H10.4977C5.98739 12.8333 2.33105 9.17691 2.33105 4.66659V2.33325H6.99772ZM18.6643 17.4999H9.33105V23.3333H18.6643V17.4999ZM22.1643 5.83325H20.4143C17.5149 5.83325 15.1643 8.18376 15.1643 11.0833V11.6666H16.9143C19.8138 11.6666 22.1643 9.31608 22.1643 6.41659V5.83325ZM6.99772 4.66659H4.66439C4.66439 7.88824 7.27605 10.4999 10.4977 10.4999H12.831C12.831 7.27826 10.2194 4.66659 6.99772 4.66659Z" fill="#6E9A34"/>
</svg>
