<svg width="28" height="28" viewBox="0 0 28 28" fill="none" xmlns="http://www.w3.org/2000/svg">
<path d="M2.3335 25.6667C2.3335 20.5121 6.51217 16.3334 11.6668 16.3334C16.8215 16.3334 21.0002 20.5121 21.0002 25.6667H18.6668C18.6668 21.8008 15.5328 18.6667 11.6668 18.6667C7.80083 18.6667 4.66683 21.8008 4.66683 25.6667H2.3335ZM11.6668 15.1667C7.79933 15.1667 4.66683 12.0342 4.66683 8.16675C4.66683 4.29925 7.79933 1.16675 11.6668 1.16675C15.5343 1.16675 18.6668 4.29925 18.6668 8.16675C18.6668 12.0342 15.5343 15.1667 11.6668 15.1667ZM11.6668 12.8334C14.2452 12.8334 16.3335 10.7451 16.3335 8.16675C16.3335 5.58841 14.2452 3.50008 11.6668 3.50008C9.0885 3.50008 7.00016 5.58841 7.00016 8.16675C7.00016 10.7451 9.0885 12.8334 11.6668 12.8334ZM21.3311 17.1533C24.5753 18.6155 26.8335 21.8774 26.8335 25.6667H24.5002C24.5002 22.8247 22.8065 20.3784 20.3734 19.2817L21.3311 17.1533ZM20.5291 3.98216C22.8603 4.94328 24.5002 7.23763 24.5002 9.91675C24.5002 13.2653 21.9384 16.0128 18.6668 16.3073V13.9588C20.6463 13.676 22.1668 11.9747 22.1668 9.91675C22.1668 8.30599 21.2354 6.91378 19.8813 6.24916L20.5291 3.98216Z" fill="#6E9A34"/>
</svg>
