<svg width="25" height="25" viewBox="0 0 25 25" fill="none" xmlns="http://www.w3.org/2000/svg">
<g clip-path="url(#clip0_6409_979)">
<path d="M0.333008 24.6667C0.333008 22.1914 1.31634 19.8174 3.06668 18.0671C4.81702 16.3167 7.19099 15.3334 9.66634 15.3334C12.1417 15.3334 14.5157 16.3167 16.266 18.0671C18.0163 19.8174 18.9997 22.1914 18.9997 24.6667H16.6663C16.6663 22.8102 15.9288 21.0298 14.6161 19.717C13.3033 18.4042 11.5229 17.6667 9.66634 17.6667C7.80983 17.6667 6.02935 18.4042 4.71659 19.717C3.40384 21.0298 2.66634 22.8102 2.66634 24.6667H0.333008ZM9.66634 14.1667C5.79884 14.1667 2.66634 11.0342 2.66634 7.16675C2.66634 3.29925 5.79884 0.166748 9.66634 0.166748C13.5338 0.166748 16.6663 3.29925 16.6663 7.16675C16.6663 11.0342 13.5338 14.1667 9.66634 14.1667ZM9.66634 11.8334C12.2447 11.8334 14.333 9.74508 14.333 7.16675C14.333 4.58841 12.2447 2.50008 9.66634 2.50008C7.08801 2.50008 4.99967 4.58841 4.99967 7.16675C4.99967 9.74508 7.08801 11.8334 9.66634 11.8334ZM19.331 16.1536C20.9706 16.892 22.362 18.0882 23.338 19.5984C24.3141 21.1086 24.8332 22.8686 24.833 24.6667H22.4997C22.4999 23.3181 22.1107 21.998 21.3786 20.8653C20.6466 19.7325 19.6029 18.8354 18.3732 18.2816L19.3298 16.1536H19.331ZM18.5283 2.98191C19.7038 3.46643 20.7088 4.28921 21.4159 5.34585C22.1229 6.40249 22.5001 7.64536 22.4997 8.91675C22.5002 10.5178 21.902 12.0612 20.8226 13.2437C19.7433 14.4262 18.2608 15.1625 16.6663 15.3077V12.9592C17.5308 12.8354 18.3327 12.4378 18.9545 11.8246C19.5763 11.2115 19.9851 10.4151 20.121 9.5525C20.2569 8.68989 20.1126 7.80643 19.7095 7.03183C19.3063 6.25723 18.6654 5.63229 17.8808 5.24875L18.5283 2.98191Z" fill="#6E9A34"/>
</g>
<defs>
<clipPath id="clip0_6409_979">
<rect width="25" height="25" fill="white"/>
</clipPath>
</defs>
</svg>
