<svg width="25" height="24" viewBox="0 0 25 24" fill="none" xmlns="http://www.w3.org/2000/svg">
<path d="M20.3333 0.333334C20.9773 0.333334 21.5 0.856001 21.5 1.5V5.88317L19.1667 8.2165V2.66667H2.83333V21.3333H19.1667V18.1157L21.5 15.7823V22.5C21.5 23.144 20.9773 23.6667 20.3333 23.6667H1.66667C1.02267 23.6667 0.5 23.144 0.5 22.5V1.5C0.5 0.856001 1.02267 0.333334 1.66667 0.333334H20.3333ZM22.4077 8.276L24.0573 9.92567L14.983 19L13.331 18.9977L13.3333 17.3503L22.4077 8.276ZM12.1667 12V14.3333H6.33333V12H12.1667ZM15.6667 7.33333V9.66667H6.33333V7.33333H15.6667Z" fill="#B5B5C3"/>
</svg>
