<svg width="28" height="28" viewBox="0 0 28 28" fill="none" xmlns="http://www.w3.org/2000/svg">
<path d="M5.83333 14.5833C5.83333 14.949 6.37118 15.5848 7.61888 16.2086C9.23306 17.0157 11.5229 17.5 14 17.5C16.4771 17.5 18.7669 17.0157 20.3811 16.2086C21.6288 15.5848 22.1667 14.949 22.1667 14.5833V12.0501C20.2417 13.2396 17.2985 14 14 14C10.7015 14 7.75829 13.2396 5.83333 12.0501V14.5833ZM22.1667 17.8835C20.2417 19.0729 17.2985 19.8333 14 19.8333C10.7015 19.8333 7.75829 19.0729 5.83333 17.8835V20.4167C5.83333 20.7823 6.37118 21.4181 7.61888 22.042C9.23306 22.8491 11.5229 23.3333 14 23.3333C16.4771 23.3333 18.7669 22.8491 20.3811 22.042C21.6288 21.4181 22.1667 20.7823 22.1667 20.4167V17.8835ZM3.5 20.4167V8.75C3.5 5.85051 8.20101 3.5 14 3.5C19.799 3.5 24.5 5.85051 24.5 8.75V20.4167C24.5 23.3162 19.799 25.6667 14 25.6667C8.20101 25.6667 3.5 23.3162 3.5 20.4167ZM14 11.6667C16.4771 11.6667 18.7669 11.1824 20.3811 10.3753C21.6288 9.75147 22.1667 9.11566 22.1667 8.75C22.1667 8.38434 21.6288 7.74853 20.3811 7.12468C18.7669 6.31759 16.4771 5.83333 14 5.83333C11.5229 5.83333 9.23306 6.31759 7.61888 7.12468C6.37118 7.74853 5.83333 8.38434 5.83333 8.75C5.83333 9.11566 6.37118 9.75147 7.61888 10.3753C9.23306 11.1824 11.5229 11.6667 14 11.6667Z" fill="#6E9A34"/>
</svg>
