<svg width="28" height="28" viewBox="0 0 28 28" fill="none" xmlns="http://www.w3.org/2000/svg">
<path d="M19.8333 2.33325V4.66659H23.341C23.9811 4.66659 24.5 5.18569 24.5 5.82555V24.5076C24.5 25.1477 23.9809 25.6666 23.341 25.6666H4.65897C4.01889 25.6666 3.5 25.1475 3.5 24.5076V5.82555C3.5 5.18547 4.01911 4.66659 4.65897 4.66659H8.16667V2.33325H19.8333ZM8.16667 6.99992H5.83333V23.3333H22.1667V6.99992H19.8333V9.33325H8.16667V6.99992ZM10.5 18.6666V20.9999H8.16667V18.6666H10.5ZM10.5 15.1666V17.4999H8.16667V15.1666H10.5ZM10.5 11.6666V13.9999H8.16667V11.6666H10.5ZM17.5 4.66659H10.5V6.99992H17.5V4.66659Z" fill="#6E9A34"/>
</svg>
