<svg width="24" height="24" viewBox="0 0 24 24" fill="none" xmlns="http://www.w3.org/2000/svg">
<path d="M0.333008 11.9999C0.333008 10.9908 0.461341 10.0131 0.701674 9.07862C1.34622 9.1125 1.98758 8.96749 2.55486 8.65963C3.12213 8.35177 3.59323 7.89304 3.91608 7.33415C4.23893 6.77526 4.40095 6.13799 4.38423 5.49277C4.36751 4.84756 4.1727 4.21953 3.82134 3.67812C5.23177 2.29045 6.97227 1.28469 8.87884 0.755615C9.17166 1.33133 9.61808 1.81479 10.1687 2.15248C10.7193 2.49016 11.3526 2.6689 11.9985 2.6689C12.6444 2.6689 13.2777 2.49016 13.8283 2.15248C14.3789 1.81479 14.8254 1.33133 15.1182 0.755615C17.0247 1.28469 18.7652 2.29045 20.1757 3.67812C19.8239 4.21963 19.6288 4.8479 19.612 5.49341C19.5951 6.13892 19.7572 6.77651 20.0802 7.33563C20.4033 7.89475 20.8747 8.35361 21.4423 8.66143C22.01 8.96926 22.6517 9.11405 23.2965 9.07978C23.5368 10.0131 23.6652 10.9908 23.6652 11.9999C23.6652 13.0091 23.5368 13.9868 23.2965 14.9213C22.6519 14.8872 22.0104 15.032 21.4429 15.3398C20.8754 15.6476 20.4042 16.1063 20.0812 16.6652C19.7582 17.2241 19.5961 17.8615 19.6127 18.5068C19.6294 19.1521 19.8242 19.7803 20.1757 20.3218C18.7652 21.7095 17.0247 22.7152 15.1182 23.2443C14.8254 22.6686 14.3789 22.1851 13.8283 21.8474C13.2777 21.5097 12.6444 21.331 11.9985 21.331C11.3526 21.331 10.7193 21.5097 10.1687 21.8474C9.61808 22.1851 9.17166 22.6686 8.87884 23.2443C6.97227 22.7152 5.23177 21.7095 3.82134 20.3218C4.1731 19.7803 4.36819 19.152 4.38504 18.5065C4.40188 17.861 4.23982 17.2234 3.91679 16.6643C3.59375 16.1051 3.12234 15.6463 2.5547 15.3385C1.98706 15.0306 1.34533 14.8859 0.700508 14.9201C0.461341 13.9879 0.333008 13.0103 0.333008 11.9999ZM5.93767 15.4999C6.67267 16.7728 6.88268 18.2369 6.59567 19.6113C7.07167 19.9496 7.57801 20.2424 8.10884 20.4863C9.17829 19.5283 10.5639 18.999 11.9997 18.9999C13.4697 18.9999 14.844 19.5494 15.8905 20.4863C16.4213 20.2424 16.9277 19.9496 17.4037 19.6113C17.109 18.2066 17.3433 16.7425 18.0617 15.4999C18.7787 14.2567 19.9295 13.322 21.2933 12.8749C21.3473 12.2929 21.3473 11.707 21.2933 11.1249C19.9291 10.6782 18.7779 9.7434 18.0605 8.49995C17.3422 7.25737 17.1079 5.79332 17.4025 4.38861C16.9266 4.05019 16.42 3.75724 15.8893 3.51361C14.8202 4.47137 13.4351 5.00066 11.9997 4.99995C10.5639 5.00095 9.17829 4.47164 8.10884 3.51361C7.57816 3.75724 7.07154 4.0502 6.59567 4.38861C6.89033 5.79332 6.65602 7.25737 5.93767 8.49995C5.22061 9.74318 4.06982 10.6779 2.70601 11.1249C2.65205 11.707 2.65205 12.2929 2.70601 12.8749C4.07026 13.3217 5.22149 14.2565 5.93884 15.4999H5.93767ZM11.9997 15.4999C11.0714 15.4999 10.1812 15.1312 9.5248 14.4748C8.86842 13.8184 8.49967 12.9282 8.49967 11.9999C8.49967 11.0717 8.86842 10.1815 9.5248 9.52507C10.1812 8.8687 11.0714 8.49995 11.9997 8.49995C12.9279 8.49995 13.8182 8.8687 14.4745 9.52507C15.1309 10.1815 15.4997 11.0717 15.4997 11.9999C15.4997 12.9282 15.1309 13.8184 14.4745 14.4748C13.8182 15.1312 12.9279 15.4999 11.9997 15.4999ZM11.9997 13.1666C12.3091 13.1666 12.6058 13.0437 12.8246 12.8249C13.0434 12.6061 13.1663 12.3094 13.1663 11.9999C13.1663 11.6905 13.0434 11.3938 12.8246 11.175C12.6058 10.9562 12.3091 10.8333 11.9997 10.8333C11.6903 10.8333 11.3935 10.9562 11.1747 11.175C10.9559 11.3938 10.833 11.6905 10.833 11.9999C10.833 12.3094 10.9559 12.6061 11.1747 12.8249C11.3935 13.0437 11.6903 13.1666 11.9997 13.1666Z" fill="#B5B5C3"/>
</svg>
