<svg width="28" height="28" viewBox="0 0 28 28" fill="none" xmlns="http://www.w3.org/2000/svg">
<path d="M10.4585 20.9999C10.1754 22.9787 8.47362 24.4999 6.4165 24.4999C4.35939 24.4999 2.65757 22.9787 2.37452 20.9999H1.1665V6.99992C1.1665 6.35559 1.68884 5.83325 2.33317 5.83325H18.6665C19.3109 5.83325 19.8332 6.35559 19.8332 6.99992V9.33325H23.3332L26.8332 14.0649V20.9999H24.4585C24.1754 22.9787 22.4736 24.4999 20.4165 24.4999C18.3594 24.4999 16.6576 22.9787 16.3745 20.9999H10.4585ZM17.4998 8.16659H3.49984V17.5588C4.24097 16.8025 5.27394 16.3333 6.4165 16.3333C8.0454 16.3333 9.45153 17.287 10.1069 18.6666H16.7261C16.9218 18.2548 17.1844 17.8807 17.4998 17.5588V8.16659ZM19.8332 15.1666H24.4998V14.8341L22.1568 11.6666H19.8332V15.1666ZM20.4165 22.1666C21.1785 22.1666 21.8267 21.6796 22.0669 20.9999C22.1314 20.8175 22.1665 20.6211 22.1665 20.4166C22.1665 19.4501 21.383 18.6666 20.4165 18.6666C19.45 18.6666 18.6665 19.4501 18.6665 20.4166C18.6665 20.6211 18.7016 20.8175 18.7661 20.9999C19.0064 21.6796 19.6546 22.1666 20.4165 22.1666ZM8.1665 20.4166C8.1665 19.4501 7.38301 18.6666 6.4165 18.6666C5.45 18.6666 4.6665 19.4501 4.6665 20.4166C4.6665 20.6211 4.7016 20.8175 4.76608 20.9999C5.00632 21.6796 5.65454 22.1666 6.4165 22.1666C7.17847 22.1666 7.82669 21.6796 8.06693 20.9999C8.13141 20.8175 8.1665 20.6211 8.1665 20.4166Z" fill="#6E9A34"/>
</svg>
