<svg width="79" height="79" viewBox="0 0 79 79" fill="none" xmlns="http://www.w3.org/2000/svg">
<rect width="79" height="79" rx="7.03323" fill="#FFF2E0"/>
<g clip-path="url(#clip0_1592_18361)">
<path d="M28.6451 40.7499C28.3922 39.2448 28.4703 37.7027 28.8742 36.231C29.278 34.7592 29.9978 33.3932 30.9835 32.228C31.9692 31.0628 33.197 30.1265 34.5814 29.4843C35.9659 28.8421 37.4737 28.5094 38.9999 28.5094C40.526 28.5094 42.0339 28.8421 43.4183 29.4843C44.8028 30.1265 46.0306 31.0628 47.0163 32.228C48.0019 33.3932 48.7217 34.7592 49.1256 36.231C49.5294 37.7027 49.6076 39.2448 49.3546 40.7499H45.7794C46.0453 39.7158 46.0711 38.6346 45.8548 37.589C45.6385 36.5434 45.186 35.5611 44.5317 34.7174C43.8774 33.8736 43.0388 33.1907 42.08 32.7208C41.1212 32.251 40.0676 32.0068 38.9999 32.0068C37.9322 32.0068 36.8786 32.251 35.9198 32.7208C34.961 33.1907 34.1223 33.8736 33.4681 34.7174C32.8138 35.5611 32.3612 36.5434 32.145 37.589C31.9287 38.6346 31.9545 39.7158 32.2204 40.7499H28.6451ZM21.4999 44.2499H38.9999V47.7499H21.4999V44.2499ZM42.4999 44.2499H56.4999V47.7499H42.4999V44.2499ZM45.9999 51.2499H52.9999V54.7499H45.9999V51.2499ZM24.9999 51.2499H42.4999V54.7499H24.9999V51.2499ZM37.2499 19.7499H40.7499V24.9999H37.2499V19.7499ZM24.1511 26.6256L26.6256 24.1511L30.3374 27.8629L27.8629 30.3374L24.1511 26.6274V26.6256ZM51.3724 24.1511L53.8469 26.6256L50.1351 30.3374L47.6606 27.8629L51.3724 24.1511ZM58.2499 37.2499V40.7499H52.9999V37.2499H58.2499ZM24.9999 37.2499V40.7499H19.7499V37.2499H24.9999Z" fill="#FFAB2E"/>
</g>
<defs>
<clipPath id="clip0_1592_18361">
<rect width="42" height="42" fill="white" transform="translate(18 18)"/>
</clipPath>
</defs>
</svg>
