<svg width="79" height="79" viewBox="0 0 79 79" fill="none" xmlns="http://www.w3.org/2000/svg">
<rect width="79" height="79" rx="7.03323" fill="#FDE7E7"/>
<g clip-path="url(#clip0_1619_16450)">
<path d="M32.4671 27.1922C32.4671 25.3268 33.2081 23.5379 34.5271 22.2189C35.8461 20.8999 37.635 20.1589 39.5003 20.1589C41.3657 20.1589 43.1546 20.8999 44.4736 22.2189C45.7926 23.5379 46.5336 25.3268 46.5336 27.1922V36.4321C48.684 37.9294 50.3004 40.0739 51.1475 42.5536C51.9947 45.0332 52.0284 47.7184 51.2437 50.2185C50.459 52.7186 48.8969 54.903 46.7848 56.4538C44.6726 58.0047 42.1207 58.8409 39.5003 58.8409C36.88 58.8409 34.3281 58.0047 32.2159 56.4538C30.1038 54.903 28.5417 52.7186 27.757 50.2185C26.9723 47.7184 27.006 45.0332 27.8532 42.5536C28.7003 40.0739 30.3167 37.9294 32.4671 36.4321V27.1922ZM34.4786 39.3157C32.9422 40.3849 31.7871 41.9166 31.1815 43.6878C30.576 45.4591 30.5516 47.3773 31.1119 49.1634C31.6722 50.9494 32.7879 52.51 34.2967 53.618C35.8055 54.726 37.6285 55.3234 39.5003 55.3234C41.3722 55.3234 43.1952 54.726 44.704 53.618C46.2128 52.51 47.3285 50.9494 47.8888 49.1634C48.4491 47.3773 48.4247 45.4591 47.8192 43.6878C47.2136 41.9166 46.0585 40.3849 44.5221 39.3157L43.017 38.266V27.1922C43.017 26.2595 42.6465 25.365 41.987 24.7055C41.3275 24.046 40.433 23.6755 39.5003 23.6755C38.5677 23.6755 37.6732 24.046 37.0137 24.7055C36.3542 25.365 35.9837 26.2595 35.9837 27.1922V38.266L34.4786 39.3157ZM37.742 39.7219V27.1922H41.2587V39.7219C42.9123 40.1539 44.3522 41.1731 45.3094 42.5891C46.2667 44.0051 46.6758 45.721 46.4605 47.4166C46.2452 49.1122 45.4201 50.6714 44.1393 51.8031C42.8585 52.9349 41.2095 53.5618 39.5003 53.5668C37.7873 53.5685 36.1325 52.9449 34.8466 51.8131C33.5607 50.6813 32.732 49.1191 32.5162 47.4197C32.3004 45.7202 32.7122 44.0005 33.6744 42.5832C34.6366 41.1659 36.0829 40.1484 37.742 39.7219V39.7219ZM39.5003 50.0502C40.433 50.0502 41.3275 49.6797 41.987 49.0202C42.6465 48.3607 43.017 47.4662 43.017 46.5335C43.017 45.6009 42.6465 44.7064 41.987 44.0469C41.3275 43.3874 40.433 43.0169 39.5003 43.0169C38.5677 43.0169 37.6732 43.3874 37.0137 44.0469C36.3542 44.7064 35.9837 45.6009 35.9837 46.5335C35.9837 47.4662 36.3542 48.3607 37.0137 49.0202C37.6732 49.6797 38.5677 50.0502 39.5003 50.0502Z" fill="#F25F5F"/>
</g>
<defs>
<clipPath id="clip0_1619_16450">
<rect width="42.1994" height="42.1994" fill="white" transform="translate(18.4006 18.4006)"/>
</clipPath>
</defs>
</svg>
