<svg width="43" height="32" viewBox="0 0 43 32" fill="none" xmlns="http://www.w3.org/2000/svg">
<path fill-rule="evenodd" clip-rule="evenodd" d="M3.28556 25.9013C1.52334 23.6397 0.351026 20.896 0 17.9009H3.82536C4.12713 19.8545 4.88786 21.6563 5.99352 23.1934L3.28556 25.9013Z" fill="white"/>
<path fill-rule="evenodd" clip-rule="evenodd" d="M14.0253 31.9996C11.0215 31.632 8.27341 30.4373 6.01514 28.6509L8.71962 25.9463C10.2558 27.074 12.063 27.8541 14.0253 28.1708V31.9996V31.9996Z" fill="white"/>
<path fill-rule="evenodd" clip-rule="evenodd" d="M6.02829 8.76895C4.91958 10.2946 4.15234 12.0845 3.83884 14.0264H0.00927734C0.374501 11.043 1.55522 8.31174 3.3215 6.06201L6.02829 8.76895Z" fill="white"/>
<path fill-rule="evenodd" clip-rule="evenodd" d="M14.0254 3.83972C12.0834 4.15308 10.2935 4.92062 8.76768 6.02947L6.06104 3.32282C8.31076 1.55668 11.042 0.375966 14.0254 0.0107422V3.83972Z" fill="white"/>
<path fill-rule="evenodd" clip-rule="evenodd" d="M17.8997 0C20.895 0.351026 23.639 1.52363 25.9006 3.28614L23.1918 5.99511C21.6548 4.88945 19.8532 4.12872 17.8997 3.82695V0Z" fill="white"/>
<path d="M13.3979 31.7497V17.5538C21.7086 17.5538 30.0209 17.5131 38.3278 17.5131H38.3753V17.6132C38.3753 19.8328 36.8341 21.7098 34.7691 22.2276H20.559C20.2756 22.2276 20.0036 22.2777 19.7509 22.3694H18.2134V24.1771C18.1869 24.3191 18.1728 24.4655 18.1728 24.6149C18.1728 24.7644 18.1869 24.9107 18.2134 25.0527V32.0004H14.0131L13.3979 31.7497V31.7497ZM18.2134 12.7384C16.8587 12.7384 15.7158 12.276 14.7912 11.345C13.8602 10.3948 13.3979 9.25191 13.3979 7.92285C20.9273 7.92285 28.4566 7.92285 35.986 7.92285C36.6139 8.04324 37.1612 8.33212 37.5634 8.72515C38.1374 9.28581 38.3054 10.2428 38.3753 11.1293V12.7384C31.6546 12.7384 24.934 12.7384 18.2134 12.7384V12.7384ZM37.2929 27.0024L42.291 32.0004H35.0678L30.0697 27.0024H37.2929Z" fill="white"/>
<path fill-rule="evenodd" clip-rule="evenodd" d="M17.5212 19.9487H22.8468V22.2274H20.5594C19.4057 22.2274 18.4367 23.0574 18.2189 24.15H17.5212V19.9487Z" fill="white"/>
</svg>
