<svg width="297" height="308" viewBox="0 0 297 308" fill="none" xmlns="http://www.w3.org/2000/svg">
<path d="M142.437 114.367C129.605 114.367 119.962 110.988 113.507 104.23C107.053 97.4721 103.826 87.4492 103.826 74.1612C103.826 66.0366 105.383 59.0509 108.496 53.2042C111.609 47.2816 116.127 42.7637 122.05 39.6505C127.972 36.5374 134.996 34.9808 143.121 34.9808C152.992 34.9808 162.597 36.955 171.936 40.9034C171.177 48.1928 170.114 55.4822 168.747 62.7716L160.091 63.341L152.916 52.8626C149.119 51.4958 144.411 50.8124 138.792 50.8124C136.135 50.8124 132.946 51.0782 129.225 51.6097C127.858 53.8876 126.795 56.9249 126.036 60.7214C125.277 64.518 124.897 68.6183 124.897 73.0223C124.897 81.7543 126.643 88.2844 130.136 92.6125C133.629 96.8646 139.058 99.0287 146.424 99.1046C148.246 99.1046 150.562 98.9527 153.371 98.649L153.371 90.3346C153.371 88.8159 153.257 87.8288 153.03 87.3732C152.802 86.9177 152.156 86.3861 151.093 85.7787L146.765 83.6147L147.221 75.8697L149.84 75.4141C150.676 75.2622 153.637 74.8066 158.724 74.0473C163.812 73.2121 168.064 72.7185 171.481 72.5667C172.24 74.0094 172.81 75.6419 173.189 77.4642L173.189 107.305C168.785 109.507 163.888 111.254 158.497 112.544C153.105 113.759 147.752 114.367 142.437 114.367ZM181.384 101.383L189.698 99.1046L189.698 55.71C189.698 53.7358 189.546 52.4449 189.242 51.8375C188.939 51.1541 188.141 50.5467 186.851 50.0151L180.928 46.7121L181.611 37.4865C187.382 36.5753 192.849 35.9299 198.012 35.5503C203.176 35.0947 208.719 34.8669 214.641 34.8669C222.842 34.8669 229.41 35.7401 234.346 37.4865C239.357 39.2329 243.002 41.9664 245.28 45.6871C247.633 49.4077 248.81 54.3432 248.81 60.4936C248.81 68.4664 245.925 74.7307 240.154 79.2866C234.459 83.8424 226.639 86.1204 216.692 86.1204L210.427 85.8926L210.427 94.5487C210.427 96.3711 210.541 97.548 210.769 98.0795C211.073 98.611 211.756 99.1426 212.819 99.6741L219.767 103.774L219.311 113L181.953 113L181.384 101.383ZM217.717 73.4779C221.817 73.4779 224.816 73.0602 226.714 72.225C227.55 68.5044 227.967 64.5939 227.967 60.4936C227.967 56.0137 227.094 52.8246 225.348 50.9263C223.677 49.028 220.944 48.0789 217.147 48.0789C215.856 48.0789 213.616 48.2308 210.427 48.5345L210.427 72.7945C212.477 73.2501 214.907 73.4779 217.717 73.4779Z" fill="#EDB900"/>
<path d="M16.0383 17.3776C19.2459 10.9624 25.2947 11.9326 27.9182 13.2196L44.4016 28.2178L99.9403 77.5196L160.528 130.979L221.116 183.994L286.604 241.611C285.861 244.68 275.199 257.441 238.49 283.934C192.604 317.049 130.531 292.843 79.7444 265.074C28.9577 237.305 12.6228 155.036 22.7207 118.505C32.8187 81.9745 59.8456 64.4516 60.1425 58.9572C60.4372 53.5067 56.6402 50.5405 47.302 43.2454L47.0746 43.0677C37.5707 35.6428 27.9182 35.7913 19.4538 35.1973C10.9893 34.6033 12.0288 25.3965 16.0383 17.3776Z" fill="#E9ECBD"/>
<path d="M108.116 97.1581C88.1885 93.2096 62.0328 114.556 52.3633 137.052C40.5942 164.426 54.7154 190.049 59.3326 198.427C77.4108 231.232 112.015 244.215 129.024 250.597C152.004 259.218 188.632 272.96 219.624 256.734C221.869 255.558 251.156 240.922 250.984 219.909C250.87 205.827 231.16 191.916 191.746 164.671C158.873 141.945 153.804 142.259 139.477 127.846C121.15 109.407 120.146 99.5418 108.116 97.1581Z" fill="#ECB800"/>
<path d="M66.2941 57.2414C52.105 53.254 26.0559 80.5574 14.0254 106.341C0.820956 134.639 4.80194 160.464 7.05515 173.855C9.83142 190.348 20.6264 235.743 66.2941 268.987C94.5704 289.57 123.391 296.162 139.469 299.675C157.093 303.525 181.794 308.923 212.647 302.744C217.176 301.837 248.383 295.225 275.369 272.056C285.144 263.664 300.509 250.473 296.277 238.299C294.193 232.307 288.355 225.904 282.338 226.025C275.307 226.166 270.349 235.066 268.4 238.299C254.437 261.462 217.747 287.647 191.739 293.537C161.912 300.293 133.464 283.223 104.625 265.919C87.2641 255.501 58.9144 238.017 41.9017 204.543C36.1598 193.244 22.1885 164.694 31.4475 130.891C37.258 109.678 53.6766 81.0722 69.778 78.7231C71.1461 78.523 75.0702 78.1395 76.7483 75.6549C80.0169 70.8087 73.8064 59.3529 66.2941 57.2414" fill="#88C13C"/>
<path d="M171.259 244.95C181.65 257.562 203.762 259.039 220.646 248.249C237.53 237.459 242.794 218.489 232.402 205.877C222.011 193.264 199.899 191.787 183.014 202.576C166.131 213.368 160.867 232.338 171.259 244.95" fill="#FFC700"/>
<path d="M113.416 205.597C124.758 219.364 148.893 220.975 167.323 209.199C185.752 197.422 191.497 176.715 180.154 162.947C168.812 149.181 144.677 147.569 126.247 159.347C107.818 171.123 102.073 191.831 113.416 205.597" fill="#FFC700"/>
<path d="M63.2529 162.129C73.6445 174.741 95.7566 176.22 112.641 165.429C129.526 154.638 134.788 135.668 124.396 123.056C114.005 110.444 91.8927 108.967 75.0082 119.758C58.1236 130.547 52.8613 149.517 63.2529 162.129" fill="#FFC700"/>
<path d="M26.8702 96.3859C25.9416 99.3 28.1969 101.767 30.8093 104.625C31.2022 105.056 31.6027 105.494 31.9981 105.941C35.58 104.791 38.4934 103.164 39.6823 100.576C41.1237 97.4442 39.4961 94.1886 37.3862 90.7713C37.0928 90.8544 36.8071 90.9353 36.5239 91.0162C30.623 92.7013 27.7453 93.6337 26.8702 96.3859V96.3859ZM22.0357 110.415C15.5685 111.534 9.45838 112.59 8.62925 115.549C7.89195 118.184 11.8259 121.105 15.9894 124.196C17.1375 125.048 18.3161 125.922 19.4565 126.832C19.4667 126.83 19.4743 126.825 19.4845 126.821C25.9442 123.862 32.6206 120.804 33.5212 115.562C33.9753 112.909 32.7839 110.707 31.0669 108.57C28.1637 109.354 25.0257 109.898 22.0357 110.415V110.415ZM10.188 136.711C10.1931 139.339 13.7724 141.101 17.9207 143.141C18.8774 143.613 19.8596 144.096 20.829 144.608C22.8572 142.764 24.24 140.732 24.3828 138.436C24.5895 135.143 22.1378 132.21 19.033 129.546C14.2903 131.745 10.1804 133.911 10.188 136.711V136.711ZM12.0198 153.069C6.93017 155.876 2.12372 158.528 2.57018 161.098C2.98602 163.506 7.89961 164.689 13.0989 165.942C14.8822 166.371 16.7242 166.815 18.5202 167.333C23.2271 163.045 27.9035 158.61 26.9366 153.874C26.3677 151.086 24.0257 149.108 21.153 147.421C18.4462 149.524 15.1373 151.348 12.0198 153.069ZM12.6601 180.124C13.5786 182.65 17.2752 183.409 21.5561 184.287C23.097 184.603 24.6992 184.932 26.2682 185.365C28.253 182.062 29.3066 178.851 28.0183 175.961C26.6891 172.984 23.2169 171.207 19.2167 169.911C15.1654 173.607 11.5606 177.093 12.6601 180.124V180.124ZM23.3879 193.533C19.4233 198.617 15.6833 203.419 17.6477 206.734C19.3085 209.535 24.2502 209.97 29.7607 210.186C29.9699 209.752 30.1842 209.315 30.4011 208.877C33.289 202.992 36.2765 196.907 33.1691 192.184C31.8476 190.17 29.7888 188.949 27.4239 188.095C26.1763 189.954 24.7553 191.779 23.3879 193.533V193.533ZM30.2302 223.568C32.5339 226.416 37.4373 226.337 42.6264 226.255C43.4759 226.242 44.3433 226.228 45.2184 226.228C45.7618 226.228 46.3077 226.233 46.8537 226.247C48.3921 222.707 49.1472 219.353 47.3741 216.754C44.777 212.944 37.9909 212.708 31.4267 212.48C31.4216 212.48 31.419 212.48 31.4139 212.48C29.373 216.848 28.0183 220.834 30.2302 223.568V223.568ZM43.8918 244.073C45.9812 246.478 51.2239 245.794 56.8799 244.945C58.4233 239.949 59.6275 234.962 56.5941 231.608C54.7063 229.52 51.7826 228.791 48.5247 228.557C47.9175 229.825 47.2568 231.08 46.6164 232.298C44.101 237.073 41.7258 241.584 43.8918 244.073V244.073ZM58.4922 259.15C61.0128 261.42 65.6406 260.35 71.0032 259.109C72.4778 258.769 73.9983 258.417 75.5367 258.123C76.5444 254.14 76.8276 250.469 74.404 248.194C71.2303 245.214 65.0386 245.987 58.8953 246.906C58.8825 246.949 58.8672 246.992 58.8545 247.033C57.2804 252.016 55.7956 256.722 58.4922 259.15V259.15ZM76.251 277.024C79.2079 279.788 84.9889 278.332 91.6806 276.647C92.7725 276.372 93.8823 276.092 95.0099 275.823C94.5354 270.02 93.793 264.216 88.8207 261.307C85.5322 259.382 81.6493 259.392 77.6312 260.029C77.32 261.126 76.973 262.231 76.6312 263.329C74.8836 268.92 73.233 274.202 76.251 277.024V277.024ZM102.829 290.215C107.064 292.364 112.259 289.974 118.269 287.206C120.098 286.364 121.991 285.493 123.943 284.712C122.213 282.13 119.945 279.875 116.787 278.316C110.845 275.386 104.102 276.112 97.6861 277.516C98.1275 283.023 98.6989 288.12 102.829 290.215V290.215ZM131.285 295.2C133.099 300.538 134.666 305.148 138.402 305.708C142.367 306.297 146.112 302.048 150.081 297.545C150.812 296.715 151.559 295.869 152.325 295.03C149.581 290.954 146.623 286.857 140.818 285.094C136.202 283.693 131.771 284.37 127.466 285.824C129.152 288.925 130.275 292.226 131.285 295.2V295.2ZM164.14 302.123C168.54 302.421 171.579 299.274 175.101 295.631C175.959 294.744 176.842 293.831 177.776 292.937C174.959 290.322 171.855 288.358 168.069 288.28C163.105 288.173 159.104 291.362 155.411 295.236C157.855 298.854 160.117 301.853 164.14 302.123V302.123ZM184.468 296.535C188.225 300.778 191.477 304.441 195.279 303.92C199.013 303.407 200.819 299.198 202.909 294.324C203.285 293.45 203.667 292.556 204.071 291.664C200.491 289.59 196.659 287.756 191.562 288.273C187.222 288.712 184.012 290.617 181.234 292.996C182.362 294.158 183.432 295.366 184.468 296.535V296.535ZM218.981 294.12C223.859 293.001 226.242 289.114 228.633 284.886C224.317 282.684 219.941 281.14 215.651 282.418C211.506 283.653 209.109 286.997 207.209 290.83C211.129 293.162 214.544 295.138 218.981 294.12V294.12ZM234.29 285.348C239.435 288.248 244.296 290.985 248.134 289.292C251.529 287.795 252.168 283.729 252.909 279.023C252.984 278.545 253.06 278.061 253.14 277.574C249.51 275.75 245.567 274.343 241.418 275.297C236.665 276.39 234.251 280.006 231.944 284.038C232.739 284.473 233.521 284.914 234.29 285.348V285.348ZM257.816 277.468C261.183 279.333 264.091 280.942 265.748 279.982C268.318 278.493 266.493 271.689 264.881 265.687C264.654 264.841 264.425 263.991 264.204 263.144C263.511 263.458 262.844 263.852 262.213 264.341C258.088 267.538 256.714 272.048 255.904 276.421C256.561 276.774 257.198 277.126 257.816 277.468V277.468ZM276.426 260.291C280.959 260.838 283.805 261.083 285.165 259.308C287.295 256.521 285.487 250.169 280.413 247.002C278.147 245.587 275.456 244.978 272.985 244.978C270.91 244.978 268.991 245.408 267.613 246.15C263.915 248.143 264.591 254.006 266.06 260.186C269.558 259.464 273.243 259.907 276.426 260.291V260.291ZM136.251 149.063C136.193 149.122 136.135 149.178 136.076 149.234C141.021 147.551 145.632 146.266 149.557 145.448L149.84 145.388C150.646 145.221 152.138 144.914 153.645 144.44C152.547 142.934 151.556 141.499 150.595 140.103C150.049 139.315 149.512 138.535 148.971 137.764C145.625 139.856 141.48 143.927 136.251 149.063V149.063ZM132.204 153.022C127.599 157.488 122.17 162.581 115.736 167.885C102.39 178.888 92.3949 187.13 82.3637 190.01C78.8532 196.17 76.098 203.857 78.0904 212.383C82.032 229.226 102.516 240.594 120.042 241.853C128.157 242.437 136.451 240.953 144.447 237.576C151.242 224.587 168.728 208.332 183.619 195.133C184.532 192.99 185.364 190.933 186.143 189.004C188.136 184.071 189.784 179.99 191.637 177.197C185.751 173.847 179.355 169.785 171.277 162.965C163.345 156.268 158.606 150.964 155.08 146.361C153.326 146.963 151.561 147.327 150.418 147.563L150.141 147.619C145.067 148.677 138.821 150.528 132.204 153.022V153.022ZM88.0528 181.516C86.8946 183.096 85.5501 184.929 84.2158 186.983C92.9332 183.624 102.097 176.072 114.003 166.255C118.583 162.479 122.657 158.804 126.285 155.387C111.401 161.683 95.839 170.898 88.0528 181.516V181.516ZM181.249 200.429C168.838 211.597 154.996 224.898 148.23 235.828C153.406 233.222 158.423 229.816 163.148 225.659C171.742 218.094 177.244 208.909 181.249 200.429ZM144.918 250.983C152.339 265.206 183.251 265.586 189.374 265.512C216.414 265.206 248.294 251.819 250.485 234.361C251.81 223.791 242.094 215.001 225.996 200.44C215.599 191.035 208.216 186.41 201.027 182.388C199.608 184.094 197.784 185.808 196.026 187.359L195.865 187.502C194.533 188.678 193.127 189.914 191.664 191.199C189.812 192.828 187.842 194.559 185.8 196.368C181.555 206.267 175.561 217.888 164.939 227.237C159.095 232.38 152.806 236.419 146.305 239.263C144.021 243.864 143.31 247.902 144.918 250.983V250.983ZM200.933 176.504C200.498 175.748 198.932 175.361 197.959 175.328C197.926 175.327 197.894 175.327 197.861 175.327C196.934 175.327 196.074 175.772 195.248 176.577C196.276 177.147 197.292 177.702 198.305 178.255C198.956 178.611 199.608 178.968 200.264 179.328C201.24 177.769 201.183 176.937 200.933 176.504ZM188.531 189.752C188.316 190.285 188.096 190.827 187.873 191.379C188.549 190.783 189.216 190.197 189.874 189.619C191.335 188.335 192.739 187.101 194.069 185.926L194.232 185.782C196.339 183.923 197.829 182.414 198.868 181.192C198.236 180.845 197.603 180.499 196.968 180.152C195.915 179.576 194.857 178.998 193.786 178.404C192.055 181.03 190.405 185.113 188.531 189.752V189.752ZM158.24 141.395C158.631 139.748 156.658 137.142 154.472 136.416C154.075 136.286 153.663 136.221 153.232 136.221C152.583 136.221 151.895 136.367 151.163 136.643C151.7 137.409 152.23 138.176 152.761 138.946C153.796 140.447 154.841 141.959 155.989 143.527C157.142 142.957 158.038 142.251 158.24 141.395V141.395ZM288.477 244.756C117.652 95.4288 32.5084 20.4388 28.1943 15.5139L28.1458 15.4577C26.7274 13.8198 25.3701 13.3592 24.4772 13.2604C21.0943 12.8874 16.9308 16.7563 15.1654 20.6073C13.9587 23.236 12.7749 28.5878 15.9767 31.9759C18.135 34.2586 21.3163 34.4181 25.3446 34.6226C27.1942 34.7169 29.2888 34.8225 31.4496 35.1618C43.3381 37.0356 53.8184 45.3598 58.5228 52.3C61.4108 56.5577 62.4057 60.4985 61.324 63.3968C59.7321 67.6701 54.0812 68.8362 48.6191 69.9618C43.1034 71.1009 37.399 72.2782 35.4371 76.4257C33.6513 80.198 36.0264 84.0243 38.5878 88.0684C43.5014 86.6036 49.3054 84.5702 55.8339 80.4452C60.7449 77.3424 63.6405 74.5857 65.9672 72.3726C68.9189 69.5619 71.0619 67.5353 74.8989 67.7375C80.6493 68.0453 83.6546 72.8062 87.813 79.3937C90.1728 83.1346 92.849 87.3719 96.6248 91.8475C103.123 99.5539 108.317 102.573 115.501 106.752C119.693 109.19 124.443 111.954 130.372 116.202C140.88 123.733 145.846 129.339 149.797 134.734C151.749 133.909 153.566 133.732 155.365 134.327C158.427 135.342 161.433 138.85 160.721 141.851C160.354 143.399 159.023 144.543 157.388 145.392C160.83 149.861 165.364 154.881 173.031 161.354C180.971 168.056 187.268 172.054 193.07 175.354C194.491 173.836 196.096 173.028 198.058 173.098C198.45 173.112 201.924 173.292 203.194 175.494C204.026 176.938 203.56 178.686 202.406 180.516C209.538 184.513 217.287 189.361 227.812 198.882C244.43 213.916 254.461 222.989 253.004 234.606C251.88 243.565 243.83 252.022 230.339 258.421C218.357 264.104 203.055 267.589 189.407 267.744C182.998 267.812 150.692 267.393 142.614 251.915C140.972 248.767 141.302 244.901 143.047 240.582C135.422 243.422 127.563 244.634 119.836 244.079C110.243 243.389 100.138 239.926 92.1118 234.579C83.3892 228.768 77.5292 221.045 75.6081 212.833C73.6463 204.448 75.9143 196.923 79.139 190.747C76.672 191.164 74.1795 191.244 71.6155 190.945C56.1298 189.149 46.4761 175.047 43.2132 166.999C38.6848 155.828 40.2563 142.766 47.6395 130.213C54.5047 118.548 65.5029 108.835 77.8174 103.564C82.8994 101.387 88.3972 99.9044 94.1782 99.1495C94.8747 99.0596 95.5201 99.4977 95.6094 100.116C95.6962 100.722 95.2114 101.27 94.5252 101.36C89.0095 102.084 83.7668 103.499 78.9247 105.571C55.5788 115.567 36.1515 142.943 45.5985 166.248C49.5809 176.067 59.5229 187.291 71.9472 188.732C74.8759 189.072 77.7307 188.85 80.6008 188.134C82.3994 185.111 84.3306 182.478 85.9226 180.305C94.9232 168.031 113.907 157.595 130.668 151.191C131.965 149.931 133.196 148.722 134.363 147.574C139.776 142.258 143.977 138.131 147.62 135.877C143.723 130.55 139.006 125.268 128.772 117.935C122.94 113.756 118.246 111.026 114.106 108.617C106.98 104.474 101.355 101.201 94.589 93.1798C90.7137 88.5852 87.9967 84.2782 85.596 80.4789C81.6902 74.2891 79.1084 70.2 74.7458 69.9663C72.2048 69.8315 70.8655 70.9976 67.8295 73.8892C65.5513 76.055 62.4312 79.023 57.311 82.2583C50.7315 86.4171 44.7081 88.5762 39.8277 90.0546C42.06 93.7235 43.8305 97.5026 42.0319 101.416C40.588 104.555 37.4066 106.487 33.5492 107.817C35.2968 110.132 36.5673 112.747 36.0265 115.895C34.9754 122.026 27.8958 125.475 21.3954 128.461C24.6482 131.357 27.1585 134.628 26.9136 138.558C26.7401 141.357 25.2222 143.736 23.0078 145.837C26.1125 147.729 28.7352 150.074 29.4316 153.479C30.5593 159.002 25.8268 163.848 21.1326 168.163C25.2579 169.615 28.8244 171.667 30.3781 175.145C31.9599 178.692 30.8042 182.449 28.6586 186.131C31.3348 187.132 33.7483 188.608 35.3632 191.065C39.1083 196.76 35.7178 203.668 32.7278 209.762C32.641 209.936 32.5568 210.109 32.4701 210.283C39.4068 210.532 46.3894 210.971 49.5478 215.605C51.7163 218.788 51.0351 222.591 49.484 226.399C52.9995 226.737 56.2905 227.689 58.5764 230.217C62.1276 234.141 61.125 239.478 59.6275 244.535C66.0463 243.605 72.4013 243.052 76.2536 246.667C79.2563 249.486 79.2002 253.446 78.2359 257.684C82.379 257.141 86.5476 257.295 90.2239 259.448C96.0533 262.859 96.9973 269.272 97.505 275.254C104.268 273.802 111.427 273.114 118.024 276.369C121.734 278.199 124.338 280.863 126.282 283.84C131.086 282.187 136.226 281.339 141.644 282.984C147.946 284.897 151.282 289.16 154.045 293.211C157.931 289.263 162.425 285.937 168.128 286.049C172.731 286.143 176.381 288.431 179.538 291.339C182.593 288.739 186.262 286.563 191.273 286.055C197.019 285.475 201.324 287.435 205.072 289.575C207.152 285.494 209.939 281.762 214.839 280.303C220.007 278.763 225.066 280.512 229.765 282.887C232.23 278.594 235.046 274.455 240.778 273.137C245.446 272.064 249.763 273.419 253.561 275.229C254.462 270.733 256.058 266.136 260.538 262.665C261.522 261.903 262.562 261.329 263.638 260.903C261.891 253.69 261.155 247.013 266.291 244.247C270.603 241.922 277.305 242.325 281.879 245.181C287.736 248.838 290.405 256.453 287.267 260.555C284.958 263.573 280.647 263.053 276.082 262.502C273.003 262.132 269.652 261.728 266.605 262.37C266.848 263.312 267.099 264.25 267.348 265.174C269.411 272.86 271.193 279.499 267.142 281.847C264.121 283.597 260.574 281.632 256.466 279.357C256.147 279.181 255.824 279.003 255.499 278.824C254.661 284.117 254.007 289.197 249.269 291.288C244.141 293.55 238.693 290.479 232.923 287.228C232.222 286.832 231.517 286.435 230.809 286.045C228.282 290.504 225.507 294.929 219.619 296.28C214.287 297.504 210.164 295.27 206.224 292.937C205.903 293.659 205.591 294.387 205.28 295.113C203.008 300.409 200.862 305.413 195.669 306.125C190.385 306.846 186.541 302.506 182.469 297.908C181.484 296.796 180.493 295.676 179.47 294.611C178.636 295.418 177.83 296.252 177.031 297.078C173.224 301.015 169.631 304.735 163.947 304.349C158.975 304.014 156.267 300.796 153.71 297.08C153.164 297.688 152.622 298.302 152.083 298.915C147.972 303.577 144.072 308.001 139.199 308C138.799 308 138.392 307.97 137.977 307.909C132.688 307.116 130.913 301.89 128.857 295.839C127.831 292.82 126.742 289.615 125.137 286.684C123.216 287.447 121.32 288.319 119.443 289.185C113.049 292.13 107.008 294.911 101.564 292.15C96.4258 289.543 95.663 283.831 95.191 278.093C94.242 278.323 93.3032 278.56 92.3771 278.793C84.8894 280.679 78.4195 282.308 74.4065 278.554C70.4139 274.82 72.3324 268.677 74.1871 262.737C74.4142 262.008 74.6438 261.277 74.8606 260.548C73.7891 260.774 72.7151 261.022 71.6487 261.269C65.7759 262.627 60.2321 263.91 56.6809 260.711C53.1577 257.539 54.4767 252.608 56.1349 247.319C50.1549 248.189 44.6954 248.669 41.8789 245.431C38.7792 241.869 41.4681 236.764 44.3153 231.359C44.8229 230.395 45.3357 229.426 45.8128 228.461C44.7719 228.454 43.7183 228.47 42.6697 228.486C37.0495 228.577 31.243 228.67 28.1662 224.863C25.3625 221.396 26.6024 217.059 28.725 212.378C22.8292 212.111 17.589 211.456 15.4001 207.767C12.7316 203.263 16.8925 197.923 21.2959 192.269C22.5689 190.638 23.8547 188.99 24.9824 187.353C23.6762 187.014 22.3215 186.736 20.9796 186.462C16.1578 185.471 11.6039 184.537 10.2467 180.803C8.79509 176.801 12.3183 173.04 16.5558 169.128C15.1807 168.757 13.7852 168.421 12.4305 168.094C6.41482 166.645 0.730779 165.276 0.0623674 161.435C-0.634107 157.415 4.60604 154.524 10.6728 151.178C13.4689 149.634 16.4308 148.001 18.885 146.188C18.1579 145.817 17.4181 145.453 16.6834 145.091C12.0427 142.808 7.66235 140.652 7.65215 136.713C7.64449 132.844 11.9509 130.35 17.0584 127.942C16.1629 127.245 15.2496 126.567 14.3567 125.904C9.57319 122.352 5.05248 118.997 6.16735 115.016C7.38427 110.673 14.2648 109.485 21.5485 108.224C24.1532 107.773 26.8804 107.301 29.4214 106.669C29.2275 106.454 29.0311 106.24 28.8346 106.025C26.0385 102.967 23.148 99.8033 24.4287 95.7838C25.712 91.7554 29.9189 90.5556 35.7433 88.893C35.8734 88.8571 36.0035 88.8189 36.1361 88.7807C33.4727 84.559 30.9062 80.1936 33.0977 75.5652C35.5596 70.3662 42.1901 68.998 48.0425 67.7892C53.0429 66.7579 57.7677 65.7829 58.9182 62.7003C59.7525 60.458 58.8162 57.0857 56.3467 53.4437C51.928 46.9236 42.111 39.1116 31.0032 37.3591C28.9903 37.0423 27.0641 36.9457 25.1992 36.8513C20.926 36.6357 16.89 36.4312 14.0301 33.4026C10.5579 29.7291 10.9177 23.91 12.8132 19.7715C14.6347 15.7992 19.5687 10.4654 24.7936 11.0451C26.1661 11.1978 28.2121 11.8517 30.1613 14.1029L30.1995 14.1501C34.4473 18.9986 119.517 93.9145 290.262 243.171C290.759 243.605 290.764 244.315 290.271 244.752C289.778 245.19 288.974 245.19 288.477 244.756" fill="#100F0D"/>
</svg>
