<svg width="215" height="269" viewBox="0 0 215 269" fill="none" xmlns="http://www.w3.org/2000/svg">
<path d="M16.9854 4.36184C19.1772 -0.021843 23.3106 0.641122 25.1033 1.52057L36.367 11.7693L74.3183 45.4588L115.72 81.9895L157.121 118.216L201.871 157.588C201.364 159.685 194.078 168.405 168.994 186.508C137.638 209.137 95.222 192.596 60.5178 173.621C25.8136 154.645 14.6515 98.4283 21.5517 73.4657C28.452 48.503 46.9203 36.529 47.1232 32.7745C47.3246 29.05 44.7299 27.0231 38.3489 22.0381L38.1935 21.9168C31.6992 16.843 25.1033 16.9445 19.3193 16.5386C13.5353 16.1327 14.2456 9.84145 16.9854 4.36184Z" fill="#E9ECBD"/>
<path d="M79.905 58.8696C66.2881 56.1715 48.4151 70.7581 41.8076 86.1304C33.7654 104.836 43.4149 122.345 46.5699 128.07C58.9234 150.486 82.5698 159.359 94.1921 163.719C109.895 169.61 134.925 179.001 156.102 167.913C157.636 167.109 177.649 157.108 177.532 142.749C177.453 133.127 163.985 123.621 137.052 105.003C114.589 89.4737 111.125 89.6883 101.335 79.8399C88.8117 67.2398 88.1256 60.4984 79.905 58.8696Z" fill="#ECB800"/>
<path d="M51.3268 31.6007C41.631 28.8759 23.8308 47.5332 15.61 65.1521C6.58698 84.4888 9.30732 102.136 10.847 111.287C12.7441 122.557 20.1207 153.577 51.3269 176.293C70.649 190.358 90.3431 194.863 101.33 197.263C113.373 199.894 130.251 203.583 151.334 199.36C154.429 198.74 175.754 194.222 194.194 178.39C200.874 172.656 211.373 163.642 208.481 155.323C207.058 151.228 203.068 146.853 198.957 146.936C194.152 147.032 190.764 153.114 189.432 155.323C179.891 171.151 154.819 189.044 137.047 193.069C116.666 197.685 97.2264 186.021 77.5193 174.196C65.6563 167.078 46.2841 155.13 34.6588 132.257C30.7352 124.535 21.1881 105.026 27.5151 81.9278C31.4856 67.4324 42.7049 47.885 53.7076 46.2798C54.6424 46.143 57.3239 45.881 58.4706 44.1832C60.7041 40.8716 56.4602 33.0435 51.3268 31.6007Z" fill="#88C13C"/>
<path d="M123.052 159.863C130.153 168.481 145.263 169.491 156.8 162.117C168.338 154.744 171.935 141.781 164.834 133.163C157.733 124.544 142.623 123.535 131.085 130.907C119.548 138.282 115.951 151.245 123.052 159.863Z" fill="#FFC700"/>
<path d="M83.527 132.982C91.2774 142.39 107.769 143.491 120.363 135.444C132.956 127.396 136.882 113.246 129.131 103.839C121.38 94.4319 104.888 93.3299 92.2949 101.378C79.7014 109.426 75.7755 123.576 83.527 132.982Z" fill="#FFC700"/>
<path d="M49.2484 103.266C56.3493 111.884 71.4592 112.895 82.9969 105.521C94.5347 98.1476 98.1306 85.1845 91.0297 76.5663C83.9288 67.9481 68.8189 66.9389 57.2811 74.3126C45.7434 81.685 42.1475 94.6481 49.2484 103.266Z" fill="#FFC700"/>
<path d="M24.3872 58.3459C23.7526 60.3372 25.2937 62.0229 27.0789 63.9758C27.3473 64.2706 27.621 64.5699 27.8912 64.8755C30.3389 64.0894 32.3297 62.9779 33.1421 61.2092C34.1271 59.069 33.0148 56.8444 31.5731 54.5092C31.3726 54.566 31.1774 54.6213 30.9839 54.6766C26.9516 55.8281 24.9852 56.4652 24.3872 58.3459ZM21.0836 67.9322C16.6644 68.6968 12.4891 69.4184 11.9226 71.4403C11.4187 73.2412 14.1069 75.2371 16.952 77.3496C17.7365 77.9315 18.5419 78.5287 19.3212 79.1505C19.3281 79.149 19.3334 79.1459 19.3403 79.1428C23.7544 77.1209 28.3166 75.0313 28.932 71.4495C29.2423 69.6364 28.4282 68.1318 27.2549 66.6717C25.2711 67.2076 23.1268 67.5791 21.0836 67.9322ZM12.9877 85.9011C12.9912 87.6974 15.4371 88.9011 18.2717 90.2951C18.9254 90.6175 19.5966 90.9476 20.2591 91.2976C21.645 90.0372 22.5899 88.6493 22.6875 87.0802C22.8287 84.8295 21.1534 82.826 19.0318 81.0051C15.7909 82.5082 12.9825 83.9882 12.9877 85.9011ZM14.2394 97.0792C10.7615 98.9975 7.47712 100.81 7.78221 102.566C8.06637 104.211 11.424 105.02 14.9768 105.876C16.1954 106.169 17.4541 106.472 18.6814 106.826C21.8978 103.896 25.0933 100.866 24.4325 97.6296C24.0438 95.7239 22.4434 94.3728 20.4805 93.2198C18.6308 94.6568 16.3697 95.9035 14.2394 97.0792ZM14.677 115.567C15.3046 117.293 17.8306 117.811 20.7559 118.412C21.8089 118.627 22.9037 118.852 23.9758 119.148C25.3321 116.891 26.0521 114.697 25.1717 112.722C24.2634 110.688 21.8908 109.474 19.1573 108.588C16.3889 111.113 13.9256 113.495 14.677 115.567ZM22.0076 124.729C19.2985 128.203 16.7428 131.485 18.0852 133.75C19.22 135.664 22.5968 135.962 26.3624 136.109C26.5053 135.812 26.6518 135.514 26.8 135.214C28.7734 131.193 30.8148 127.035 28.6914 123.808C27.7884 122.432 26.3816 121.597 24.7655 121.014C23.913 122.284 22.942 123.531 22.0076 124.729ZM26.6831 145.253C28.2574 147.199 31.608 147.146 35.1539 147.089C35.7344 147.08 36.3271 147.071 36.9251 147.071C37.2964 147.071 37.6695 147.074 38.0425 147.084C39.0937 144.665 39.6098 142.373 38.3982 140.597C36.6235 137.994 31.9863 137.832 27.5008 137.677C27.4973 137.677 27.4955 137.677 27.492 137.677C26.0974 140.662 25.1717 143.385 26.6831 145.253ZM36.0186 159.265C37.4463 160.909 41.0288 160.441 44.8937 159.861C45.9484 156.447 46.7713 153.039 44.6985 150.747C43.4084 149.32 41.4106 148.822 39.1844 148.663C38.7695 149.529 38.318 150.386 37.8804 151.219C36.1615 154.482 34.5385 157.564 36.0186 159.265ZM45.9955 169.568C47.7179 171.119 50.8802 170.388 54.5447 169.54C55.5523 169.307 56.5913 169.067 57.6425 168.866C58.3312 166.144 58.5247 163.636 56.8685 162.081C54.6998 160.045 50.4688 160.573 46.2709 161.201C46.2622 161.23 46.2518 161.259 46.2431 161.288C45.1674 164.693 44.1528 167.909 45.9955 169.568ZM58.1307 181.782C60.1512 183.67 64.1015 182.675 68.6742 181.524C69.4203 181.336 70.1787 181.144 70.9492 180.961C70.625 176.995 70.1176 173.03 66.7199 171.042C64.4728 169.726 61.8195 169.733 59.0738 170.168C58.8611 170.918 58.624 171.673 58.3904 172.423C57.1963 176.244 56.0683 179.853 58.1307 181.782ZM76.2924 190.795C79.1863 192.264 82.7357 190.631 86.8429 188.74C88.0929 188.164 89.3864 187.569 90.72 187.035C89.5381 185.271 87.9883 183.73 85.8301 182.665C81.7699 180.662 77.1623 181.159 72.7779 182.118C73.0795 185.881 73.47 189.364 76.2924 190.795ZM95.7373 194.202C96.9764 197.85 98.0472 201 100.6 201.382C103.31 201.785 105.869 198.881 108.581 195.805C109.081 195.237 109.591 194.659 110.115 194.086C108.24 191.3 106.218 188.501 102.251 187.296C99.0968 186.338 96.0692 186.801 93.1276 187.795C94.2799 189.914 95.0469 192.17 95.7373 194.202ZM118.188 198.933C121.195 199.136 123.271 196.986 125.678 194.496C126.264 193.89 126.868 193.266 127.506 192.656C125.581 190.869 123.46 189.527 120.873 189.473C117.481 189.4 114.747 191.579 112.223 194.227C113.893 196.699 115.439 198.748 118.188 198.933ZM132.078 195.114C134.646 198.014 136.869 200.516 139.466 200.16C142.018 199.81 143.252 196.934 144.68 193.603C144.937 193.006 145.198 192.395 145.474 191.786C143.028 190.369 140.409 189.115 136.927 189.468C133.961 189.769 131.767 191.07 129.869 192.696C130.639 193.49 131.37 194.315 132.078 195.114ZM155.662 193.464C158.996 192.699 160.625 190.043 162.258 187.154C159.309 185.649 156.318 184.594 153.387 185.468C150.554 186.311 148.917 188.596 147.619 191.216C150.297 192.809 152.631 194.16 155.662 193.464ZM166.123 187.47C169.64 189.451 172.961 191.321 175.584 190.165C177.904 189.142 178.34 186.363 178.846 183.147C178.898 182.821 178.95 182.49 179.005 182.158C176.524 180.911 173.83 179.95 170.994 180.602C167.747 181.348 166.097 183.819 164.521 186.575C165.064 186.872 165.598 187.173 166.123 187.47ZM182.2 182.085C184.501 183.36 186.487 184.459 187.62 183.803C189.376 182.785 188.129 178.136 187.027 174.035C186.872 173.457 186.716 172.876 186.565 172.297C186.091 172.511 185.635 172.781 185.204 173.115C182.386 175.299 181.447 178.381 180.893 181.37C181.342 181.611 181.778 181.851 182.2 182.085ZM194.916 170.347C198.014 170.721 199.959 170.888 200.888 169.676C202.344 167.772 201.108 163.431 197.641 161.267C196.092 160.3 194.254 159.884 192.565 159.884C191.147 159.884 189.836 160.178 188.895 160.685C186.367 162.047 186.83 166.053 187.833 170.275C190.224 169.782 192.742 170.085 194.916 170.347ZM99.1305 94.3421C99.0907 94.382 99.0515 94.4204 99.011 94.4588C102.39 93.3089 105.541 92.4307 108.223 91.8718L108.416 91.8304C108.967 91.7168 109.987 91.5064 111.017 91.1825C110.266 90.1539 109.589 89.1728 108.932 88.2194C108.559 87.6805 108.192 87.1478 107.822 86.6212C105.536 88.0505 102.704 90.8324 99.1305 94.3421ZM96.3649 97.0471C93.2182 100.099 89.5084 103.579 85.1118 107.203C75.9926 114.722 69.1623 120.354 62.3076 122.322C59.9088 126.531 58.0261 131.784 59.3876 137.61C62.081 149.119 76.078 156.888 88.0545 157.748C93.6 158.147 99.2669 157.133 104.731 154.826C109.374 145.95 121.323 134.842 131.499 125.823C132.122 124.358 132.691 122.953 133.223 121.634C134.585 118.264 135.712 115.475 136.977 113.567C132.955 111.277 128.585 108.502 123.065 103.841C117.645 99.2651 114.407 95.6409 111.997 92.4952C110.799 92.9066 109.592 93.1553 108.811 93.3165L108.622 93.3549C105.155 94.078 100.887 95.3431 96.3649 97.0471ZM66.1952 116.518C65.4037 117.597 64.485 118.85 63.5733 120.254C69.5301 117.959 75.7921 112.798 83.9281 106.09C87.0574 103.51 89.8414 100.998 92.3204 98.6634C82.1499 102.965 71.5158 109.263 66.1952 116.518ZM129.879 129.442C121.398 137.073 111.939 146.162 107.316 153.631C110.853 151.851 114.282 149.523 117.51 146.682C123.383 141.513 127.143 135.236 129.879 129.442ZM105.053 163.987C110.124 173.706 131.247 173.965 135.431 173.915C153.909 173.706 175.693 164.558 177.19 152.629C178.096 145.406 171.456 139.4 160.456 129.449C153.352 123.023 148.307 119.862 143.394 117.114C142.424 118.28 141.178 119.451 139.976 120.511L139.866 120.608C138.956 121.412 137.996 122.256 136.996 123.135C135.73 124.248 134.384 125.431 132.989 126.667C130.088 133.431 125.992 141.372 118.734 147.76C114.741 151.275 110.443 154.035 106 155.979C104.44 159.122 103.954 161.882 105.053 163.987ZM143.33 113.093C143.032 112.577 141.962 112.312 141.298 112.29C141.275 112.289 141.253 112.289 141.231 112.289C140.597 112.289 140.01 112.593 139.445 113.143C140.148 113.532 140.842 113.912 141.534 114.29C141.979 114.533 142.424 114.777 142.872 115.023C143.539 113.957 143.501 113.389 143.33 113.093ZM134.855 122.146C134.708 122.51 134.558 122.881 134.405 123.257C134.868 122.851 135.323 122.45 135.773 122.055C136.771 121.178 137.731 120.334 138.639 119.531L138.751 119.433C140.19 118.163 141.208 117.132 141.919 116.297C141.487 116.059 141.055 115.823 140.62 115.586C139.901 115.193 139.178 114.797 138.446 114.391C137.263 116.186 136.135 118.976 134.855 122.146ZM114.156 89.1022C114.424 87.9768 113.076 86.1959 111.582 85.7C111.31 85.611 111.029 85.5664 110.734 85.5664C110.291 85.5664 109.82 85.6662 109.32 85.8551C109.687 86.3786 110.049 86.9021 110.412 87.4287C111.12 88.4543 111.833 89.4875 112.618 90.5592C113.406 90.1692 114.018 89.6871 114.156 89.1022ZM203.151 159.732C86.421 57.6919 28.2399 6.44882 25.292 3.08348L25.2589 3.0451C24.2896 1.92589 23.3621 1.61114 22.752 1.54359C20.4404 1.28874 17.5953 3.93249 16.3889 6.56396C15.5643 8.36024 14.7554 12.0173 16.9433 14.3325C18.4181 15.8923 20.592 16.0013 23.3447 16.141C24.6086 16.2055 26.0399 16.2777 27.5164 16.5095C35.6402 17.7899 42.8018 23.4781 46.0164 28.2206C47.9898 31.13 48.6697 33.8229 47.9306 35.8034C46.8427 38.7235 42.9813 39.5203 39.2489 40.2895C35.4799 41.0678 31.5818 41.8724 30.2412 44.7065C29.0209 47.2842 30.6439 49.8988 32.3942 52.6623C35.7518 51.6613 39.7178 50.2719 44.179 47.4531C47.5348 45.3329 49.5135 43.4491 51.1034 41.9368C53.1204 40.0162 54.5848 38.6314 57.2067 38.7695C61.1361 38.9799 63.1897 42.2331 66.0313 46.7346C67.6439 49.2908 69.4726 52.1864 72.0527 55.2446C76.4929 60.5107 80.0423 62.5741 84.9514 65.4297C87.8157 67.0955 91.0617 68.9839 95.1132 71.8871C102.294 77.0333 105.687 80.8639 108.387 84.5501C109.721 83.9866 110.963 83.8653 112.192 84.2722C114.284 84.9661 116.338 87.3627 115.852 89.4138C115.601 90.4716 114.692 91.2531 113.574 91.8335C115.926 94.8871 119.025 98.3176 124.264 102.741C129.689 107.32 133.992 110.052 137.957 112.307C138.928 111.27 140.024 110.718 141.365 110.765C141.633 110.775 144.007 110.899 144.874 112.403C145.444 113.39 145.125 114.584 144.336 115.835C149.21 118.566 154.505 121.879 161.697 128.385C173.053 138.658 179.907 144.858 178.911 152.796C178.143 158.918 172.643 164.697 163.424 169.069C155.236 172.953 144.78 175.334 135.454 175.44C131.074 175.487 108.998 175.201 103.478 164.624C102.357 162.473 102.582 159.831 103.775 156.879C98.5642 158.82 93.1938 159.648 87.9133 159.269C81.3585 158.798 74.4532 156.432 68.9688 152.777C63.0084 148.807 59.0041 143.529 57.6914 137.918C56.3507 132.188 57.9005 127.046 60.1041 122.826C58.4183 123.111 56.7151 123.165 54.9631 122.961C44.3812 121.734 37.7845 112.098 35.5548 106.598C32.4605 98.9648 33.5343 90.0387 38.5795 81.4611C43.2707 73.4899 50.7861 66.8529 59.201 63.2511C62.6737 61.7634 66.4305 60.7502 70.3809 60.2343C70.8568 60.1729 71.2979 60.4723 71.3589 60.8945C71.4181 61.309 71.0869 61.6836 70.618 61.745C66.8489 62.2394 63.2664 63.2066 59.9576 64.6221C44.0046 71.4526 30.7294 90.16 37.1848 106.085C39.9061 112.794 46.6998 120.464 55.1897 121.449C57.191 121.681 59.1418 121.529 61.103 121.04C62.332 118.975 63.6517 117.175 64.7395 115.69C70.8899 107.303 83.8619 100.172 95.3154 95.796C96.2015 94.9347 97.0427 94.1087 97.8406 93.3242C101.539 89.6917 104.41 86.8714 106.899 85.3315C104.237 81.6914 101.013 78.0819 94.0201 73.0708C90.0349 70.2152 86.8272 68.3498 83.9979 66.704C79.1288 63.8729 75.2848 61.636 70.6615 56.1551C68.0135 53.0154 66.1568 50.0723 64.5164 47.4761C61.8474 43.2464 60.0832 40.4522 57.1021 40.2925C55.3658 40.2004 54.4505 40.9972 52.376 42.9732C50.8192 44.4532 48.6872 46.4813 45.1883 48.6921C40.6924 51.5339 36.5764 53.0093 33.2415 54.0195C34.7669 56.5266 35.9767 59.1089 34.7477 61.7834C33.761 63.9282 31.5871 65.2485 28.9512 66.1574C30.1453 67.7388 31.0135 69.5258 30.6439 71.6768C29.9257 75.8665 25.088 78.2232 20.6461 80.2636C22.8688 82.2426 24.5842 84.4779 24.4168 87.1631C24.2983 89.0761 23.261 90.702 21.7478 92.1374C23.8695 93.4302 25.6616 95.033 26.1375 97.3597C26.908 101.134 23.6742 104.445 20.4665 107.394C23.2854 108.386 25.7226 109.788 26.7843 112.164C27.8651 114.588 27.0754 117.156 25.6093 119.671C27.438 120.356 29.0872 121.364 30.1907 123.043C32.7499 126.935 30.433 131.655 28.3898 135.82C28.3306 135.938 28.273 136.057 28.2138 136.176C32.9538 136.346 37.7253 136.645 39.8835 139.812C41.3653 141.987 40.8998 144.586 39.8399 147.188C42.2422 147.419 44.491 148.07 46.053 149.797C48.4797 152.478 47.7946 156.125 46.7713 159.581C51.1574 158.946 55.5 158.568 58.1324 161.038C60.1843 162.964 60.1459 165.67 59.487 168.566C62.3181 168.195 65.1666 168.3 67.6788 169.771C71.6622 172.102 72.3072 176.484 72.6542 180.572C77.2757 179.58 82.1674 179.11 86.6756 181.334C89.2103 182.584 90.9903 184.405 92.3187 186.439C95.6013 185.309 99.1137 184.73 102.816 185.854C107.122 187.161 109.402 190.075 111.29 192.843C113.945 190.145 117.016 187.872 120.913 187.948C124.058 188.013 126.553 189.577 128.71 191.563C130.797 189.787 133.304 188.3 136.729 187.953C140.656 187.557 143.597 188.896 146.158 190.358C147.579 187.57 149.484 185.019 152.832 184.022C156.364 182.97 159.821 184.165 163.032 185.788C164.716 182.854 166.641 180.026 170.557 179.126C173.747 178.393 176.697 179.318 179.292 180.555C179.908 177.483 180.999 174.342 184.06 171.97C184.732 171.449 185.443 171.057 186.178 170.765C184.985 165.836 184.482 161.274 187.991 159.384C190.937 157.795 195.517 158.071 198.643 160.022C202.645 162.521 204.469 167.725 202.324 170.527C200.747 172.59 197.801 172.235 194.682 171.859C192.577 171.605 190.288 171.33 188.205 171.768C188.371 172.411 188.543 173.053 188.714 173.684C190.123 178.937 191.341 183.473 188.573 185.077C186.508 186.273 184.084 184.931 181.277 183.376C181.059 183.255 180.839 183.134 180.616 183.012C180.044 186.629 179.597 190.1 176.36 191.528C172.855 193.074 169.132 190.976 165.19 188.755C164.711 188.484 164.229 188.212 163.745 187.946C162.019 190.993 160.122 194.017 156.098 194.94C152.455 195.776 149.638 194.25 146.946 192.656C146.726 193.149 146.513 193.647 146.3 194.142C144.748 197.762 143.281 201.18 139.733 201.667C136.122 202.16 133.495 199.194 130.713 196.052C130.04 195.293 129.362 194.527 128.663 193.799C128.094 194.351 127.543 194.921 126.997 195.485C124.395 198.175 121.94 200.717 118.056 200.454C114.658 200.225 112.808 198.026 111.061 195.486C110.688 195.902 110.317 196.322 109.949 196.74C107.14 199.926 104.475 202.949 101.145 202.948C100.872 202.948 100.593 202.928 100.31 202.886C96.6958 202.345 95.4828 198.773 94.0777 194.639C93.3769 192.576 92.6325 190.386 91.5359 188.382C90.2232 188.904 88.9279 189.5 87.6449 190.091C83.2761 192.104 79.148 194.004 75.4277 192.118C71.9167 190.336 71.3955 186.433 71.073 182.512C70.4245 182.669 69.7829 182.831 69.1501 182.99C64.0335 184.279 59.6125 185.392 56.8703 182.827C54.142 180.275 55.4529 176.078 56.7203 172.019C56.8755 171.521 57.0324 171.021 57.1806 170.523C56.4484 170.677 55.7144 170.847 54.9857 171.016C50.9726 171.944 47.1844 172.82 44.7578 170.635C42.3502 168.467 43.2515 165.098 44.3847 161.483C40.2984 162.077 36.5677 162.406 34.6431 160.193C32.525 157.759 34.3624 154.271 36.3079 150.577C36.6549 149.918 37.0053 149.256 37.3313 148.597C36.62 148.592 35.9 148.603 35.1835 148.614C31.343 148.676 27.3752 148.74 25.2728 146.138C23.3569 143.769 24.2042 140.806 25.6546 137.607C21.6258 137.425 18.0451 136.977 16.5493 134.456C14.7258 131.378 17.5691 127.729 20.5781 123.866C21.448 122.752 22.3266 121.625 23.0972 120.507C22.2046 120.275 21.2789 120.085 20.3619 119.897C17.0671 119.221 13.9553 118.582 13.0278 116.031C12.0359 113.296 14.4434 110.726 17.339 108.053C16.3994 107.8 15.4458 107.57 14.5201 107.347C10.4094 106.356 6.52528 105.421 6.06854 102.796C5.59262 100.049 9.17338 98.0738 13.319 95.7868C15.2296 94.7321 17.2536 93.6159 18.9307 92.3769C18.4338 92.1236 17.9283 91.8749 17.4262 91.6277C14.2551 90.0679 11.2618 88.594 11.2549 85.9027C11.2496 83.2589 14.1923 81.5548 17.6825 79.9089C17.0705 79.433 16.4464 78.9693 15.8363 78.5164C12.5676 76.0892 9.47845 73.797 10.2403 71.0765C11.0718 68.1088 15.7735 67.2966 20.7507 66.4353C22.5306 66.1267 24.3942 65.8043 26.1305 65.3729C25.998 65.2255 25.8638 65.0797 25.7295 64.9323C23.8189 62.8428 21.8437 60.6811 22.7188 57.9345C23.5957 55.1817 26.4704 54.3619 30.4504 53.2258C30.5393 53.2012 30.6282 53.1751 30.7189 53.149C28.8989 50.2642 27.1451 47.2812 28.6426 44.1185C30.3249 40.5658 34.8558 39.6308 38.8549 38.8049C42.2718 38.1002 45.5004 37.4339 46.2866 35.3274C46.8567 33.7952 46.2169 31.4908 44.5294 29.0021C41.51 24.5467 34.8017 19.2085 27.2114 18.011C25.8359 17.7945 24.5197 17.7285 23.2453 17.664C20.3253 17.5167 17.5674 17.377 15.6131 15.3074C13.2405 12.7972 13.4863 8.82083 14.7816 5.99284C16.0263 3.27846 19.3979 -0.366305 22.9682 0.0297979C23.9061 0.134198 25.3042 0.580976 26.6361 2.11932L26.6622 2.15156C29.5648 5.4647 87.6954 56.6571 204.371 158.649C204.711 158.946 204.714 159.43 204.378 159.729C204.041 160.028 203.491 160.028 203.151 159.732Z" fill="#100F0D"/>
<path d="M16.643 234.08V238.347H7.7335V242.958H14.4001V247.101H7.7335V255.948H2.40647V234.08H16.643ZM24.7699 241.463C25.3929 240.507 26.1717 239.76 27.1063 239.22C28.0409 238.659 29.0793 238.379 30.2215 238.379V244.017H28.7574C27.4282 244.017 26.4313 244.308 25.7668 244.889C25.1022 245.45 24.7699 246.447 24.7699 247.88V255.948H19.4428V238.566H24.7699V241.463ZM49.1538 246.977C49.1538 247.475 49.1227 247.994 49.0604 248.534H37.0044C37.0875 249.614 37.4302 250.445 38.0325 251.026C38.6555 251.587 39.4135 251.868 40.3066 251.868C41.6357 251.868 42.5599 251.307 43.0791 250.185H48.7488C48.4581 251.328 47.9285 252.356 47.1601 253.269C46.4124 254.183 45.4675 254.9 44.3252 255.419C43.183 255.938 41.9057 256.198 40.4935 256.198C38.7905 256.198 37.2744 255.834 35.9453 255.107C34.6161 254.38 33.5777 253.342 32.83 251.992C32.0824 250.642 31.7086 249.064 31.7086 247.257C31.7086 245.45 32.072 243.872 32.7989 242.522C33.5465 241.172 34.5849 240.134 35.9141 239.407C37.2433 238.68 38.7697 238.316 40.4935 238.316C42.1757 238.316 43.671 238.669 44.9794 239.375C46.2878 240.082 47.3054 241.089 48.0323 242.397C48.78 243.706 49.1538 245.232 49.1538 246.977ZM43.7022 245.575C43.7022 244.661 43.3906 243.934 42.7676 243.394C42.1446 242.854 41.3657 242.584 40.4312 242.584C39.5381 242.584 38.7801 242.844 38.1571 243.363C37.5548 243.882 37.181 244.619 37.0356 245.575H43.7022ZM59.0356 256.198C57.5196 256.198 56.1696 255.938 54.9858 255.419C53.8021 254.9 52.8675 254.194 52.1821 253.301C51.4968 252.387 51.1126 251.369 51.0295 250.248H56.2942C56.3565 250.85 56.6369 251.338 57.1353 251.712C57.6338 252.086 58.2464 252.273 58.9733 252.273C59.6379 252.273 60.1467 252.148 60.4998 251.899C60.8736 251.629 61.0605 251.286 61.0605 250.871C61.0605 250.372 60.8009 250.009 60.2817 249.78C59.7625 249.531 58.9214 249.261 57.7584 248.97C56.5123 248.68 55.4739 248.378 54.6432 248.067C53.8124 247.735 53.0959 247.226 52.4937 246.541C51.8914 245.834 51.5903 244.889 51.5903 243.706C51.5903 242.709 51.8602 241.805 52.4002 240.995C52.9609 240.165 53.7709 239.51 54.8301 239.033C55.91 238.555 57.1873 238.316 58.6618 238.316C60.8425 238.316 62.5558 238.856 63.8019 239.936C65.0688 241.016 65.7957 242.449 65.9826 244.235H61.0605C60.9775 243.633 60.7075 243.155 60.2506 242.802C59.8144 242.449 59.2329 242.273 58.506 242.273C57.883 242.273 57.4053 242.397 57.073 242.646C56.7408 242.875 56.5746 243.197 56.5746 243.612C56.5746 244.111 56.8342 244.484 57.3534 244.734C57.8934 244.983 58.7241 245.232 59.8456 245.481C61.1332 245.814 62.182 246.146 62.992 246.478C63.8019 246.79 64.508 247.309 65.1103 248.036C65.7334 248.742 66.0553 249.697 66.076 250.902C66.076 251.919 65.7853 252.833 65.2038 253.643C64.643 254.432 63.8227 255.055 62.7428 255.512C61.6836 255.969 60.4479 256.198 59.0356 256.198ZM80.0203 238.379C82.0141 238.379 83.6132 239.043 84.8178 240.372C86.0223 241.681 86.6246 243.488 86.6246 245.793V255.948H81.3287V246.509C81.3287 245.346 81.0276 244.443 80.4253 243.799C79.823 243.155 79.0131 242.833 77.9954 242.833C76.9778 242.833 76.1678 243.155 75.5656 243.799C74.9633 244.443 74.6621 245.346 74.6621 246.509V255.948H69.3351V232.896H74.6621V240.902C75.2021 240.134 75.9394 239.521 76.8739 239.064C77.8085 238.607 78.8573 238.379 80.0203 238.379ZM111.445 240.995C111.05 240.269 110.479 239.718 109.732 239.344C109.005 238.95 108.143 238.752 107.146 238.752C105.422 238.752 104.041 239.324 103.003 240.466C101.964 241.587 101.445 243.093 101.445 244.983C101.445 246.997 101.985 248.576 103.065 249.718C104.166 250.84 105.671 251.4 107.582 251.4C108.89 251.4 109.991 251.068 110.884 250.403C111.798 249.739 112.463 248.783 112.878 247.537H106.118V243.612H117.706V248.565C117.312 249.895 116.637 251.13 115.682 252.273C114.747 253.415 113.553 254.339 112.099 255.045C110.645 255.751 109.005 256.104 107.177 256.104C105.017 256.104 103.086 255.637 101.383 254.702C99.7005 253.747 98.3817 252.428 97.4264 250.746C96.4918 249.064 96.0245 247.143 96.0245 244.983C96.0245 242.823 96.4918 240.902 97.4264 239.22C98.3817 237.517 99.7005 236.198 101.383 235.263C103.065 234.308 104.986 233.83 107.146 233.83C109.763 233.83 111.964 234.464 113.75 235.731C115.557 236.998 116.751 238.752 117.333 240.995H111.445ZM119.598 247.226C119.598 245.44 119.93 243.872 120.595 242.522C121.28 241.172 122.204 240.134 123.367 239.407C124.53 238.68 125.828 238.316 127.261 238.316C128.487 238.316 129.556 238.566 130.47 239.064C131.405 239.562 132.121 240.217 132.62 241.027V238.566H137.947V255.948H132.62V253.487C132.1 254.297 131.374 254.952 130.439 255.45C129.525 255.948 128.456 256.198 127.23 256.198C125.818 256.198 124.53 255.834 123.367 255.107C122.204 254.36 121.28 253.311 120.595 251.961C119.93 250.59 119.598 249.012 119.598 247.226ZM132.62 247.257C132.62 245.928 132.246 244.879 131.498 244.111C130.771 243.342 129.878 242.958 128.819 242.958C127.76 242.958 126.856 243.342 126.109 244.111C125.382 244.858 125.019 245.897 125.019 247.226C125.019 248.555 125.382 249.614 126.109 250.403C126.856 251.172 127.76 251.556 128.819 251.556C129.878 251.556 130.771 251.172 131.498 250.403C132.246 249.635 132.62 248.586 132.62 247.257ZM147.128 241.463C147.751 240.507 148.529 239.76 149.464 239.22C150.399 238.659 151.437 238.379 152.579 238.379V244.017H151.115C149.786 244.017 148.789 244.308 148.124 244.889C147.46 245.45 147.128 246.447 147.128 247.88V255.948H141.801V238.566H147.128V241.463ZM154.066 247.226C154.066 245.44 154.399 243.872 155.063 242.522C155.748 241.172 156.673 240.134 157.836 239.407C158.999 238.68 160.297 238.316 161.73 238.316C162.872 238.316 163.91 238.555 164.845 239.033C165.8 239.51 166.548 240.154 167.088 240.964V232.896H172.415V255.948H167.088V253.456C166.589 254.287 165.873 254.952 164.938 255.45C164.025 255.948 162.955 256.198 161.73 256.198C160.297 256.198 158.999 255.834 157.836 255.107C156.673 254.36 155.748 253.311 155.063 251.961C154.399 250.59 154.066 249.012 154.066 247.226ZM167.088 247.257C167.088 245.928 166.714 244.879 165.966 244.111C165.24 243.342 164.347 242.958 163.287 242.958C162.228 242.958 161.325 243.342 160.577 244.111C159.85 244.858 159.487 245.897 159.487 247.226C159.487 248.555 159.85 249.614 160.577 250.403C161.325 251.172 162.228 251.556 163.287 251.556C164.347 251.556 165.24 251.172 165.966 250.403C166.714 249.635 167.088 248.586 167.088 247.257ZM192.655 246.977C192.655 247.475 192.624 247.994 192.561 248.534H180.506C180.589 249.614 180.931 250.445 181.534 251.026C182.157 251.587 182.915 251.868 183.808 251.868C185.137 251.868 186.061 251.307 186.58 250.185H192.25C191.959 251.328 191.43 252.356 190.661 253.269C189.913 254.183 188.969 254.9 187.826 255.419C186.684 255.938 185.407 256.198 183.995 256.198C182.292 256.198 180.776 255.834 179.446 255.107C178.117 254.38 177.079 253.342 176.331 251.992C175.583 250.642 175.21 249.064 175.21 247.257C175.21 245.45 175.573 243.872 176.3 242.522C177.048 241.172 178.086 240.134 179.415 239.407C180.744 238.68 182.271 238.316 183.995 238.316C185.677 238.316 187.172 238.669 188.48 239.375C189.789 240.082 190.807 241.089 191.533 242.397C192.281 243.706 192.655 245.232 192.655 246.977ZM187.203 245.575C187.203 244.661 186.892 243.934 186.269 243.394C185.646 242.854 184.867 242.584 183.932 242.584C183.039 242.584 182.281 242.844 181.658 243.363C181.056 243.882 180.682 244.619 180.537 245.575H187.203ZM206.057 238.379C208.092 238.379 209.712 239.043 210.917 240.372C212.142 241.681 212.755 243.488 212.755 245.793V255.948H207.459V246.509C207.459 245.346 207.158 244.443 206.555 243.799C205.953 243.155 205.143 242.833 204.125 242.833C203.108 242.833 202.298 243.155 201.696 243.799C201.093 244.443 200.792 245.346 200.792 246.509V255.948H195.465V238.566H200.792V240.871C201.332 240.102 202.059 239.5 202.973 239.064C203.887 238.607 204.915 238.379 206.057 238.379Z" fill="#6E9A34"/>
</svg>
